<?xml version="1.0" encoding="UTF-8"?>
<svg width="18px" height="20px" viewBox="0 0 18 20" version="1.1" xmlns="http://www.w3.org/2000/svg" xmlns:xlink="http://www.w3.org/1999/xlink">
    <!-- Generator: sketchtool 52.5 (67469) - http://www.bohemiancoding.com/sketch -->
    <title>F75F9A19-4E0C-4992-B13F-025D326A9209</title>
    <desc>Created with sketchtool.</desc>
    <g id="Icons" stroke="none" stroke-width="1" fill="none" fill-rule="evenodd">
        <g transform="translate(-977.000000, -1126.000000)" fill="#FFFFFF" fill-rule="nonzero" id="Stacked-Group">
            <g transform="translate(100.000000, 240.000000)">
                <g id="Stacked-Group-Copy-2" transform="translate(0.000000, 806.000000)">
                    <g id="Stacked-Group" transform="translate(0.000000, 70.000000)">
                        <path d="M895,29 C895,29.5522847 894.552285,30 894,30 C893.447715,30 893,29.5522847 893,29 L893,27 C893,25.3431458 891.656854,24 890,24 L882,24 C880.343146,24 879,25.3431458 879,27 L879,29 C879,29.5522847 878.552285,30 878,30 C877.447715,30 877,29.5522847 877,29 L877,27 C877,24.2385763 879.238576,22 882,22 L890,22 C892.761424,22 895,24.2385763 895,27 L895,29 Z M886,20 C883.238576,20 881,17.7614237 881,15 C881,12.2385763 883.238576,10 886,10 C888.761424,10 891,12.2385763 891,15 C891,17.7614237 888.761424,20 886,20 Z M886,18 C887.656854,18 889,16.6568542 889,15 C889,13.3431458 887.656854,12 886,12 C884.343146,12 883,13.3431458 883,15 C883,16.6568542 884.343146,18 886,18 Z" id="Icon-/-General-/-Default-Avatar---White"></path>
                    </g>
                </g>
            </g>
        </g>
    </g>
</svg>