<?xml version="1.0" encoding="UTF-8"?>
<svg width="26px" height="26px" viewBox="0 0 26 26" version="1.1" xmlns="http://www.w3.org/2000/svg" xmlns:xlink="http://www.w3.org/1999/xlink">
    <!-- Generator: sketchtool 52.5 (67469) - http://www.bohemiancoding.com/sketch -->
    <title>5D3D7FE8-DD96-4B55-811C-51FF9A87ABED</title>
    <desc>Created with sketchtool.</desc>
    <g id="Icons" stroke="none" stroke-width="1" fill="none" fill-rule="evenodd">
        <g transform="translate(-683.000000, -2982.000000)" fill="#B9C0C8" id="Stacked-Group">
            <g transform="translate(100.000000, 240.000000)">
                <g id="Stacked-Group-2-Copy-11" transform="translate(0.000000, 2685.000000)">
                    <g id="Stacked-Group" transform="translate(0.000000, 52.000000)">
                        <g id="Icon-/-Analytic-/-Box" transform="translate(583.000000, 5.000000)">
                            <g id="Combined-Shape">
                                <path d="M13.5449884,0.161556384 L25.5449884,7.96155638 C25.8287812,8.14602171 26,8.46152428 26,8.8 L26,17.2 C26,17.5384757 25.8287812,17.8539783 25.5449884,18.0384436 L13.5449884,25.8384436 C13.2135906,26.0538521 12.7864094,26.0538521 12.4550116,25.8384436 L0.455011649,18.0384436 C0.171218842,17.8539783 0,17.5384757 0,17.2 L0,8.8 C0,8.46152428 0.171218842,8.14602171 0.455011649,7.96155638 L12.4550116,0.161556384 C12.7864094,-0.0538521279 13.2135906,-0.0538521279 13.5449884,0.161556384 Z M13,2.19268604 L2,9.34268604 L2,16.657314 L13,23.807314 L24,16.657314 L24,9.34268604 L13,2.19268604 Z" fill-rule="nonzero"></path>
                                <path d="M14,8.27934444 L19,11.7793444 L24.4265377,7.98076808 C24.878987,7.66405357 25.5025174,7.77408836 25.8192319,8.22653766 C26.1359464,8.67898695 26.0259116,9.30251741 25.5734623,9.61923192 L20.7437937,13 L25.5734623,16.3807681 C26.0259116,16.6974826 26.1359464,17.321013 25.8192319,17.7734623 C25.5025174,18.2259116 24.878987,18.3359464 24.4265377,18.0192319 L19,14.2206556 L14,17.7206556 L14,25 C14,25.5522847 13.5522847,26 13,26 C12.4477153,26 12,25.5522847 12,25 L12,17.7206556 L7,14.2206556 L1.57346234,18.0192319 C1.12101305,18.3359464 0.497482587,18.2259116 0.180768079,17.7734623 C-0.135946428,17.321013 -0.0259116406,16.6974826 0.426537656,16.3807681 L5.25620634,13 L0.426537656,9.61923192 C-0.0259116406,9.30251741 -0.135946428,8.67898695 0.180768079,8.22653766 C0.497482587,7.77408836 1.12101305,7.66405357 1.57346234,7.98076808 L7,11.7793444 L12,8.27934444 L12,1 C12,0.44771525 12.4477153,9.05941988e-14 13,9.05941988e-14 C13.5522847,9.05941988e-14 14,0.44771525 14,1 L14,8.27934444 Z M17.2562063,13 L13,10.0206556 L8.74379366,13 L13,15.9793444 L17.2562063,13 Z" fill-rule="nonzero"></path>
                            </g>
                        </g>
                    </g>
                </g>
            </g>
        </g>
    </g>
</svg>