<?xml version="1.0" encoding="UTF-8"?>
<svg width="15px" height="18px" viewBox="0 0 15 18" version="1.1" xmlns="http://www.w3.org/2000/svg" xmlns:xlink="http://www.w3.org/1999/xlink">
    <!-- Generator: sketchtool 52.5 (67469) - http://www.bohemiancoding.com/sketch -->
    <title>2D6EB01C-F574-459D-8A2C-52D46285C779</title>
    <desc>Created with sketchtool.</desc>
    <g id="Icons" stroke="none" stroke-width="1" fill="none" fill-rule="evenodd">
        <g transform="translate(-343.000000, -1326.000000)" fill="#FFFFFF" id="Stacked-Group">
            <g transform="translate(100.000000, 240.000000)">
                <g id="Stacked-Group-Copy-3" transform="translate(0.000000, 1016.000000)">
                    <g id="Stacked-Group" transform="translate(0.000000, 70.000000)">
                        <path d="M256.846154,2.75294118 C257.158655,2.75294118 257.429085,2.86470476 257.657452,3.08823529 C257.885818,3.31176582 258,3.57646906 258,3.88235294 L258,16.8705882 C258,17.2000016 257.885818,17.4705872 257.657452,17.6823529 C257.429085,17.8941187 257.158655,18 256.846154,18 L244.153846,18 C243.841345,18 243.570915,17.8941187 243.342548,17.6823529 C243.114182,17.4705872 243,17.2000016 243,16.8705882 L243,3.88235294 C243,3.57646906 243.114182,3.31176582 243.342548,3.08823529 C243.570915,2.86470476 243.841345,2.75294118 244.153846,2.75294118 L247.651442,2.75294118 L247.651442,1.69411765 C247.651442,1.22352706 247.81971,0.823531059 248.15625,0.494117647 C248.49279,0.164704235 248.90144,0 249.382212,0 L251.653846,0 C252.134618,0 252.543268,0.164704235 252.879808,0.494117647 C253.216348,0.823531059 253.384615,1.22352706 253.384615,1.69411765 L253.384615,2.75294118 L256.846154,2.75294118 Z M248.805288,1.69411765 L248.805288,2.75294118 L252.230769,2.75294118 L252.230769,1.69411765 C252.230769,1.52941094 252.176683,1.39411818 252.06851,1.28823529 C251.960336,1.18235241 251.822116,1.12941176 251.653846,1.12941176 L249.382212,1.12941176 C249.213941,1.12941176 249.075722,1.18235241 248.967548,1.28823529 C248.859374,1.39411818 248.805288,1.52941094 248.805288,1.69411765 Z M256.846154,16.8705882 L256.846154,3.88235294 L253.384615,3.88235294 L253.384615,5.18823529 C253.360577,5.28235341 253.300481,5.37647012 253.204327,5.47058824 C253.108173,5.56470635 252.975962,5.61176471 252.807692,5.61176471 C252.399036,5.61176471 252.206731,5.42353129 252.230769,5.04705882 L252.230769,3.88235294 L248.805288,3.88235294 L248.805288,5.18823529 C248.805288,5.28235341 248.751202,5.37647012 248.643029,5.47058824 C248.534855,5.56470635 248.384616,5.61176471 248.192308,5.61176471 C247.80769,5.61176471 247.627404,5.42353129 247.651442,5.04705882 L247.651442,3.88235294 L244.153846,3.88235294 L244.153846,16.8705882 L256.846154,16.8705882 Z" id="Icon-/-Progresses-/-5---N0"></path>
                    </g>
                </g>
            </g>
        </g>
    </g>
</svg>