<?xml version="1.0" encoding="UTF-8"?>
<svg width="36px" height="36px" viewBox="0 0 36 36" version="1.1" xmlns="http://www.w3.org/2000/svg" xmlns:xlink="http://www.w3.org/1999/xlink">
    <!-- Generator: sketchtool 52.5 (67469) - http://www.bohemiancoding.com/sketch -->
    <title>D42F1BD8-68FD-4697-99AC-A2A16131ADD7</title>
    <desc>Created with sketchtool.</desc>
    <g id="Icons" stroke="none" stroke-width="1" fill="none" fill-rule="evenodd">
        <g transform="translate(-352.000000, -2788.000000)" fill="#B9C0C8" id="Stacked-Group">
            <g transform="translate(100.000000, 240.000000)">
                <g id="Stacked-Group-2-Copy-9" transform="translate(0.000000, 2495.000000)">
                    <g id="Stacked-Group" transform="translate(0.000000, 52.000000)">
                        <g id="Icon-/-Wallet-/-Building---N20" transform="translate(252.000000, 1.000000)">
                            <path d="M6,19.862069 L6,13.6551724 L12,13.6551724 L12,8.17545903 L16.5,4.4513211 L16.5,0 L19.5,0 L19.5,4.4513211 L24,8.17545903 L24,13.6551724 L30,13.6551724 L30,19.862069 L33,19.862069 L33,26.0689655 L36,26.0689655 L36,36 L25.5,36 L10.5,36 L0,36 L0,26.0689655 L3,26.0689655 L3,19.862069 L6,19.862069 Z M12,26.0689655 L6,26.0689655 L6,22.3448276 L30,22.3448276 L30,26.0689655 L24,26.0689655 L24,33.5172414 L12,33.5172414 L12,26.0689655 Z M27,28.5517241 L33.0858765,28.5517241 L33.0858765,33.5172414 L27,33.5172414 L27,28.5517241 Z M9,19.862069 L9,16.137931 L27,16.137931 L27,19.862069 L9,19.862069 Z M9,28.5517241 L9,33.5172414 L3,33.5172414 L3,28.5517241 L9,28.5517241 Z M15,9.17952162 L18,6.771501 L21,9.17952166 L21,13.6551725 L15,13.6551725 L15,9.17952162 Z"></path>
                        </g>
                    </g>
                </g>
            </g>
        </g>
    </g>
</svg>