<?xml version="1.0" encoding="UTF-8"?>
<svg width="16px" height="20px" viewBox="0 0 16 20" version="1.1" xmlns="http://www.w3.org/2000/svg" xmlns:xlink="http://www.w3.org/1999/xlink">
    <!-- Generator: sketchtool 52.4 (67378) - http://www.bohemiancoding.com/sketch -->
    <title>A4D3402E-0177-4DC0-A301-DA75FAF47A51</title>
    <desc>Created with sketchtool.</desc>
    <g id="Icons" stroke="none" stroke-width="1" fill="none" fill-rule="evenodd">
        <g transform="translate(-444.000000, -2135.000000)" fill="#B9C0C8" id="Stacked-Group">
            <g transform="translate(100.000000, 240.000000)">
                <g id="Stacked-Group-2-Copy-10" transform="translate(0.000000, 1835.000000)">
                    <g id="Stacked-Group" transform="translate(0.000000, 52.000000)">
                        <path d="M358.769231,11.0588235 C359.102566,11.0588235 359.391024,11.1830053 359.634615,11.4313725 C359.878206,11.6797398 360,11.9738545 360,12.3137255 L360,26.745098 C360,27.1111129 359.878206,27.4117635 359.634615,27.6470588 C359.391024,27.8823541 359.102566,28 358.769231,28 L345.230769,28 C344.897434,28 344.608976,27.8823541 344.365385,27.6470588 C344.121794,27.4117635 344,27.1111129 344,26.745098 L344,12.3137255 C344,11.9738545 344.121794,11.6797398 344.365385,11.4313725 C344.608976,11.1830053 344.897434,11.0588235 345.230769,11.0588235 L348.961538,11.0588235 L348.961538,9.88235294 C348.961538,9.35947451 349.141024,8.91503451 349.5,8.54901961 C349.858976,8.18300471 350.294869,8 350.807692,8 L353.230769,8 C353.743592,8 354.179485,8.18300471 354.538462,8.54901961 C354.897438,8.91503451 355.076923,9.35947451 355.076923,9.88235294 L355.076923,11.0588235 L358.769231,11.0588235 Z M350.192308,9.88235294 L350.192308,11.0588235 L353.846154,11.0588235 L353.846154,9.88235294 C353.846154,9.69934549 353.788462,9.5490202 353.673077,9.43137255 C353.557692,9.3137249 353.410257,9.25490196 353.230769,9.25490196 L350.807692,9.25490196 C350.628204,9.25490196 350.48077,9.3137249 350.365385,9.43137255 C350.249999,9.5490202 350.192308,9.69934549 350.192308,9.88235294 Z M358.769231,26.745098 L358.769231,12.3137255 L355.076923,12.3137255 L355.076923,13.7647059 C355.051282,13.8692816 354.98718,13.9738557 354.884615,14.0784314 C354.782051,14.1830071 354.641027,14.2352941 354.461538,14.2352941 C354.025639,14.2352941 353.820513,14.0261459 353.846154,13.6078431 L353.846154,12.3137255 L350.192308,12.3137255 L350.192308,13.7647059 C350.192308,13.8692816 350.134616,13.9738557 350.019231,14.0784314 C349.903846,14.1830071 349.743591,14.2352941 349.538462,14.2352941 C349.128203,14.2352941 348.935897,14.0261459 348.961538,13.6078431 L348.961538,12.3137255 L345.230769,12.3137255 L345.230769,26.745098 L358.769231,26.745098 Z" id="Icon-/-Shipping-/-Item-Bag"></path>
                    </g>
                </g>
            </g>
        </g>
    </g>
</svg>