<?xml version="1.0" encoding="UTF-8"?>
<svg width="15px" height="18px" viewBox="0 0 15 18" version="1.1" xmlns="http://www.w3.org/2000/svg" xmlns:xlink="http://www.w3.org/1999/xlink">
    <!-- Generator: sketchtool 52.5 (67469) - http://www.bohemiancoding.com/sketch -->
    <title>1C76D527-2E5D-4B07-99E2-DA8CE9DADC01</title>
    <desc>Created with sketchtool.</desc>
    <g id="Notifications" stroke="none" stroke-width="1" fill="none" fill-rule="evenodd">
        <g transform="translate(-130.000000, -340.000000)" fill="#5594F4" id="Stacked-Group">
            <g transform="translate(100.000000, 260.000000)">
                <g id="Dropdown">
                    <g id="notif" transform="translate(0.000000, 77.000000)">
                        <g transform="translate(30.000000, 0.000000)" id="î">
                            <path d="M13.5529412,5.75294118 C13.8588251,5.75294118 14.1235283,5.86470476 14.3470588,6.08823529 C14.5705894,6.31176582 14.6823529,6.57646906 14.6823529,6.88235294 L14.6823529,19.8705882 C14.6823529,20.2000016 14.5705894,20.4705872 14.3470588,20.6823529 C14.1235283,20.8941187 13.8588251,21 13.5529412,21 L1.12941176,21 C0.823527882,21 0.558824647,20.8941187 0.335294118,20.6823529 C0.111763588,20.4705872 0,20.2000016 0,19.8705882 L0,6.88235294 C0,6.57646906 0.111763588,6.31176582 0.335294118,6.08823529 C0.558824647,5.86470476 0.823527882,5.75294118 1.12941176,5.75294118 L4.55294118,5.75294118 L4.55294118,4.69411765 C4.55294118,4.22352706 4.71764541,3.82353106 5.04705882,3.49411765 C5.37647224,3.16470424 5.77646824,3 6.24705882,3 L8.47058824,3 C8.94117882,3 9.34117482,3.16470424 9.67058824,3.49411765 C10.0000016,3.82353106 10.1647059,4.22352706 10.1647059,4.69411765 L10.1647059,5.75294118 L13.5529412,5.75294118 Z M5.68235294,4.69411765 L5.68235294,5.75294118 L9.03529412,5.75294118 L9.03529412,4.69411765 C9.03529412,4.52941094 8.98235347,4.39411818 8.87647059,4.28823529 C8.77058771,4.18235241 8.63529494,4.12941176 8.47058824,4.12941176 L6.24705882,4.12941176 C6.08235212,4.12941176 5.94705935,4.18235241 5.84117647,4.28823529 C5.73529359,4.39411818 5.68235294,4.52941094 5.68235294,4.69411765 Z M13.5529412,19.8705882 L13.5529412,6.88235294 L10.1647059,6.88235294 L10.1647059,8.18823529 C10.1411764,8.28235341 10.0823534,8.37647012 9.98823529,8.47058824 C9.89411718,8.56470635 9.76470671,8.61176471 9.6,8.61176471 C9.199998,8.61176471 9.01176459,8.42353129 9.03529412,8.04705882 L9.03529412,6.88235294 L5.68235294,6.88235294 L5.68235294,8.18823529 C5.68235294,8.28235341 5.62941229,8.37647012 5.52352941,8.47058824 C5.41764653,8.56470635 5.27058918,8.61176471 5.08235294,8.61176471 C4.70588047,8.61176471 4.52941165,8.42353129 4.55294118,8.04705882 L4.55294118,6.88235294 L1.12941176,6.88235294 L1.12941176,19.8705882 L13.5529412,19.8705882 Z"></path>
                        </g>
                    </g>
                </g>
            </g>
        </g>
    </g>
</svg>