<?xml version="1.0" encoding="UTF-8"?>
<svg width="21px" height="26px" viewBox="0 0 21 26" version="1.1" xmlns="http://www.w3.org/2000/svg" xmlns:xlink="http://www.w3.org/1999/xlink">
    <!-- Generator: sketchtool 52.5 (67469) - http://www.bohemiancoding.com/sketch -->
    <title>2CF94595-A795-4CE4-9082-B6AF725E82BD</title>
    <desc>Created with sketchtool.</desc>
    <g id="Icons" stroke="none" stroke-width="1" fill="none" fill-rule="evenodd">
        <g transform="translate(-612.000000, -2982.000000)" fill="#B9C0C8" fill-rule="nonzero" id="Stacked-Group">
            <g transform="translate(100.000000, 240.000000)">
                <g id="Stacked-Group-2-Copy-11" transform="translate(0.000000, 2685.000000)">
                    <g id="Stacked-Group" transform="translate(0.000000, 52.000000)">
                        <g id="Icon-/-Analytic-/-Book" transform="translate(512.000000, 5.000000)">
                            <path d="M1.98113208,18.5351288 C2.56392837,18.1947886 3.24056321,18 3.96226415,18 L19.0188679,18 L19.0188679,2 L3.96226415,2 C2.86811512,2 1.98113208,2.8954305 1.98113208,4 L1.98113208,18.5351288 Z M19.0188679,20 L3.96226415,20 C2.86811512,20 1.98113208,20.8954305 1.98113208,22 C1.98113208,23.1045695 2.86811512,24 3.96226415,24 L19.0188679,24 L19.0188679,20 Z M3.96226415,0 L20.009434,0 C20.5565085,0 21,0.44771525 21,1 L21,25 C21,25.5522847 20.5565085,26 20.009434,26 L3.96226415,26 C1.77396609,26 2.30926389e-14,24.209139 2.30926389e-14,22 L2.30926389e-14,4 C2.30926389e-14,1.790861 1.77396609,6.66133815e-16 3.96226415,0 Z"></path>
                        </g>
                    </g>
                </g>
            </g>
        </g>
    </g>
</svg>