<?xml version="1.0" encoding="UTF-8"?>
<svg width="18px" height="19px" viewBox="0 0 18 19" version="1.1" xmlns="http://www.w3.org/2000/svg" xmlns:xlink="http://www.w3.org/1999/xlink">
    <!-- Generator: sketchtool 52.5 (67469) - http://www.bohemiancoding.com/sketch -->
    <title>6BE83446-8B31-4321-9C81-B147CDF7C463</title>
    <desc>Created with sketchtool.</desc>
    <g id="Icons" stroke="none" stroke-width="1" fill="none" fill-rule="evenodd">
        <g transform="translate(-793.000000, -1126.000000)" fill="#B9C0C8" fill-rule="nonzero" id="Stacked-Group">
            <g transform="translate(100.000000, 240.000000)">
                <g id="Stacked-Group-Copy-2" transform="translate(0.000000, 806.000000)">
                    <g id="Stacked-Group" transform="translate(0.000000, 70.000000)">
                        <path d="M696.801719,22.079694 C696.776922,22.0869973 696.750711,22.0909091 696.723594,22.0909091 L696.442344,22.0909091 C696.286812,22.0909091 696.161094,21.9622273 696.161094,21.8030303 C696.161094,21.6438333 696.286812,21.5151515 696.442344,21.5151515 L696.723594,21.5151515 C696.750711,21.5151515 696.776922,21.5190633 696.801719,21.5263666 C696.826515,21.5190633 696.852726,21.5151515 696.879844,21.5151515 L697.161094,21.5151515 C697.316625,21.5151515 697.442344,21.6438333 697.442344,21.8030303 C697.442344,21.9622273 697.316625,22.0909091 697.161094,22.0909091 L696.879844,22.0909091 C696.852726,22.0909091 696.826515,22.0869973 696.801719,22.079694 Z M709.050375,12.3030303 C710.127,12.3030303 711,13.1966061 711,14.2986061 L711,27.0044242 C711,28.1064242 710.127,29 709.050375,29 L694.949625,29 C693.873,29 693,28.1064242 693,27.0044242 L693,14.2986061 C693,13.1966061 693.873,12.3030303 694.949625,12.3030303 L696.375,12.3030303 L696.375,10.5757576 C696.375,10.2579394 696.627,10 696.9375,10 C697.248,10 697.5,10.2579394 697.5,10.5757576 L697.5,12.3030303 L706.21875,12.3030303 L706.21875,10.5757576 C706.21875,10.2579394 706.47075,10 706.78125,10 C707.09175,10 707.34375,10.2579394 707.34375,10.5757576 L707.34375,12.3030303 L709.050375,12.3030303 Z M694.949625,13.4545455 C694.494281,13.4545455 694.125,13.8325303 694.125,14.2986061 L694.125,17.1969697 L709.875,17.1969697 L709.875,14.2986061 C709.875,13.8325303 709.506,13.4545455 709.050375,13.4545455 L707.34375,13.4545455 L707.34375,14.8939394 C707.34375,15.2120455 707.09175,15.469697 706.78125,15.469697 C706.47075,15.469697 706.21875,15.2117576 706.21875,14.8939394 L706.21875,13.4545455 L697.5,13.4545455 L697.5,14.8939394 C697.5,15.2120455 697.248,15.469697 696.9375,15.469697 C696.627,15.469697 696.375,15.2117576 696.375,14.8939394 L696.375,13.4545455 L694.949625,13.4545455 Z M709.050375,27.8484848 C709.506,27.8484848 709.875,27.4707879 709.875,27.0044242 L709.875,17.7727273 L694.125,17.7727273 L694.125,27.0044242 C694.125,27.4707879 694.494281,27.8484848 694.949625,27.8484848 L709.050375,27.8484848 Z M708.72075,25.4421061 C708.876562,25.4421061 709.03125,25.5707879 709.03125,25.7299848 L709.03125,25.8333333 C709.03125,25.8503182 709.001156,25.8664394 708.998062,25.8828485 C708.956437,26.6143485 708.580687,26.9848485 707.935219,26.9848485 L706.160531,26.9848485 C706.005,26.9848485 705.879281,26.8561667 705.879281,26.6969697 C705.879281,26.5377727 706.005,26.4090909 706.160531,26.4090909 L707.935219,26.4090909 C708.213656,26.4090909 708.410531,26.3601515 708.410531,25.7299848 C708.410531,25.5707879 708.565219,25.4421061 708.72075,25.4421061 Z M708.714844,24.8001364 C708.638625,24.8001364 708.568313,24.7681818 708.515156,24.7163636 C708.46425,24.6622424 708.433594,24.5902727 708.433594,24.5122576 C708.433594,24.4365455 708.46425,24.3622727 708.515156,24.3075758 C708.619219,24.2013485 708.807656,24.2013485 708.914531,24.3075758 C708.965438,24.3619848 708.996094,24.4365455 708.996094,24.5122576 C708.996094,24.5871061 708.965438,24.6622424 708.914531,24.7163636 C708.861094,24.7678939 708.787969,24.8001364 708.714844,24.8001364 Z M697.161094,19.7878788 C697.316625,19.7878788 697.442344,19.9165606 697.442344,20.0757576 C697.442344,20.2349545 697.316625,20.3636364 697.161094,20.3636364 L696.879844,20.3636364 C696.724312,20.3636364 696.598594,20.2349545 696.598594,20.0757576 C696.598594,19.9165606 696.724312,19.7878788 696.879844,19.7878788 L697.161094,19.7878788 Z M699.129844,19.7878788 C699.285375,19.7878788 699.411094,19.9165606 699.411094,20.0757576 C699.411094,20.2349545 699.285375,20.3636364 699.129844,20.3636364 L698.848594,20.3636364 C698.693062,20.3636364 698.567344,20.2349545 698.567344,20.0757576 C698.567344,19.9165606 698.693062,19.7878788 698.848594,19.7878788 L699.129844,19.7878788 Z M701.098594,19.7878788 C701.254125,19.7878788 701.379844,19.9165606 701.379844,20.0757576 C701.379844,20.2349545 701.254125,20.3636364 701.098594,20.3636364 L700.817344,20.3636364 C700.661812,20.3636364 700.536094,20.2349545 700.536094,20.0757576 C700.536094,19.9165606 700.661812,19.7878788 700.817344,19.7878788 L701.098594,19.7878788 Z M702.786094,19.7878788 C702.941625,19.7878788 703.067344,19.9165606 703.067344,20.0757576 C703.067344,20.2349545 702.941625,20.3636364 702.786094,20.3636364 L702.504844,20.3636364 C702.349312,20.3636364 702.223594,20.2349545 702.223594,20.0757576 C702.223594,19.9165606 702.349312,19.7878788 702.504844,19.7878788 L702.786094,19.7878788 Z M704.754844,19.7878788 C704.910375,19.7878788 705.036094,19.9165606 705.036094,20.0757576 C705.036094,20.2349545 704.910375,20.3636364 704.754844,20.3636364 L704.473594,20.3636364 C704.318062,20.3636364 704.192344,20.2349545 704.192344,20.0757576 C704.192344,19.9165606 704.318062,19.7878788 704.473594,19.7878788 L704.754844,19.7878788 Z M706.442344,20.3636364 C706.286812,20.3636364 706.161094,20.2349545 706.161094,20.0757576 C706.161094,19.9165606 706.286812,19.7878788 706.442344,19.7878788 L706.723594,19.7878788 C706.879125,19.7878788 707.004844,19.9165606 707.004844,20.0757576 C707.004844,20.2349545 706.879125,20.3636364 706.723594,20.3636364 L706.442344,20.3636364 Z M699.129844,21.5151515 C699.285375,21.5151515 699.411094,21.6438333 699.411094,21.8030303 C699.411094,21.9622273 699.285375,22.0909091 699.129844,22.0909091 L698.848594,22.0909091 C698.693062,22.0909091 698.567344,21.9622273 698.567344,21.8030303 C698.567344,21.6438333 698.693062,21.5151515 698.848594,21.5151515 L699.129844,21.5151515 Z M701.098594,21.5151515 C701.254125,21.5151515 701.379844,21.6438333 701.379844,21.8030303 C701.379844,21.9622273 701.254125,22.0909091 701.098594,22.0909091 L700.817344,22.0909091 C700.661812,22.0909091 700.536094,21.9622273 700.536094,21.8030303 C700.536094,21.6438333 700.661812,21.5151515 700.817344,21.5151515 L701.098594,21.5151515 Z M702.786094,21.5151515 C702.941625,21.5151515 703.067344,21.6438333 703.067344,21.8030303 C703.067344,21.9622273 702.941625,22.0909091 702.786094,22.0909091 L702.504844,22.0909091 C702.349312,22.0909091 702.223594,21.9622273 702.223594,21.8030303 C702.223594,21.6438333 702.349312,21.5151515 702.504844,21.5151515 L702.786094,21.5151515 Z M704.754844,21.5151515 C704.910375,21.5151515 705.036094,21.6438333 705.036094,21.8030303 C705.036094,21.9622273 704.910375,22.0909091 704.754844,22.0909091 L704.473594,22.0909091 C704.318062,22.0909091 704.192344,21.9622273 704.192344,21.8030303 C704.192344,21.6438333 704.318062,21.5151515 704.473594,21.5151515 L704.754844,21.5151515 Z M697.161094,24.969697 C697.316625,24.969697 697.442344,25.0983788 697.442344,25.2575758 C697.442344,25.4167727 697.316625,25.5454545 697.161094,25.5454545 L696.879844,25.5454545 C696.724312,25.5454545 696.598594,25.4167727 696.598594,25.2575758 C696.598594,25.0983788 696.724312,24.969697 696.879844,24.969697 L697.161094,24.969697 Z M699.129844,24.969697 C699.285375,24.969697 699.411094,25.0983788 699.411094,25.2575758 C699.411094,25.4167727 699.285375,25.5454545 699.129844,25.5454545 L698.848594,25.5454545 C698.693062,25.5454545 698.567344,25.4167727 698.567344,25.2575758 C698.567344,25.0983788 698.693062,24.969697 698.848594,24.969697 L699.129844,24.969697 Z M701.098594,24.969697 C701.254125,24.969697 701.379844,25.0983788 701.379844,25.2575758 C701.379844,25.4167727 701.254125,25.5454545 701.098594,25.5454545 L700.817344,25.5454545 C700.661812,25.5454545 700.536094,25.4167727 700.536094,25.2575758 C700.536094,25.0983788 700.661812,24.969697 700.817344,24.969697 L701.098594,24.969697 Z M702.786094,24.969697 C702.941625,24.969697 703.067344,25.0983788 703.067344,25.2575758 C703.067344,25.4167727 702.941625,25.5454545 702.786094,25.5454545 L702.504844,25.5454545 C702.349312,25.5454545 702.223594,25.4167727 702.223594,25.2575758 C702.223594,25.0983788 702.349312,24.969697 702.504844,24.969697 L702.786094,24.969697 Z M697.161094,23.2424242 C697.316625,23.2424242 697.442344,23.3711061 697.442344,23.530303 C697.442344,23.6895 697.316625,23.8181818 697.161094,23.8181818 L696.879844,23.8181818 C696.724312,23.8181818 696.598594,23.6895 696.598594,23.530303 C696.598594,23.3711061 696.724312,23.2424242 696.879844,23.2424242 L697.161094,23.2424242 Z M699.129844,23.2424242 C699.285375,23.2424242 699.411094,23.3711061 699.411094,23.530303 C699.411094,23.6895 699.285375,23.8181818 699.129844,23.8181818 L698.848594,23.8181818 C698.693062,23.8181818 698.567344,23.6895 698.567344,23.530303 C698.567344,23.3711061 698.693062,23.2424242 698.848594,23.2424242 L699.129844,23.2424242 Z M701.098594,23.2424242 C701.254125,23.2424242 701.379844,23.3711061 701.379844,23.530303 C701.379844,23.6895 701.254125,23.8181818 701.098594,23.8181818 L700.817344,23.8181818 C700.661812,23.8181818 700.536094,23.6895 700.536094,23.530303 C700.536094,23.3711061 700.661812,23.2424242 700.817344,23.2424242 L701.098594,23.2424242 Z M702.786094,23.2424242 C702.941625,23.2424242 703.067344,23.3711061 703.067344,23.530303 C703.067344,23.6895 702.941625,23.8181818 702.786094,23.8181818 L702.504844,23.8181818 C702.349312,23.8181818 702.223594,23.6895 702.223594,23.530303 C702.223594,23.3711061 702.349312,23.2424242 702.504844,23.2424242 L702.786094,23.2424242 Z M704.754844,23.2424242 C704.910375,23.2424242 705.036094,23.3711061 705.036094,23.530303 C705.036094,23.6895 704.910375,23.8181818 704.754844,23.8181818 L704.473594,23.8181818 C704.318062,23.8181818 704.192344,23.6895 704.192344,23.530303 C704.192344,23.3711061 704.318062,23.2424242 704.473594,23.2424242 L704.754844,23.2424242 Z M706.442344,23.8181818 C706.286812,23.8181818 706.161094,23.6895 706.161094,23.530303 C706.161094,23.3711061 706.286812,23.2424242 706.442344,23.2424242 L706.723594,23.2424242 C706.879125,23.2424242 707.004844,23.3711061 707.004844,23.530303 C707.004844,23.6895 706.879125,23.8181818 706.723594,23.8181818 L706.442344,23.8181818 Z" id="Icon-/-General-/-Calendar---N20"></path>
                    </g>
                </g>
            </g>
        </g>
    </g>
</svg>