<?xml version="1.0" encoding="UTF-8"?>
<svg width="13px" height="18px" viewBox="0 0 13 18" version="1.1" xmlns="http://www.w3.org/2000/svg" xmlns:xlink="http://www.w3.org/1999/xlink">
    <!-- Generator: sketchtool 52.5 (67469) - http://www.bohemiancoding.com/sketch -->
    <title>3248361D-B8C4-4F9A-A40C-DEDD40CC981D</title>
    <desc>Created with sketchtool.</desc>
    <g id="Icons" stroke="none" stroke-width="1" fill="none" fill-rule="evenodd">
        <g transform="translate(-854.000000, -1127.000000)" fill="#FFFFFF" id="Stacked-Group">
            <g transform="translate(100.000000, 240.000000)">
                <g id="Stacked-Group-Copy-2" transform="translate(0.000000, 806.000000)">
                    <g id="Stacked-Group" transform="translate(0.000000, 70.000000)">
                        <path d="M767,12.7730193 L767,13.9293362 L754,13.9293362 L754,12.7730193 L758.228916,12.7730193 C758.281125,12.5160587 758.379015,12.2783737 758.52259,12.0599572 C758.666165,11.8415407 758.842368,11.655247 759.051205,11.5010707 C759.260041,11.3468943 759.488453,11.2248399 759.736446,11.1349036 C759.984439,11.0449674 760.238955,11 760.5,11 C760.78715,11 761.054718,11.0449674 761.302711,11.1349036 C761.550704,11.2248399 761.772589,11.3468943 761.968373,11.5010707 C762.164158,11.655247 762.333835,11.8415407 762.47741,12.0599572 C762.620985,12.2783737 762.718875,12.5160587 762.771084,12.7730193 L767,12.7730193 Z M760.5,12.1563169 C760.395582,12.1563169 760.291165,12.1691648 760.186747,12.1948608 C760.082329,12.2205569 759.990964,12.2655243 759.912651,12.3297645 L759.677711,12.5224839 C759.599397,12.5867241 759.534137,12.670235 759.481928,12.7730193 L761.518072,12.7730193 C761.465863,12.670235 761.407129,12.5867241 761.341867,12.5224839 C761.276606,12.4582438 761.198294,12.4004285 761.106928,12.3490364 C761.015562,12.2976443 760.917671,12.2526769 760.813253,12.2141328 C760.708835,12.1755887 760.604418,12.1563169 760.5,12.1563169 Z M765.237952,15.0471092 L766.412651,15.0471092 L766.412651,27.2655246 C766.412651,27.5224852 766.366968,27.7537463 766.275602,27.9593148 C766.184236,28.1648833 766.053716,28.344753 765.884036,28.4989293 C765.714357,28.6531057 765.525101,28.7751601 765.316265,28.8650964 C765.107429,28.9550326 764.872491,29 764.611446,29 L756.388554,29 C756.127509,29 755.892571,28.9550326 755.683735,28.8650964 C755.474899,28.7751601 755.292169,28.6531057 755.135542,28.4989293 C754.978915,28.344753 754.848394,28.1648833 754.743976,27.9593148 C754.639558,27.7537463 754.587349,27.5224852 754.587349,27.2655246 L754.587349,15.0471092 L755.801205,15.0471092 L755.801205,27.2655246 C755.801205,27.3426128 755.814257,27.4196998 755.840361,27.496788 C755.866466,27.5738762 755.905622,27.6381154 755.957831,27.6895075 C756.01004,27.7408996 756.075301,27.7794431 756.153614,27.8051392 C756.231928,27.8308352 756.310241,27.8436831 756.388554,27.8436831 L764.611446,27.8436831 C764.715864,27.8436831 764.800702,27.8308352 764.865964,27.8051392 C764.931225,27.7794431 764.98996,27.7408996 765.042169,27.6895075 C765.094378,27.6381154 765.14006,27.5738762 765.179217,27.496788 C765.218374,27.4196998 765.237952,27.3426128 765.237952,27.2655246 L765.237952,15.0471092 Z M759.325301,16.24197 L759.325301,25.5310493 L758.150602,25.5310493 L758.150602,16.24197 L759.325301,16.24197 Z M762.849398,16.24197 L762.849398,25.5310493 L761.674699,25.5310493 L761.674699,16.24197 L762.849398,16.24197 Z" id="Icon-/-General-/-Delete----N0"></path>
                    </g>
                </g>
            </g>
        </g>
    </g>
</svg>