<?xml version="1.0" encoding="UTF-8"?>
<svg width="40px" height="40px" viewBox="0 0 40 40" version="1.1" xmlns="http://www.w3.org/2000/svg" xmlns:xlink="http://www.w3.org/1999/xlink">
    <!-- Generator: sketchtool 53.2 (72643) - https://sketchapp.com -->
    <title>C4CB2EC7-9749-441C-A706-B5FD9FCC70E5</title>
    <desc>Created with sketchtool.</desc>
    <g id="Dashboard" stroke="none" stroke-width="1" fill="none" fill-rule="evenodd">
        <g id="9.Order-Detail---delivered" transform="translate(-360.000000, -955.000000)">
            <g id="left" transform="translate(310.000000, 270.000000)">
                <g id="acts" transform="translate(50.000000, 545.000000)">
                    <g id="order" transform="translate(0.000000, 140.000000)">
                        <g id="icon-email-confirm">
                            <circle id="Oval-3" fill="#CAAB08" cx="20" cy="20" r="20"></circle>
                            <path d="M29.0351562,19.4570312 L29.0351562,28 C29.0351562,28.304689 28.9238292,28.5683583 28.7011719,28.7910156 C28.4785145,29.013673 28.2148453,29.125 27.9101562,29.125 L12.1601562,29.125 C11.8554672,29.125 11.591798,29.013673 11.3691406,28.7910156 C11.1464833,28.5683583 11.0351562,28.304689 11.0351562,28 L11.0351562,19.5625 C11.0351562,19.1640605 11.1992171,18.8593761 11.5273438,18.6484375 L14.4101562,15.765625 L14.4101562,13.9023438 C14.4101562,13.761718 14.4628901,13.6328131 14.5683594,13.515625 C14.6738287,13.3984369 14.8085929,13.3398438 14.9726562,13.3398438 L16.8359375,13.3398438 L18.875,11.6171875 C19.2031266,11.2890609 19.6015602,11.125 20.0703125,11.125 C20.5390648,11.125 20.9374984,11.2890609 21.265625,11.6171875 L23.3046875,13.3398438 L25.0976562,13.3398438 C25.2617196,13.3398438 25.3964838,13.3984369 25.5019531,13.515625 C25.6074224,13.6328131 25.6601562,13.761718 25.6601562,13.9023438 L25.6601562,15.7304688 L28.6132812,18.6835938 C28.6835941,18.7539066 28.7421873,18.8242184 28.7890625,18.8945312 L28.8242188,18.8945312 C28.9414068,19.0585946 29.0117186,19.2460927 29.0351562,19.4570312 Z M15.7460938,23.8867188 L12.1601562,20.6875 L12.1601562,27.2265625 L15.7460938,23.8867188 Z M16.8359375,24.4140625 L12.96875,28 L27.171875,28 L20.421875,21.8828125 C20.3046869,21.789062 20.1523447,21.7421875 19.9648438,21.7421875 C19.824218,21.7421875 19.6835945,21.8007807 19.5429688,21.9179688 L17.1171875,24.1679688 C17.0937499,24.1914064 17.0703126,24.2265623 17.046875,24.2734375 C16.9999998,24.3203127 16.929688,24.3671873 16.8359375,24.4140625 Z M24.359375,23.9570312 L27.9101562,27.15625 L27.9101562,20.7929688 L24.359375,23.9570312 Z M26.8203125,18.4375 L25.6601562,17.2773438 L25.6601562,21.2851562 L27.7695312,19.421875 L26.7851562,18.4375 L26.8203125,18.4375 Z M19.6835938,12.390625 L18.5234375,13.3398438 L21.6171875,13.3398438 L20.4570312,12.390625 C20.3632808,12.2734369 20.2343758,12.2148438 20.0703125,12.2148438 C19.9062492,12.2148438 19.7773442,12.2734369 19.6835938,12.390625 Z M24.5351562,14.4648438 L15.5351562,14.4648438 L15.5351562,22.1640625 L16.5898438,23.1132812 L18.8046875,21.0390625 C19.1562518,20.7578111 19.548826,20.6171875 19.9824219,20.6171875 C20.4160178,20.6171875 20.7968734,20.7460925 21.125,21.0039062 L23.515625,23.1835938 L24.5351562,22.3046875 L24.5351562,14.4648438 Z M12.8632812,18.8945312 L12.828125,18.8945312 L12.3710938,19.3867188 L14.4101562,21.1796875 L14.4101562,17.3476562 L12.8632812,18.8945312 Z" id="" fill="#FFFFFF"></path>
                        </g>
                    </g>
                </g>
            </g>
        </g>
    </g>
</svg>