<?xml version="1.0" encoding="UTF-8"?>
<svg width="20px" height="19px" viewBox="0 0 20 19" version="1.1" xmlns="http://www.w3.org/2000/svg" xmlns:xlink="http://www.w3.org/1999/xlink">
    <!-- Generator: sketchtool 52.5 (67469) - http://www.bohemiancoding.com/sketch -->
    <title>1F92898D-472A-443C-BDCF-EB9A99662EC0</title>
    <desc>Created with sketchtool.</desc>
    <g id="Icons" stroke="none" stroke-width="1" fill="none" fill-rule="evenodd">
        <g transform="translate(-290.000000, -703.000000)" fill="#7A5ACA" fill-rule="nonzero" id="Stacked-Group">
            <g transform="translate(100.000000, 240.000000)">
                <g transform="translate(0.000000, 396.000000)" id="Stacked-Group-3">
                    <g transform="translate(0.000000, 67.000000)">
                        <g transform="translate(190.000000, 0.000000)">
                            <g id="Stacked-Group">
                                <g id="Icon-/-Foot-Nav-/-Hint---Active---Primary">
                                    <path d="M10,0 C4.48588235,0 0,4.26158824 0,9.5 C0,14.7384118 4.48588235,19 10,19 C15.5141176,19 20,14.7384118 20,9.5 C20,4.26158824 15.5141176,0 10,0 Z M10,17.8823529 C5.13411765,17.8823529 1.17647059,14.1225882 1.17647059,9.5 C1.17647059,4.87741176 5.13411765,1.11764706 10,1.11764706 C14.8658824,1.11764706 18.8235294,4.87741176 18.8235294,9.5 C18.8235294,14.1225882 14.8658824,17.8823529 10,17.8823529 Z M11.3623529,13.6565294 C11.3623529,14.2913529 10.8188235,14.8088235 10.1494118,14.8088235 C9.47764706,14.8088235 8.93411765,14.2913529 8.93411765,13.6565294 C8.93411765,13.0194706 9.47764706,12.5031176 10.1494118,12.5031176 C10.8188235,12.5031176 11.3623529,13.0183529 11.3623529,13.6565294 Z M12.5435294,4.71088235 C13.0705882,5.34235294 13.3364706,6.19511765 13.1905882,6.78411765 C12.9047059,7.93194118 12.2,8.53547059 11.5776471,9.06747059 C10.9388235,9.614 10.4788235,10.0062941 10.4788235,10.9082353 L9.30235294,10.9082353 C9.30235294,9.51005882 10.0917647,8.83388235 10.7894118,8.23705882 C11.3317647,7.77323529 11.8435294,7.33511765 12.0435294,6.52817647 C12.0835294,6.36835294 11.9976471,5.85758824 11.62,5.40494118 C11.2588235,4.97017647 10.7635294,4.75 10.1517647,4.75 C8.05882353,4.75 7.95294118,6.36388235 7.94823529,6.54829412 L6.77176471,6.51811765 C6.8,5.52005882 7.54235294,3.63235294 10.1517647,3.63235294 C11.1141176,3.63235294 11.9623529,4.01570588 12.5435294,4.71088235 Z"></path>
                                </g>
                            </g>
                        </g>
                    </g>
                </g>
            </g>
        </g>
    </g>
</svg>