<?xml version="1.0" encoding="UTF-8"?>
<svg width="24px" height="24px" viewBox="0 0 24 24" version="1.1" xmlns="http://www.w3.org/2000/svg" xmlns:xlink="http://www.w3.org/1999/xlink">
    <!-- Generator: sketchtool 52.5 (67469) - http://www.bohemiancoding.com/sketch -->
    <title>717F15ED-C063-4D59-86A1-27AF641EA0E0</title>
    <desc>Created with sketchtool.</desc>
    <g id="Icons" stroke="none" stroke-width="1" fill="none" fill-rule="evenodd">
        <g transform="translate(-910.000000, -1124.000000)" fill="#FFFFFF" fill-rule="nonzero" id="Stacked-Group">
            <g transform="translate(100.000000, 240.000000)">
                <g id="Stacked-Group-Copy-2" transform="translate(0.000000, 806.000000)">
                    <g id="Stacked-Group" transform="translate(0.000000, 70.000000)">
                        <path d="M823.367438,23.5368594 C823.367438,23.5368594 823.426031,23.5580938 823.426031,23.5969063 C823.444359,23.6986719 823.4055,24.0780781 823.367438,24.1762344 C822.423375,25.4382031 821.261719,25.9999531 820.840594,25.9999531 C820.419469,25.9999531 820.240781,25.4601406 820.521281,24.1161406 C820.821563,22.575125 821.222203,20.7103906 821.462438,19.5092188 C821.521031,19.2279688 821.482172,19.0683125 821.383313,19.0683125 C821.162156,19.0683125 820.781297,19.2895156 820.300078,19.670375 C820.300078,19.670375 820.240734,19.6498906 820.240734,19.608875 C820.199766,19.4894844 820.278844,19.1503906 820.319859,19.0873906 C821.121141,18.2670781 822.34425,17.4460156 822.843047,17.4460156 C823.103766,17.4460156 823.163109,17.9257344 822.963141,18.8500625 C822.763922,19.9303906 822.06375,22.9545781 821.942156,23.8949844 C821.901844,24.2568125 821.963391,24.4172188 822.144281,24.4172188 C822.404297,24.4172188 822.783703,24.1579531 823.367438,23.5368594 Z M823.185047,14 C823.464844,14 823.626,14.0805781 823.666219,14.14025 C823.746047,14.2596406 823.784156,14.5017031 823.766578,14.6807656 C823.725563,15.061625 823.508063,15.3828125 823.264875,15.5420937 C823.12425,15.623 822.462844,15.6823437 822.363984,15.6035937 C822.163313,15.48275 822.063703,15.2824531 822.042469,14.921 C822.063703,14.7613437 822.144234,14.4614375 822.223359,14.3610781 C822.423328,14.1600312 822.843,14 823.185047,14 Z M822,8 C828.627703,8 834,13.3722969 834,20 C834,26.6277031 828.627703,32 822,32 C815.372297,32 810,26.6277031 810,20 C810,13.3722969 815.372297,8 822,8 Z M822,30.125 C827.592047,30.125 832.125,25.5920469 832.125,20 C832.125,14.4079531 827.592047,9.875 822,9.875 C816.407953,9.875 811.875,14.4079531 811.875,20 C811.875,25.5920469 816.407953,30.125 822,30.125 Z" id="Icon-/-General-/-Info---N0"></path>
                    </g>
                </g>
            </g>
        </g>
    </g>
</svg>