<?xml version="1.0" encoding="UTF-8"?>
<svg width="18px" height="18px" viewBox="0 0 18 18" version="1.1" xmlns="http://www.w3.org/2000/svg" xmlns:xlink="http://www.w3.org/1999/xlink">
    <!-- Generator: sketchtool 52.4 (67378) - http://www.bohemiancoding.com/sketch -->
    <title>C2499DA4-5F41-42C8-884C-6D07FC7BD08C</title>
    <desc>Created with sketchtool.</desc>
    <g id="Symbols" stroke="none" stroke-width="1" fill="none" fill-rule="evenodd">
        <g id="help-video" transform="translate(-1.000000, -43.000000)" fill="#5594F4" fill-rule="nonzero">
            <g id="icon-info-alt">
                <g transform="translate(1.000000, 43.000000)">
                    <path d="M9,0 C4.02975,0 0,4.02975 0,9 C0,13.97025 4.02975,18 9,18 C13.97025,18 18,13.97025 18,9 C18,4.02975 13.97025,0 9,0 Z M9,16.875 C4.6575,16.875 1.125,13.3425 1.125,9 C1.125,4.6575 4.6575,1.125 9,1.125 C13.3425,1.125 16.875,4.6575 16.875,9 C16.875,13.3425 13.3425,16.875 9,16.875 Z M9,6.75 C8.379,6.75 7.875,7.254 7.875,7.875 L7.875,13.5 C7.875,14.121 8.379,14.625 9,14.625 C9.621,14.625 10.125,14.121 10.125,13.5 L10.125,7.875 C10.125,7.254 9.621,6.75 9,6.75 Z M7.875,4.518 C7.87499999,4.9199238 8.08942377,5.29131671 8.43749999,5.49227861 C8.78557621,5.69324051 9.21442379,5.69324051 9.56250001,5.49227861 C9.91057623,5.29131671 10.125,4.9199238 10.125,4.518 C10.125,4.1160762 9.91057623,3.74468329 9.56250001,3.54372139 C9.21442379,3.34275949 8.78557621,3.34275949 8.43749999,3.54372139 C8.08942377,3.74468329 7.87499999,4.1160762 7.875,4.518 Z" id="Shape"></path>
                </g>
            </g>
        </g>
    </g>
</svg>