<?xml version="1.0" encoding="UTF-8"?>
<svg width="40px" height="40px" viewBox="0 0 40 40" version="1.1" xmlns="http://www.w3.org/2000/svg" xmlns:xlink="http://www.w3.org/1999/xlink">
    <!-- Generator: sketchtool 53.2 (72643) - https://sketchapp.com -->
    <title>6F3D67F3-ECFC-470A-846E-5823D4A8A05D</title>
    <desc>Created with sketchtool.</desc>
    <g id="Dashboard" stroke="none" stroke-width="1" fill="none" fill-rule="evenodd">
        <g id="9.Order-Detail---delivered" transform="translate(-360.000000, -815.000000)">
            <g id="left" transform="translate(310.000000, 270.000000)">
                <g id="acts" transform="translate(50.000000, 545.000000)">
                    <g id="order-copy">
                        <g id="icon-order-processed">
                            <circle id="Oval-3" fill="#85808E" cx="20" cy="20" r="20"></circle>
                            <path d="M29.6623766,16.5017806 L20.3766841,10.1263437 C20.1318314,9.95788544 19.807253,9.95788544 19.5624003,10.1263437 L10.2767077,16.5017806 C9.9763272,16.7327089 9.91089055,17.1564729 10.1278201,17.4659683 C10.3447497,17.7754637 10.768067,17.8622914 11.0909915,17.6635268 L12.8267018,16.4734453 L12.8267018,26.2916181 C12.8267018,26.6828466 13.1464976,27 13.5409858,27 L26.3980985,27 C26.7925867,27 27.1123826,26.6828466 27.1123826,26.2916181 L27.1123826,16.4734453 L28.8480928,17.6635268 C29.0567856,17.823967 29.3377048,17.8571369 29.5785477,17.7497764 C29.8193906,17.6424159 29.9808636,17.4120409 29.9984148,17.1507481 C30.0159661,16.8894552 29.8867321,16.6398746 29.6623766,16.5017806 Z M25.6838145,15.4958783 L25.6838145,25.5832362 L14.2552698,25.5832362 L14.2552698,15.4958783 L19.9695422,11.5714427 L25.6838145,15.4958783 Z" id="Shape" fill="#FFFFFF" fill-rule="nonzero"></path>
                        </g>
                    </g>
                </g>
            </g>
        </g>
    </g>
</svg>