<?xml version="1.0" encoding="UTF-8"?>
<svg width="40px" height="40px" viewBox="0 0 40 40" version="1.1" xmlns="http://www.w3.org/2000/svg" xmlns:xlink="http://www.w3.org/1999/xlink">
    <!-- Generator: sketchtool 53.2 (72643) - https://sketchapp.com -->
    <title>2B22E688-D0BC-46B2-B944-DE41ECB6DA28</title>
    <desc>Created with sketchtool.</desc>
    <g id="Dashboard" stroke="none" stroke-width="1" fill="none" fill-rule="evenodd">
        <g id="9.Order-Detail---delivered" transform="translate(-360.000000, -1165.000000)">
            <g id="left" transform="translate(310.000000, 270.000000)">
                <g id="acts" transform="translate(50.000000, 545.000000)">
                    <g id="order" transform="translate(0.000000, 350.000000)">
                        <g id="icon-order-dibuat">
                            <circle id="Oval-3" fill="#5594F4" cx="20" cy="20" r="20"></circle>
                            <path d="M26.1875,13.9023438 C26.492189,13.9023438 26.7558583,14.0136708 26.9785156,14.2363281 C27.201173,14.4589855 27.3125,14.7226547 27.3125,15.0273438 L27.3125,27.9648438 C27.3125,28.2929704 27.201173,28.5624989 26.9785156,28.7734375 C26.7558583,28.9843761 26.492189,29.0898438 26.1875,29.0898438 L13.8125,29.0898438 C13.507811,29.0898438 13.2441417,28.9843761 13.0214844,28.7734375 C12.798827,28.5624989 12.6875,28.2929704 12.6875,27.9648438 L12.6875,15.0273438 C12.6875,14.7226547 12.798827,14.4589855 13.0214844,14.2363281 C13.2441417,14.0136708 13.507811,13.9023438 13.8125,13.9023438 L17.2226562,13.9023438 L17.2226562,12.8476562 C17.2226562,12.3789039 17.3867171,11.9804704 17.7148438,11.6523438 C18.0429704,11.3242171 18.4414039,11.1601562 18.9101562,11.1601562 L21.125,11.1601562 C21.5937523,11.1601562 21.9921859,11.3242171 22.3203125,11.6523438 C22.6484391,11.9804704 22.8125,12.3789039 22.8125,12.8476562 L22.8125,13.9023438 L26.1875,13.9023438 Z M18.3476562,12.8476562 L18.3476562,13.9023438 L21.6875,13.9023438 L21.6875,12.8476562 C21.6875,12.6835929 21.6347662,12.5488287 21.5292969,12.4433594 C21.4238276,12.3378901 21.2890633,12.2851562 21.125,12.2851562 L18.9101562,12.2851562 C18.7460929,12.2851562 18.6113287,12.3378901 18.5058594,12.4433594 C18.4003901,12.5488287 18.3476562,12.6835929 18.3476562,12.8476562 Z M26.1875,27.9648438 L26.1875,15.0273438 L22.8125,15.0273438 L22.8125,16.328125 C22.7890624,16.4218755 22.7304692,16.5156245 22.6367188,16.609375 C22.5429683,16.7031255 22.4140633,16.75 22.25,16.75 C21.8515605,16.75 21.6640624,16.5625019 21.6875,16.1875 L21.6875,15.0273438 L18.3476562,15.0273438 L18.3476562,16.328125 C18.3476562,16.4218755 18.2949224,16.5156245 18.1894531,16.609375 C18.0839838,16.7031255 17.9375009,16.75 17.75,16.75 C17.3749981,16.75 17.1992186,16.5625019 17.2226562,16.1875 L17.2226562,15.0273438 L13.8125,15.0273438 L13.8125,27.9648438 L26.1875,27.9648438 Z" id="î" fill="#FFFFFF"></path>
                        </g>
                    </g>
                </g>
            </g>
        </g>
    </g>
</svg>