<?xml version="1.0" encoding="UTF-8"?>
<svg width="16px" height="16px" viewBox="0 0 16 16" version="1.1" xmlns="http://www.w3.org/2000/svg" xmlns:xlink="http://www.w3.org/1999/xlink">
    <!-- Generator: sketchtool 52.5 (67469) - http://www.bohemiancoding.com/sketch -->
    <title>AD29EFDB-010B-4307-A021-6276B9CA75AA</title>
    <desc>Created with sketchtool.</desc>
    <g id="Icons" stroke="none" stroke-width="1" fill="none" fill-rule="evenodd">
        <g transform="translate(-674.000000, -1128.000000)" fill="#B9C0C8" id="Stacked-Group">
            <g transform="translate(100.000000, 240.000000)">
                <g id="Stacked-Group-Copy-2" transform="translate(0.000000, 806.000000)">
                    <g id="Stacked-Group" transform="translate(0.000000, 70.000000)">
                        <path d="M590,27.328 L589.328,28 L584.336,23.008 C584.058665,23.2426678 583.765335,23.455999 583.456,23.648 C583.146665,23.840001 582.821335,23.9999994 582.48,24.128 C582.138665,24.2560006 581.781335,24.357333 581.408,24.432 C581.034665,24.506667 580.656002,24.544 580.272,24.544 C579.397329,24.544 578.581337,24.3786683 577.824,24.048 C577.066663,23.7173317 576.405336,23.2693362 575.84,22.704 C575.274664,22.1386638 574.826668,21.4720038 574.496,20.704 C574.165332,19.9359962 574,19.1253376 574,18.272 C574,17.8453312 574.037333,17.4346686 574.112,17.04 C574.186667,16.6453314 574.303999,16.2560019 574.464,15.872 C574.624001,15.4879981 574.815999,15.125335 575.04,14.784 C575.264001,14.442665 575.525332,14.1226682 575.824,13.824 C576.122668,13.5466653 576.442665,13.2906678 576.784,13.056 C577.125335,12.8213322 577.482665,12.6293341 577.856,12.48 C578.229335,12.3306659 578.618665,12.2133338 579.024,12.128 C579.429335,12.0426662 579.845331,12 580.272,12 C581.125338,12 581.935996,12.1653317 582.704,12.496 C583.472004,12.8266683 584.138664,13.2746638 584.704,13.84 C585.269336,14.4053362 585.717332,15.0666629 586.048,15.824 C586.378668,16.5813371 586.544,17.397329 586.544,18.272 C586.544,18.6560019 586.506667,19.0346648 586.432,19.408 C586.357333,19.7813352 586.256001,20.138665 586.128,20.48 C585.999999,20.821335 585.840001,21.1466651 585.648,21.456 C585.455999,21.7653349 585.242668,22.0586653 585.008,22.336 L590,27.328 Z M580.272,23.584 C580.997337,23.584 581.679997,23.4400014 582.32,23.152 C582.960003,22.8639986 583.519998,22.4800024 584,22 C584.480002,21.5199976 584.858665,20.9600032 585.136,20.32 C585.413335,19.6799968 585.552,18.997337 585.552,18.272 C585.552,17.546663 585.413335,16.8586699 585.136,16.208 C584.858665,15.5573301 584.480002,14.9920024 584,14.512 C583.519998,14.0319976 582.960003,13.6533347 582.32,13.376 C581.679997,13.0986653 580.997337,12.96 580.272,12.96 C579.909332,12.96 579.557335,12.997333 579.216,13.072 C578.874665,13.146667 578.544002,13.2479994 578.224,13.376 C577.903998,13.5040006 577.600001,13.663999 577.312,13.856 C577.023999,14.048001 576.762668,14.2719987 576.528,14.528 C576.271999,14.7840013 576.048001,15.0559986 575.856,15.344 C575.663999,15.6320014 575.498667,15.9306651 575.36,16.24 C575.221333,16.5493349 575.12,16.874665 575.056,17.216 C574.992,17.557335 574.96,17.9093315 574.96,18.272 C574.96,18.997337 575.098665,19.6853301 575.376,20.336 C575.653335,20.9866699 576.031998,21.5466643 576.512,22.016 C576.992002,22.4853357 577.55733,22.8639986 578.208,23.152 C578.85867,23.4400014 579.546663,23.584 580.272,23.584 Z" id="Icon-/-General-/-Search---N20"></path>
                    </g>
                </g>
            </g>
        </g>
    </g>
</svg>