<?xml version="1.0" encoding="UTF-8"?>
<svg width="20px" height="20px" viewBox="0 0 20 20" version="1.1" xmlns="http://www.w3.org/2000/svg" xmlns:xlink="http://www.w3.org/1999/xlink">
    <!-- Generator: sketchtool 52.5 (67469) - http://www.bohemiancoding.com/sketch -->
    <title>66EE6845-687D-4A28-9C1B-EB5E7D5C3221</title>
    <desc>Created with sketchtool.</desc>
    <g id="Icons" stroke="none" stroke-width="1" fill="none" fill-rule="evenodd">
        <g transform="translate(-360.000000, -703.000000)" fill="#7A5ACA" fill-rule="nonzero" id="Stacked-Group">
            <g transform="translate(100.000000, 240.000000)">
                <g transform="translate(0.000000, 396.000000)" id="Stacked-Group-3">
                    <g transform="translate(0.000000, 67.000000)">
                        <g transform="translate(190.000000, 0.000000)">
                            <g id="Stacked-Group">
                                <g id="Icon-/-Foot-Nav-/-Setting---Active---Primary" transform="translate(70.000000, 0.000000)">
                                    <path d="M10,7.05882353 C8.37882353,7.05882353 7.05882353,8.37882353 7.05882353,10 C7.05882353,11.6211765 8.37882353,12.9411765 10,12.9411765 C11.6211765,12.9411765 12.9411765,11.6211765 12.9411765,10 C12.9411765,8.37882353 11.6211765,7.05882353 10,7.05882353 Z M10,11.7647059 C9.02705882,11.7647059 8.23529412,10.9729412 8.23529412,10 C8.23529412,9.02705882 9.02705882,8.23529412 10,8.23529412 C10.9729412,8.23529412 11.7647059,9.02705882 11.7647059,10 C11.7647059,10.9729412 10.9729412,11.7647059 10,11.7647059 Z M19.9294118,11.1458824 C19.9729412,10.7682353 20,10.3870588 20,10 C20,9.61294118 19.9729412,9.23176471 19.9294118,8.85411765 L16.8847059,7.93882353 C16.7447059,7.46588235 16.5576471,7.01294118 16.3270588,6.58705882 L17.8317647,3.79058824 C17.3541176,3.19058824 16.8094118,2.64588235 16.2082353,2.16705882 L13.4117647,3.67294118 C12.9847059,3.44235294 12.5317647,3.25647059 12.0588235,3.11529412 L11.1458824,0.0705882353 C10.7694118,0.0270588235 10.3882353,0 10,0 C9.61176471,0 9.23058824,0.0270588235 8.85411765,0.0705882353 L7.94117647,3.11529412 C7.46705882,3.25529412 7.01294118,3.44235294 6.58823529,3.67411765 L3.79176471,2.16823529 C3.19058824,2.64588235 2.64588235,3.19058824 2.16941176,3.79176471 L3.67411765,6.58588235 C3.44352941,7.01176471 3.25764706,7.46588235 3.11647059,7.93882353 L0.0705882353,8.85411765 C0.0270588235,9.23058824 0,9.61176471 0,10 C0,10.3882353 0.0270588235,10.7694118 0.0705882353,11.1458824 L3.11529412,12.0588235 C3.25647059,12.5329412 3.44235294,12.9870588 3.67294118,13.4129412 L2.16823529,16.2082353 C2.64588235,16.8094118 3.19058824,17.3541176 3.79176471,17.8317647 L6.58823529,16.3270588 C7.01411765,16.5576471 7.46823529,16.7435294 7.94117647,16.8847059 L8.85411765,19.9294118 C9.23176471,19.9729412 9.61294118,20 10,20 C10.3870588,20 10.7694118,19.9729412 11.1458824,19.9294118 L12.0588235,16.8847059 C12.5317647,16.7435294 12.9858824,16.5576471 13.4117647,16.3270588 L16.2070588,17.8317647 C16.8082353,17.3529412 17.3529412,16.8082353 17.8305882,16.2070588 L16.3270588,13.4117647 C16.5576471,12.9858824 16.7435294,12.5317647 16.8847059,12.0588235 L19.9294118,11.1458824 Z M15.9388235,11.1141176 L15.7576471,11.7235294 C15.64,12.12 15.4835294,12.5 15.2917647,12.8517647 L14.9905882,13.4105882 L15.2905882,13.9694118 L16.4105882,16.0517647 C16.2941176,16.1752941 16.1741176,16.2952941 16.0505882,16.4117647 L13.4117647,14.9894118 L12.8529412,15.2905882 C12.4988235,15.4823529 12.1188235,15.6376471 11.7235294,15.7564706 L11.1141176,15.9376471 L10.9317647,16.5470588 L10.2505882,18.82 C10.1658824,18.8223529 10.0823529,18.8235294 10,18.8235294 C9.91764706,18.8235294 9.83411765,18.8223529 9.74941176,18.82 L9.06823529,16.5470588 L8.88588235,15.9376471 L8.27647059,15.7564706 C7.88117647,15.6388235 7.50117647,15.4823529 7.14823529,15.2905882 L6.58941176,14.9894118 L3.94823529,16.4094118 C3.82588235,16.2929412 3.70470588,16.1729412 3.58823529,16.0494118 L5.00941176,13.4094118 L4.70823529,12.8505882 C4.51764706,12.4976471 4.36117647,12.1176471 4.24235294,11.7211765 L4.06235294,11.1129412 L1.18117647,10.2494118 C1.17764706,10.1647059 1.17647059,10.0811765 1.17647059,10 C1.17647059,9.91764706 1.17764706,9.83411765 1.18117647,9.74941176 L4.06117647,8.88588235 L4.24235294,8.27647059 C4.36,7.88 4.51647059,7.5 4.70823529,7.14823529 L5.00941176,6.58941176 L3.58823529,3.94823529 C3.70470588,3.82588235 3.82470588,3.70470588 3.94705882,3.58823529 L6.59058824,5.01176471 L7.15058824,4.70705882 C7.5,4.51647059 7.87882353,4.36 8.27529412,4.24235294 L8.88470588,4.06117647 L9.06705882,3.45176471 L9.74823529,1.17882353 C9.83411765,1.17764706 9.91764706,1.17647059 10,1.17647059 C10.0823529,1.17647059 10.1658824,1.17764706 10.2505882,1.18 L10.9317647,3.45294118 L11.1141176,4.06235294 L11.7235294,4.24352941 C12.1176471,4.36117647 12.4988235,4.51764706 12.8529412,4.70941176 L13.4117647,5.00941176 L16.0517647,3.58823529 C16.1741176,3.70470588 16.2952941,3.82470588 16.4117647,3.94823529 L15.2905882,6.03058824 L14.9905882,6.58941176 L15.2929412,7.14823529 C15.4847059,7.50117647 15.64,7.88 15.7576471,8.27411765 L15.9388235,8.88352941 L16.5482353,9.06588235 L18.8211765,9.74941176 C18.8223529,9.83411765 18.8235294,9.91764706 18.8235294,10 C18.8235294,10.0823529 18.8223529,10.1658824 18.8188235,10.2505882 L15.9388235,11.1141176 Z"></path>
                                </g>
                            </g>
                        </g>
                    </g>
                </g>
            </g>
        </g>
    </g>
</svg>