<?xml version="1.0" encoding="UTF-8"?>
<svg width="49px" height="53px" viewBox="0 0 49 53" version="1.1" xmlns="http://www.w3.org/2000/svg" xmlns:xlink="http://www.w3.org/1999/xlink">
    <!-- Generator: sketchtool 52.5 (67469) - http://www.bohemiancoding.com/sketch -->
    <title>A79CCAA3-E851-4B75-8EFF-3EE561E1BFB7</title>
    <desc>Created with sketchtool.</desc>
    <g id="Icons" stroke="none" stroke-width="1" fill="none" fill-rule="evenodd">
        <g transform="translate(-406.000000, -2188.000000)" fill="#352E47" id="Stacked-Group">
            <g transform="translate(100.000000, 240.000000)">
                <g id="Stacked-Group-2-Copy-12" transform="translate(0.000000, 1896.000000)">
                    <g id="Stacked-Group" transform="translate(0.000000, 52.000000)">
                        <g id="Icon-/-Shipping-Tab-/-Store-Pickup-Only---Active----B80" transform="translate(306.000000, 0.000000)">
                            <path d="M9.41032318,0.000651541996 C9.28036572,0.0289685905 9.16374975,0.100872171 9.07949047,0.204637792 L1.13950548,9.34693063 C0.980535702,9.53271324 0.951314181,9.79806233 1.0659871,10.014522 L1.0659871,15.6890486 L1.0659871,15.726137 C1.0659224,15.7279172 1.08451373,15.7243568 1.08433728,15.726137 C1.04510788,16.7689681 1.64747631,17.6950212 2.55470488,18.266693 C3.16046692,18.648401 3.90751364,18.9145771 4.74187667,19.0455496 C4.74178125,19.0517207 4.74178125,19.057893 4.74187667,19.0640641 L5.03595019,42.3556266 L3.34502746,42.3556266 C3.32666775,42.3547579 3.30827778,42.3547579 3.28991808,42.3556266 C2.98681322,42.3844492 2.75559708,42.6418693 2.75690983,42.9490411 L2.75690983,45.4895675 L2.00334644,45.4895675 C1.98498673,45.4886988 1.96659676,45.4886988 1.94823706,45.4895675 C1.6451322,45.5183901 1.41391606,45.7758102 1.41522881,46.082982 L1.41522881,48.6235677 L0.588147037,48.6235677 C0.263335837,48.6236005 3.24437773e-05,48.889262 0,49.2169823 L0,52.4065855 C3.24437775e-05,52.7343057 0.263335837,52.9999673 0.588147037,53 L48.411853,53 C48.7366642,52.9999673 48.9999676,52.7343057 49,52.4065855 L49,49.2169823 C48.9999676,48.889262 48.7366642,48.6236005 48.411853,48.6235677 L47.6950488,48.6235677 L47.6950488,46.082982 C47.6950163,45.7552618 47.4317129,45.4896003 47.1069017,45.4895675 L46.3533383,45.4895675 L46.3533383,42.9490411 C46.3533059,42.6213209 46.0900025,42.3556594 45.7651913,42.3556266 L44.0742686,42.3556266 L44.2213053,19.2865946 C44.2197969,19.189191 44.194548,19.0936596 44.1477869,19.0084315 C44.9019797,18.8643089 45.5930818,18.6010999 46.187922,18.2481191 C47.1621464,17.6700088 47.8924544,16.7794122 47.9523631,15.6890189 C47.9524585,15.6828478 47.9524585,15.6766755 47.9523631,15.6705044 L47.9523631,10.0516104 C48.0942023,9.8218316 48.0639602,9.52433108 47.8788447,9.32838643 L39.2771943,0.186093587 C39.1671582,0.0688259846 39.0145109,0.00186321657 38.8544636,0.000651541996 L9.52063016,0.000651541996 C9.50227045,-0.000217180665 9.48388048,-0.000217180665 9.46552078,0.000651541996 C9.44716108,-0.000217180665 9.42877111,-0.000217180665 9.4104114,0.000651541996 L9.41032318,0.000651541996 Z M9.77791508,1.18748063 L15.2366548,1.18748063 L10.4212009,9.14294438 L2.8671874,9.14294438 L9.77791508,1.18748063 Z M16.6151244,1.18748063 L21.7246518,1.18748063 L19.4823412,9.14294438 L11.7996705,9.14294438 L16.6151244,1.18748063 Z M22.9560846,1.18748063 L26.0806158,1.18748063 L28.3229263,9.14294438 L20.713774,9.14294438 L22.9560846,1.18748063 Z M27.293669,1.18748063 L32.421576,1.18748063 L37.2186503,9.14294438 L29.5359796,9.14294438 L27.293669,1.18748063 Z M33.781666,1.18748063 L38.5787403,1.18748063 L46.077615,9.14294438 L38.5971199,9.14294438 L33.781666,1.18748063 Z M2.24228117,10.3297735 L10.0719886,10.3297735 C10.0704556,10.3544749 10.0704556,10.3792489 10.0719886,10.4039503 L10.0719886,15.7817696 C10.0719886,15.9207473 10.0867511,16.0567638 10.1087478,16.1897421 C9.94347847,16.5532441 9.61882131,16.887746 9.13462926,17.1911292 C8.39681056,17.6534288 7.31915463,17.9514415 6.1019961,17.9514415 C4.87488612,17.9514415 3.8485519,17.6682641 3.17964051,17.2467618 C2.51072912,16.8252594 2.21042713,16.3476319 2.24228117,15.7632254 C2.24266413,15.7508656 2.24266413,15.7384968 2.24228117,15.726137 L2.24228117,10.3297735 Z M11.413699,10.3297735 L19.1147493,10.3297735 L19.1147493,15.3552529 C19.1147493,15.5944168 19.1458623,15.8365299 19.2066473,16.0599327 C19.1111969,16.5251994 18.7741357,16.9591812 18.1773899,17.3394828 C17.4673024,17.7920148 16.4282583,18.0997952 15.2550344,18.0997952 C14.0818163,18.0997952 13.0319385,17.7930236 12.3142992,17.3394828 C11.7760682,16.9993257 11.4534225,16.6184782 11.3218011,16.2082863 C11.3705584,16.0126019 11.413699,15.8055121 11.413699,15.5963276 L11.413699,10.3297735 Z M20.4197005,10.3297735 L28.3045467,10.3297735 L28.3045467,15.3552529 C28.3045467,15.9573728 27.929703,16.5357206 27.2201506,17.0056871 C26.5105983,17.4756536 25.4855168,17.8030879 24.3161746,17.8030879 C23.1468383,17.8030879 22.0925024,17.4766743 21.3754395,17.0056871 C20.889183,16.6862995 20.5604382,16.3218303 20.4013209,15.9301232 C20.4042617,15.8802171 20.4196711,15.8324116 20.4196711,15.7817696 L20.4196711,10.3297735 L20.4197005,10.3297735 Z M29.5911184,10.3297735 L37.5862422,10.3297735 L37.5862422,15.3181645 C37.5862422,15.9202844 37.229778,16.4986322 36.5202257,16.9685987 C35.8106733,17.4385652 34.7855918,17.7659995 33.6162497,17.7659995 C32.4469134,17.7659995 31.3925775,17.4395859 30.6755145,16.9685987 C29.9584515,16.4976115 29.5911184,15.9169969 29.5911184,15.3181645 L29.5911184,10.3297735 Z M38.7809158,10.3297735 L46.7760396,10.3297735 L46.7760396,15.633416 C46.7435151,16.2256437 46.3513916,16.7821894 45.5997455,17.2282176 C44.8480995,17.6742457 43.7747606,17.9514415 42.6406308,17.9514415 C41.5173523,17.9514415 40.5174611,17.6407238 39.8285527,17.172585 C39.1396444,16.7044461 38.7809158,16.1291307 38.7809158,15.5221507 L38.7809158,10.3297735 Z M28.9662122,16.9685987 C29.2434411,17.3575107 29.610045,17.6926831 30.0322287,17.9699857 C30.9798629,18.5924183 32.2415559,18.9528286 33.6162497,18.9528286 C34.9909434,18.9528286 36.2406088,18.5934389 37.1818911,17.9699857 C37.5424134,17.7311957 37.8662707,17.4583912 38.1192504,17.1354965 C38.3888217,17.5332386 38.7466563,17.8698648 39.1668873,18.1554278 C40.0870375,18.7807087 41.3049018,19.1382706 42.6406308,19.1382706 C42.7842621,19.1382706 42.9217827,19.1269958 43.0633614,19.1197561 C43.0510712,19.1682292 43.0449055,19.2180758 43.0450113,19.2681097 L42.8979745,42.3000236 L40.9129782,42.3000236 L40.9129782,23.5147326 C40.9129458,23.1870123 40.6496424,22.9213508 40.3248312,22.921318 L31.851838,22.921318 C31.8334783,22.9204493 31.8150883,22.9204493 31.7967286,22.921318 C31.4936237,22.9501406 31.2624076,23.2075607 31.2637203,23.5147326 L31.2637203,42.3000236 L6.21233248,42.3000236 L5.91825896,19.1197561 C5.9813789,19.1209429 6.03819391,19.1382706 6.10205491,19.1382706 C7.51347841,19.1382706 8.79171601,18.7989621 9.7595943,18.1925162 C10.1074245,17.9745728 10.4222596,17.7225972 10.678574,17.4322038 C10.9509508,17.7844606 11.2867475,18.0863662 11.6894518,18.3408698 C12.6365038,18.9393937 13.8842812,19.2866243 15.2550932,19.2866243 C16.6259051,19.2866243 17.8799875,18.9403966 18.8207346,18.3408698 C19.2636328,18.0586122 19.6450462,17.7215705 19.9235103,17.3209386 C20.1563459,17.5786229 20.4302872,17.8087609 20.7322125,18.0070742 C21.6798467,18.6295067 22.9415397,18.989917 24.3162335,18.989917 C25.6909331,18.989917 26.9405926,18.6305273 27.8818749,18.0070742 C28.3143276,17.7206389 28.6898007,17.3730701 28.966271,16.9685987 L28.9662122,16.9685987 Z M9.13462926,23.4405261 C8.85344676,23.4946583 8.65171561,23.7451664 8.65675979,24.0339406 L8.65675979,38.4242552 C8.65679227,38.7519755 8.92009564,39.017637 9.24490683,39.0176698 L28.4332039,39.0176698 C28.7580151,39.017637 29.0213185,38.7519755 29.0213509,38.4242552 L29.0213509,24.0339406 C29.0213185,23.7062204 28.7580151,23.4405589 28.4332039,23.4405261 L9.24490683,23.4405261 C9.22654712,23.4396574 9.20815715,23.4396574 9.18979745,23.4405261 C9.17143775,23.4396574 9.15304778,23.4396574 9.13468807,23.4405261 L9.13462926,23.4405261 Z M32.4399556,24.1081175 L39.7366548,24.1081175 L39.7366548,42.2999643 L32.4399556,42.2999643 L32.4399556,24.1081175 Z M9.83305386,24.6273552 L27.8450569,24.6273552 L27.8450569,37.8308407 L9.83305386,37.8308407 L9.83305386,24.6273552 Z M15.8799406,26.88976 C15.7718871,26.9046769 15.6700715,26.9496099 15.5858671,27.0195398 L12.1121236,29.9866125 C11.8635358,30.2017168 11.8347906,30.579397 12.0479125,30.8302743 C12.2610344,31.0811517 12.6353537,31.1102652 12.8840666,30.8953082 L16.3394305,27.9282355 C16.5365574,27.7571958 16.5990068,27.4758695 16.4930203,27.2363335 C16.3870337,26.9967974 16.1377565,26.8558812 15.8799406,26.88976 Z M18.085492,28.2805457 C17.9754838,28.3007883 17.8734737,28.3522502 17.7914185,28.4288993 L13.0127238,32.5828011 C12.8340157,32.7156135 12.7446214,32.9386126 12.7815685,33.1594308 C12.8185156,33.380249 12.9755121,33.5612805 13.1875289,33.6275408 C13.3995457,33.6938011 13.6304759,33.634006 13.7846668,33.4729229 L18.5633614,29.337595 C18.7876895,29.1711514 18.8656087,28.8688059 18.7500513,28.6131925 C18.6344939,28.3575791 18.3571253,28.2187415 18.085492,28.2805457 Z M3.9332039,43.5424557 L45.1770149,43.5424557 L45.1770149,45.4895675 L3.9332039,45.4895675 L3.9332039,43.5424557 Z M2.59149347,46.6763966 L3.06936294,46.6763966 C3.15543999,46.7172046 3.25004076,46.7363451 3.34505686,46.7321775 L45.7651619,46.7321775 C45.8540081,46.7334317 45.9419815,46.7143607 46.0224762,46.6763966 L46.5187253,46.6763966 L46.5187253,48.6235677 L2.59149347,48.6235677 L2.59149347,46.6763966 Z M1.17626467,49.8103968 L1.72765251,49.8103968 C1.81372956,49.8512049 1.90833034,49.8703454 2.00334644,49.8661778 L47.1068723,49.8661778 C47.1895171,49.8647291 47.2709313,49.8457224 47.3458071,49.8103968 L47.8236765,49.8103968 L47.8236765,51.8131709 L1.17626467,51.8131709 L1.17626467,49.8103968 Z"></path>
                        </g>
                    </g>
                </g>
            </g>
        </g>
    </g>
</svg>