<?xml version="1.0" encoding="UTF-8"?>
<svg width="31px" height="26px" viewBox="0 0 31 26" version="1.1" xmlns="http://www.w3.org/2000/svg" xmlns:xlink="http://www.w3.org/1999/xlink">
    <!-- Generator: sketchtool 52.5 (67469) - http://www.bohemiancoding.com/sketch -->
    <title>8A4DC4F0-A670-43CE-B4B4-01574EF4FB87</title>
    <desc>Created with sketchtool.</desc>
    <g id="Icons" stroke="none" stroke-width="1" fill="none" fill-rule="evenodd">
        <g transform="translate(-455.000000, -2982.000000)" fill="#B9C0C8" fill-rule="nonzero" id="Stacked-Group">
            <g transform="translate(100.000000, 240.000000)">
                <g id="Stacked-Group-2-Copy-11" transform="translate(0.000000, 2685.000000)">
                    <g id="Stacked-Group" transform="translate(0.000000, 52.000000)">
                        <g id="Icon-/-Analytic-/-Visitor" transform="translate(355.000000, 5.000000)">
                            <path d="M23.0851064,25 C23.0851064,25.5522847 22.6421541,26 22.0957447,26 C21.5493353,26 21.106383,25.5522847 21.106383,25 L21.106383,22.3333333 C21.106383,19.9400994 19.1869229,18 16.8191489,18 L6.26595745,18 C3.89818347,18 1.9787234,19.9400994 1.9787234,22.3333333 L1.9787234,25 C1.9787234,25.5522847 1.53577108,26 0.989361702,26 C0.442952322,26 1.77635684e-15,25.5522847 1.77635684e-15,25 L1.77635684e-15,22.3333333 C2.10588048e-15,18.8355299 2.80536471,16 6.26595745,16 L16.8191489,16 C20.2797417,16 23.0851064,18.8355299 23.0851064,22.3333333 L23.0851064,25 Z M11.5425532,12.6666667 C8.08196045,12.6666667 5.27659574,9.83113675 5.27659574,6.33333333 C5.27659574,2.83552992 8.08196045,1.50102153e-13 11.5425532,1.50102153e-13 C15.0031459,1.50102153e-13 17.8085106,2.83552992 17.8085106,6.33333333 C17.8085106,9.83113675 15.0031459,12.6666667 11.5425532,12.6666667 Z M11.5425532,10.6666667 C13.9103272,10.6666667 15.8297872,8.72656725 15.8297872,6.33333333 C15.8297872,3.94009942 13.9103272,2 11.5425532,2 C9.17477921,2 7.25531915,3.94009942 7.25531915,6.33333333 C7.25531915,8.72656725 9.17477921,10.6666667 11.5425532,10.6666667 Z M31,25 C31,25.5522847 30.5570477,26 30.0106383,26 C29.4642289,26 29.0212766,25.5522847 29.0212766,25 L29.0212769,22.3340792 C29.0198195,20.3592901 27.6975921,18.6352761 25.8058513,18.1415792 C25.2767927,18.0035082 24.9586439,17.4580811 25.0952461,16.9233336 C25.2318483,16.3885862 25.771473,16.0670164 26.3005316,16.2050874 C29.0653835,16.9266444 30.9978698,19.4463572 31,22.3333333 L31,25 Z M20.5311953,2.14208333 C20.0018612,2.00509507 19.6826207,1.46032 19.8181516,0.925294148 C19.9536825,0.390268297 20.4926621,0.0675950739 21.0219962,0.204583333 C23.794549,0.922102164 25.7337507,3.44723598 25.7337507,6.34 C25.7337507,9.23276402 23.794549,11.7578978 21.0219962,12.4754167 C20.4926621,12.6124049 19.9536825,12.2897317 19.8181516,11.7547059 C19.6826207,11.21968 20.0018612,10.6749049 20.5311953,10.5379167 C22.428205,10.0469827 23.7550273,8.31925959 23.7550273,6.34 C23.7550273,4.36074041 22.428205,2.63301727 20.5311953,2.14208333 Z"></path>
                        </g>
                    </g>
                </g>
            </g>
        </g>
    </g>
</svg>