<?xml version="1.0" encoding="UTF-8"?>
<svg width="18px" height="16px" viewBox="0 0 18 16" version="1.1" xmlns="http://www.w3.org/2000/svg" xmlns:xlink="http://www.w3.org/1999/xlink">
    <!-- Generator: sketchtool 52.5 (67469) - http://www.bohemiancoding.com/sketch -->
    <title>AE46C498-C4F9-45B3-8E4F-E58396F67C76</title>
    <desc>Created with sketchtool.</desc>
    <g id="Icons" stroke="none" stroke-width="1" fill="none" fill-rule="evenodd">
        <g transform="translate(-282.000000, -1327.000000)" fill="#FFFFFF" id="Stacked-Group">
            <g transform="translate(100.000000, 240.000000)">
                <g id="Stacked-Group-Copy-3" transform="translate(0.000000, 1016.000000)">
                    <g id="Stacked-Group" transform="translate(0.000000, 70.000000)">
                        <path d="M199.999143,5.17241379 L199.999143,15.3448276 C199.999143,15.8046 199.83509,16.1954007 199.506979,16.5172414 C199.178867,16.8390821 198.780453,17 198.311723,17 L183.68742,17 C183.21869,17 182.820275,16.8390821 182.492164,16.5172414 C182.164053,16.1954007 182,15.8046 182,15.3448276 L182,6.51724138 C182,6.05746897 182.164053,5.66666828 182.492164,5.34482759 C182.820275,5.0229869 183.21869,4.86206897 183.68742,4.86206897 L184.249893,4.86206897 L184.249893,2.65517241 C184.249893,2.1954 184.413946,1.80459931 184.742057,1.48275862 C185.070168,1.16091793 185.468582,1 185.937312,1 L186.042776,1 L198.628114,3.48275862 C199.565574,3.73563345 200.022579,4.29884621 199.999143,5.17241379 Z M185.374839,2.65517241 L185.374839,4.86206897 L197.74925,4.86206897 C197.889869,4.86206897 198.00119,4.83908069 198.083218,4.79310345 C198.165246,4.74712621 198.223836,4.70114966 198.258991,4.65517241 C198.294146,4.60919517 198.300005,4.57471276 198.276568,4.55172414 L185.867003,2.10344828 C185.726384,2.10344828 185.609204,2.16091897 185.515458,2.27586207 C185.421712,2.39080517 185.374839,2.51724069 185.374839,2.65517241 Z M198.874196,15.3448276 L198.874196,5.4137931 C198.874196,5.59770207 198.762874,5.73563172 198.540228,5.82758621 C198.317581,5.91954069 198.053924,5.96551724 197.74925,5.96551724 L183.68742,5.96551724 C183.523364,5.96551724 183.388606,6.02298793 183.283142,6.13793103 C183.177678,6.25287414 183.124946,6.37930966 183.124946,6.51724138 L183.124946,15.3448276 C183.124946,15.5057479 183.177678,15.6379305 183.283142,15.7413793 C183.388606,15.8448281 183.523364,15.8965517 183.68742,15.8965517 L198.311723,15.8965517 C198.475778,15.8965517 198.610536,15.8448281 198.716001,15.7413793 C198.821465,15.6379305 198.874196,15.5057479 198.874196,15.3448276 Z M186.14824,10.1724138 C186.382605,10.3793114 186.499786,10.6379295 186.499786,10.9482759 C186.499786,11.2586222 186.388464,11.5172403 186.165817,11.7241379 C185.94317,11.9310355 185.679514,12.0344828 185.374839,12.0344828 C185.070165,12.0344828 184.806508,11.9310355 184.583861,11.7241379 C184.361215,11.5172403 184.249893,11.2586222 184.249893,10.9482759 C184.249893,10.6379295 184.361215,10.3735643 184.583861,10.1551724 C184.806508,9.93678052 185.070165,9.82758621 185.374839,9.82758621 C185.679514,9.82758621 185.937311,9.94252759 186.14824,10.1724138 Z" id="Icon-/-Progresses-/-4---N0"></path>
                    </g>
                </g>
            </g>
        </g>
    </g>
</svg>