<?xml version="1.0" encoding="UTF-8"?>
<svg width="18px" height="16px" viewBox="0 0 18 16" version="1.1" xmlns="http://www.w3.org/2000/svg" xmlns:xlink="http://www.w3.org/1999/xlink">
    <!-- Generator: sketchtool 52.5 (67469) - http://www.bohemiancoding.com/sketch -->
    <title>96F0A13B-11A3-4C1B-865D-67814F8FAC4F</title>
    <desc>Created with sketchtool.</desc>
    <g id="Icons" stroke="none" stroke-width="1" fill="none" fill-rule="evenodd">
        <g transform="translate(-186.000000, -2798.000000)" fill="#10A273" id="Stacked-Group">
            <g transform="translate(100.000000, 240.000000)">
                <g id="Stacked-Group-2-Copy-9" transform="translate(0.000000, 2495.000000)">
                    <g id="Stacked-Group" transform="translate(0.000000, 52.000000)">
                        <g id="Icon-/-Wallet-/-Wallet---G20" transform="translate(86.000000, 11.000000)">
                            <path d="M17.9991426,4.17241379 L17.9991426,14.3448276 C17.9991426,14.8046 17.8350895,15.1954007 17.5069785,15.5172414 C17.1788675,15.8390821 16.780453,16 16.3117229,16 L1.68741961,16 C1.2186896,16 0.820275064,15.8390821 0.492164054,15.5172414 C0.164053044,15.1954007 0,14.8046 0,14.3448276 L0,5.51724138 C0,5.05746897 0.164053044,4.66666828 0.492164054,4.34482759 C0.820275064,4.0229869 1.2186896,3.86206897 1.68741961,3.86206897 L2.24989282,3.86206897 L2.24989282,1.65517241 C2.24989282,1.1954 2.41394586,0.80459931 2.74205687,0.482758621 C3.07016788,0.160917931 3.46858242,0 3.93731243,0 L4.04277616,0 L16.6281141,2.48275862 C17.5655741,2.73563345 18.0225791,3.29884621 17.9991426,4.17241379 Z M3.37483923,1.65517241 L3.37483923,3.86206897 L15.7492497,3.86206897 C15.8898687,3.86206897 16.0011904,3.83908069 16.0832182,3.79310345 C16.165246,3.74712621 16.2238363,3.70114966 16.2589911,3.65517241 C16.2941458,3.60919517 16.3000049,3.57471276 16.2765684,3.55172414 L3.86700328,1.10344828 C3.72638428,1.10344828 3.60920353,1.16091897 3.51545753,1.27586207 C3.42171153,1.39080517 3.37483923,1.51724069 3.37483923,1.65517241 Z M16.8741961,14.3448276 L16.8741961,4.4137931 C16.8741961,4.59770207 16.7628744,4.73563172 16.5402277,4.82758621 C16.3175809,4.91954069 16.0539242,4.96551724 15.7492497,4.96551724 L1.68741961,4.96551724 C1.52336411,4.96551724 1.38860625,5.02298793 1.283142,5.13793103 C1.17767775,5.25287414 1.12494641,5.37930966 1.12494641,5.51724138 L1.12494641,14.3448276 C1.12494641,14.5057479 1.17767775,14.6379305 1.283142,14.7413793 C1.38860625,14.8448281 1.52336411,14.8965517 1.68741961,14.8965517 L16.3117229,14.8965517 C16.4757784,14.8965517 16.6105363,14.8448281 16.7160006,14.7413793 C16.8214648,14.6379305 16.8741961,14.5057479 16.8741961,14.3448276 Z M4.14823989,9.17241379 C4.38260489,9.37931138 4.49978564,9.63792948 4.49978564,9.94827586 C4.49978564,10.2586222 4.38846393,10.5172403 4.16581717,10.7241379 C3.94317042,10.9310355 3.67951374,11.0344828 3.37483923,11.0344828 C3.07016472,11.0344828 2.80650804,10.9310355 2.58386128,10.7241379 C2.36121453,10.5172403 2.24989282,10.2586222 2.24989282,9.94827586 C2.24989282,9.63792948 2.36121453,9.37356431 2.58386128,9.15517241 C2.80650804,8.93678052 3.07016472,8.82758621 3.37483923,8.82758621 C3.67951374,8.82758621 3.93731138,8.94252759 4.14823989,9.17241379 Z"></path>
                        </g>
                    </g>
                </g>
            </g>
        </g>
    </g>
</svg>