<?xml version="1.0" encoding="UTF-8" standalone="no"?><!DOCTYPE svg PUBLIC "-//W3C//DTD SVG 1.1//EN" "http://www.w3.org/Graphics/SVG/1.1/DTD/svg11.dtd"><svg width="100%" height="100%" viewBox="0 0 3853 922" version="1.1" xmlns="http://www.w3.org/2000/svg" xmlns:xlink="http://www.w3.org/1999/xlink" xml:space="preserve" xmlns:serif="http://www.serif.com/" style="fill-rule:evenodd;clip-rule:evenodd;stroke-linejoin:round;stroke-miterlimit:2;"><g><g><path d="M367.97,832.791c-0,0 239.788,6.539 328.647,-180.301c-0,-0 11.207,80.637 6.688,153.276c-3.037,48.826 -13.179,94.039 -38.605,108.719c-63.253,36.519 -296.73,-81.694 -296.73,-81.694Z" style="fill:#1b2c54;"/><path d="M40.45,428.385c-3.482,-6.031 -9.301,-17.191 -9.301,-17.191c-2.233,-7.638 -3.43,-15.716 -3.43,-24.071c0,-47.337 38.432,-85.769 85.769,-85.769c15.98,0 30.946,4.38 43.761,12.005c3.8,12.166 9.277,24.446 16.433,36.839l120.512,208.734c21.181,36.687 48.757,59.982 82.729,69.887c33.971,9.905 68.351,4.814 103.14,-15.271c30.157,-17.411 50.521,-40.259 61.09,-68.545c14.016,-10.211 31.271,-16.238 49.924,-16.238c41.323,-0 75.792,29.583 83.365,68.714c-4.13,8.511 -8.779,16.883 -13.944,25.117c-26.132,41.654 -64.183,76.906 -114.153,105.756c-49.337,28.484 -98.666,43.471 -147.988,44.959c-49.321,1.488 -94.918,-9.928 -136.79,-34.247c-41.871,-24.319 -76.502,-60.198 -103.891,-107.638l-117.226,-203.041Z" style="fill:#1b2c54;fill-rule:nonzero;"/><path d="M0.007,288.197l-0.007,-2.181c0.058,-48.105 13.152,-92.985 39.284,-134.638c26.132,-41.654 63.867,-76.723 113.204,-105.208c49.97,-28.85 99.524,-44.177 148.663,-45.981c49.139,-1.804 94.553,9.295 136.242,33.298c41.689,24.003 76.046,59.408 103.07,106.215l117.226,203.041c27.389,47.44 41.237,95.529 41.545,144.266c0.247,39.104 -8.016,75.927 -24.792,110.47c-7.576,-39.134 -42.043,-68.714 -83.365,-68.714c-18.653,-0 -35.908,6.027 -49.924,16.238c1.626,-4.342 3.019,-8.815 4.18,-13.416c8.725,-34.555 2.496,-70.175 -18.685,-106.862l-120.513,-208.734c-21.181,-36.687 -48.848,-60.141 -83.002,-70.361c-34.154,-10.221 -68.942,-5.106 -104.363,15.344c-34.789,20.086 -56.296,47.473 -64.522,82.161c-5.469,23.064 -4.438,46.569 3.094,70.514l-0.093,-0.29c-12.815,-7.625 -27.781,-12.005 -43.761,-12.005c-47.337,0 -85.769,38.432 -85.769,85.769c0,8.351 1.196,16.425 3.426,24.059l0.003,0.008l-0.003,-0.008l-0.376,-0.744l-0.694,-1.393l-1.311,-2.671l-1.271,-2.654l-0.716,-1.521l-0.194,-0.416l-0.716,-1.549l-0.707,-1.552l-0.327,-0.724l-0.726,-1.627l-0.355,-0.801l-0.163,-0.374l-0.78,-1.794l-0.157,-0.365l-0.871,-2.049l-0.874,-2.102l-0.122,-0.298l-0.754,-1.853l-0.14,-0.348l-0.736,-1.849l-0.119,-0.304l-0.814,-2.095l-0.793,-2.089l-0.113,-0.302l-0.693,-1.87l-0.115,-0.314l-0.695,-1.925l-0.079,-0.222l-0.729,-2.068l-0.074,-0.215l-0.666,-1.94l-0.099,-0.294l-0.636,-1.906l-0.088,-0.266l-0.66,-2.031l-0.041,-0.126l-0.657,-2.081l-0.074,-0.239l-0.594,-1.935l-0.083,-0.275l-0.583,-1.961l-0.06,-0.203l-0.608,-2.105l-0.039,-0.139l-0.565,-2.02l-0.069,-0.25l-0.527,-1.95l-0.065,-0.243l-0.534,-2.042l-0.03,-0.115l-0.536,-2.122l-0.046,-0.187l-0.484,-1.99l-0.059,-0.246l-0.466,-1.985l-0.045,-0.195l-0.481,-2.135l-0.015,-0.068l-0.454,-2.094l-0.045,-0.215l-0.412,-1.984l-0.046,-0.229l-0.407,-2.045l-0.024,-0.126l-0.407,-2.144l-0.025,-0.139l-0.369,-2.039l-0.039,-0.225l-0.344,-2.001l-0.033,-0.196l-0.352,-2.164l-0.332,-2.158l-0.028,-0.185l-0.292,-2.013l-0.031,-0.221l-0.278,-2.042l-0.019,-0.143l-0.274,-2.159l-0.012,-0.095l-0.246,-2.084l-0.024,-0.21l-0.22,-2.013l-0.021,-0.201l-0.212,-2.114l-0.006,-0.063l-0.199,-2.166l-0.013,-0.158l-0.169,-2.039l-0.017,-0.217l-0.15,-2.037l-0.012,-0.163l-0.141,-2.171l-0.003,-0.05l-0.119,-2.13l-0.01,-0.196l-0.096,-2.023l-0.009,-0.209l-0.081,-2.09l-0.003,-0.099l-0.064,-2.172l-0.004,-0.131l-0.043,-2.066l-0.003,-0.215l-0.024,-2.032l-0.002,-0.182Zm30.82,122.357l0.23,0.458l-0.107,-0.21l-0.123,-0.248Zm-2.063,-4.179l1.31,2.67c-0.879,-1.774 -1.74,-3.548 -2.581,-5.325l1.271,2.655Zm-3.603,-7.692l0.706,1.551l-0.209,-0.453l-0.497,-1.098Zm-1.053,-2.352l0.725,1.627l-0.174,-0.384l-0.551,-1.243Zm132.133,-86.335l0.005,0.017l-0.005,-0.017Zm-0.329,-1.163l0.035,0.126l-0.035,-0.126Zm-0.593,-2.191l0.008,0.03l-0.008,-0.03Zm-0.301,-1.168l0.039,0.155l-0.039,-0.155Zm-0.261,-1.044l0.007,0.028l-0.007,-0.028Zm-0.274,-1.133l0.009,0.037l-0.009,-0.037Zm-0.273,-1.176l0.041,0.18l-0.041,-0.18Zm-0.234,-1.042l0.019,0.085l-0.019,-0.085Zm-0.242,-1.117l0.008,0.038l-0.008,-0.038Zm-0.246,-1.187l0.041,0.201l-0.041,-0.201Zm-0.208,-1.04l0.026,0.132l-0.026,-0.132Zm-0.209,-1.096l0.006,0.032l-0.006,-0.032Zm-0.219,-1.203l0.038,0.218l-0.038,-0.218Zm-0.181,-1.039l0.029,0.17l-0.029,-0.17Zm-0.178,-1.069l0.003,0.018l-0.003,-0.018Zm-0.192,-1.224l0.036,0.232l-0.036,-0.232Zm-0.154,-1.038l0.029,0.201l-0.029,-0.201Zm-0.31,-2.287l0.031,0.243l-0.031,-0.243Zm-0.128,-1.038l0.027,0.226l-0.027,-0.226Zm-59.751,-196.521c7.64,-2.633 15.838,-4.063 24.369,-4.063c-8.53,-0 -16.728,1.429 -24.369,4.063l-1.629,0.582l-1.611,0.619c0,0 -35.657,36.997 -49.434,58.957c-25.024,39.887 -38.092,82.732 -39.204,128.537c-0.052,2.027 -0.078,4.061 -0.08,6.101c0.002,-2.04 0.028,-4.074 0.08,-6.101c1.112,-45.805 14.18,-88.65 39.204,-128.537c13.777,-21.96 49.434,-58.957 49.434,-58.957c0,0 1.611,-0.619 1.611,-0.619l1.629,-0.582Zm59.5,194.242l0.025,0.25l-0.025,-0.25Zm-0.101,-1.04l0.023,0.248l-0.023,-0.248Zm-0.192,-2.271l0.019,0.255l-0.019,-0.255Zm-0.075,-1.04l0.018,0.264l-0.018,-0.264Zm-0.064,-0.997l0,0.003l0,-0.003Zm-0.069,-1.266l0.013,0.257l-0.013,-0.257Zm-0.048,-1.043l0.012,0.277l-0.012,-0.277Zm-0.038,-0.996l0.003,0.075l-0.003,-0.075Zm-0.036,-1.256l0.006,0.256l-0.006,-0.256Zm-0.021,-1.047l0.005,0.288l-0.005,-0.288Zm-0.013,-0.995l0.002,0.127l-0.002,-0.127Zm-0.003,-1.246l-0.001,0.252l0.001,-0.252Zm0.006,-1.051l-0.003,0.295l0.003,-0.295Zm0.013,-0.994l-0.002,0.166l0.002,-0.166Zm0.029,-1.234l-0.007,0.245l0.007,-0.245Zm0.033,-1.058l-0.01,0.301l0.005,-0.16l0.005,-0.141Zm0.04,-0.994l-0.008,0.197l0.008,-0.197Zm0.06,-1.219l-0.013,0.235l0.013,-0.235Zm0.061,-1.066l-0.018,0.304l0.009,-0.155l0.009,-0.149Zm0.066,-0.995l-0.015,0.221l0.015,-0.221Zm0.09,-1.201l-0.018,0.221l0.018,-0.221Zm0.091,-1.077l-0.027,0.306l0.012,-0.15l0.015,-0.156Zm0.091,-0.995l-0.022,0.24l0.022,-0.24Zm0.12,-1.181l-0.022,0.204l0.022,-0.204Zm0.12,-1.091l-0.034,0.307l0.015,-0.144l0.019,-0.163Zm0.118,-0.995l-0.03,0.255l0.03,-0.255Zm0.148,-1.156l-0.024,0.181l0.024,-0.181Zm0.151,-1.108l-0.042,0.305l0.018,-0.137l0.024,-0.168Zm0.145,-0.997l-0.039,0.267l0.039,-0.267Zm0.173,-1.126l-0.024,0.153l0.024,-0.153Zm0.184,-1.131l-0.05,0.303l0.021,-0.129l0.029,-0.174Zm0.172,-0.998l-0.048,0.276l0.048,-0.276Zm0.195,-1.087l-0.021,0.115l0.021,-0.115Zm0.221,-1.161l-0.058,0.299l0.023,-0.122l0.035,-0.177Zm0.198,-1.001l-0.057,0.284l0.057,-0.284Zm0.214,-1.037l-0.014,0.066l0.014,-0.066Zm0.26,-1.203l-0.065,0.295l0.065,-0.295Zm0.225,-1.003l-0.065,0.29l0.065,-0.29Z" style="fill:#2ac4d4;fill-rule:nonzero;"/></g><g><path d="M1048.01,62.306l-0,481.856l288.283,0l-0,109.664l-411.239,-0l-0,-591.52l122.956,0Z" style="fill:#1b2c54;fill-rule:nonzero;"/><path d="M1711.81,603.148c-40.432,43.201 -93.048,64.801 -157.849,64.801c-64.802,0 -117.418,-21.6 -157.85,-64.801c-40.985,-42.647 -61.478,-96.648 -61.478,-162.003c0,-64.802 20.493,-119.08 61.478,-162.835c40.986,-42.647 93.602,-63.97 157.85,-63.97c64.247,-0 116.864,21.323 157.849,63.97c40.985,43.755 61.478,98.033 61.478,162.835c0,65.355 -20.493,119.356 -61.478,162.003Zm-264.19,-162.003c0,41.539 9.693,74.493 29.078,98.863c19.385,24.37 45.139,36.555 77.263,36.555c32.677,-0 58.709,-12.185 78.094,-36.555c18.831,-23.816 28.246,-56.77 28.246,-98.863c0,-42.094 -9.415,-75.048 -28.246,-98.864c-19.385,-24.37 -45.417,-36.555 -78.094,-36.555c-32.124,0 -57.878,12.185 -77.263,36.555c-19.385,24.37 -29.078,57.324 -29.078,98.864Z" style="fill:#1b2c54;fill-rule:nonzero;"/><path d="M2220.25,653.826l-138.741,-0l-113.818,-186.096l-43.201,44.031l0,142.065l-117.141,-0l0,-591.52l117.141,0l0,324.837l145.388,-162.003l147.049,0l-166.988,168.65l170.311,260.036Z" style="fill:#1b2c54;fill-rule:nonzero;"/><path d="M2616.43,653.826l-118.803,-0c-6.092,-27.693 -9.138,-42.093 -9.138,-43.201c-30.462,37.108 -74.494,55.663 -132.095,55.663c-44.863,-0 -80.863,-11.908 -108.003,-35.724c-27.139,-23.816 -40.708,-55.386 -40.708,-94.71c-0,-69.232 43.478,-112.433 130.433,-129.602l149.542,-29.909l-0,-31.57c-0,-31.016 -24.093,-46.524 -72.278,-46.524c-23.816,0 -41.817,4.431 -54.002,13.293c-12.184,8.862 -19.662,23.262 -22.431,43.201l-107.171,-1.662c7.2,-91.94 68.124,-137.91 182.773,-137.91c123.51,-0 185.265,53.17 185.265,159.511l0,189.419c0,40.432 5.539,70.34 16.616,89.725Zm-226.805,-73.94c29.355,-0 53.032,-8.723 71.032,-26.17c18.001,-17.446 27.001,-41.124 27.001,-71.032l-0,-31.57l-109.664,23.262c-37.108,7.2 -55.663,25.201 -55.663,54.001c0,15.508 5.954,27.97 17.862,37.385c11.908,9.416 28.386,14.124 49.432,14.124Z" style="fill:#1b2c54;fill-rule:nonzero;"/><path d="M2858.55,353.912l39.047,-128.772l117.972,0l-141.234,428.686l-119.633,-0l-141.234,-428.686l123.787,0l35.724,128.772l44.032,186.927l41.539,-186.927Z" style="fill:#1b2c54;fill-rule:nonzero;"/><path d="M3437.99,454.437l-0,19.939l-310.714,0c2.215,32.124 12.184,57.324 29.908,75.602c17.723,18.277 41.262,27.416 70.617,27.416c41.539,-0 69.232,-18.555 83.078,-55.663l116.31,8.308c-14.4,45.416 -38.493,79.894 -72.278,103.433c-33.785,23.539 -75.325,35.308 -124.618,35.308c-69.232,-0 -123.787,-21.6 -163.665,-64.801c-39.878,-43.201 -59.816,-98.587 -59.816,-166.158c-0,-64.801 19.108,-118.248 57.324,-160.341c38.216,-42.093 89.448,-63.14 153.695,-63.14c64.802,-0 117.695,21.6 158.68,64.801c40.986,43.755 61.479,102.187 61.479,175.296Zm-121.295,-59.816c-3.323,-29.909 -13.293,-53.171 -29.908,-69.786c-16.616,-16.616 -38.217,-24.924 -64.802,-24.924c-26.585,-0 -48.462,8.308 -65.632,24.924c-17.169,17.723 -27.139,40.985 -29.908,69.786l190.25,-0Z" style="fill:#1b2c54;fill-rule:nonzero;"/><path d="M3712.14,214.34c44.309,-0 78.786,13.569 103.433,40.708c24.647,27.139 36.97,64.248 36.97,111.326l-0,287.452l-117.141,-0l0,-260.867c0,-23.262 -5.4,-41.262 -16.2,-54.001c-10.8,-12.739 -26.17,-19.108 -46.109,-19.108c-24.923,-0 -45.139,9.554 -60.647,28.662c-15.508,19.108 -23.262,44.447 -23.262,76.017l-0,229.297l-117.141,-0l-0,-428.686l114.648,0l1.662,58.155c27.693,-45.97 68.955,-68.955 123.787,-68.955Z" style="fill:#1b2c54;fill-rule:nonzero;"/></g></g></svg>