<?xml version="1.0" encoding="UTF-8"?>
<svg width="472px" height="285px" viewBox="0 0 472 285" version="1.1" xmlns="http://www.w3.org/2000/svg" xmlns:xlink="http://www.w3.org/1999/xlink">
    <!-- Generator: sketchtool 53.2 (72643) - https://sketchapp.com -->
    <title>2165C06F-8B71-41D6-B3E0-83787B375E26</title>
    <desc>Created with sketchtool.</desc>
    <g id="Empty-States" stroke="none" stroke-width="1" fill="none" fill-rule="evenodd">
        <g id="2.Product---Empty-States-" transform="translate(-520.000000, -517.000000)">
            <g id="Group-4" transform="translate(511.000000, 510.000000)">
                <g id="Group-18" transform="translate(18.202145, 9.000000)">
                    <g id="Group">
                        <g id="Illustration" transform="translate(205.500000, 141.500000) rotate(-180.000000) translate(-205.500000, -141.500000) ">
                            <g id="Group-16" transform="translate(205.500000, 141.500000) rotate(-90.000000) translate(-205.500000, -141.500000) translate(64.000000, -64.000000)">
                                <circle id="Oval-2" fill="#DDF7EE" cx="260.5" cy="31.5" r="19.5"></circle>
                                <circle id="Oval-3" fill="#F6B4A2" cx="72.5" cy="231.5" r="4.5"></circle>
                                <circle id="Oval-4" fill="#CDC5E1" cx="34.5" cy="391.5" r="19.5"></circle>
                                <circle id="Oval-5" fill="#F8DAD2" cx="273" cy="313" r="10"></circle>
                                <circle id="Oval-6" fill="#CDC5E1" cx="73" cy="12" r="12"></circle>
                                <circle id="Oval-7" fill="#CDC5E1" cx="151" cy="188" r="16"></circle>
                                <circle id="Oval-7-Copy" fill="#CDC5E1" cx="80" cy="139" r="12"></circle>
                                <path d="M9.02410546,130.912671 C6.78088949,118.748083 7.89365458,110.981959 12.3624007,107.614301 C16.8311469,104.246642 19.5871716,102.636418 20.6304748,102.783628 C24.9577706,111.285947 27.12329,118.467988 27.1270331,124.329752 C27.1307761,130.191516 27.1321797,132.389678 27.131244,130.924237 L9.02410546,130.912671 Z" id="Path-3" fill="#F8DAD2" transform="translate(17.515533, 117.069124) rotate(-51.000000) translate(-17.515533, -117.069124) "></path>
                                <path d="M10.6546644,259.121654 C8.42651811,246.957439 9.54842053,239.188488 14.0203717,235.814803 C18.4923229,232.441117 21.2497624,230.827266 22.2926902,230.973248 C26.6089291,239.471982 28.7653915,246.652791 28.7620776,252.515672 C28.7587636,258.378554 28.7575209,260.577135 28.7583493,259.111414 L10.6546644,259.121654 Z" id="Path-3" fill="#DDF7EE" transform="translate(19.152638, 245.257648) rotate(-120.000000) translate(-19.152638, -245.257648) "></path>
                                <path d="M211.558321,92.0278447 C209.95975,83.3228816 210.763022,77.7635578 213.968137,75.3498735 C217.173253,72.9361891 219.149606,71.7816402 219.897198,71.8862266 C222.992092,77.9684183 224.538695,83.1072507 224.537008,87.3027238 C224.535321,91.498197 224.534688,93.0714994 224.53511,92.0226311 L211.558321,92.0278447 Z" id="Path-3" fill="#F8DAD2" transform="translate(217.648686, 82.108501) rotate(19.000000) translate(-217.648686, -82.108501) "></path>
                            </g>
                        </g>
                    </g>
                </g>
                <g id="Group-2" transform="translate(173.652285, 152.000000)">
                    <path d="M6.56117263,34.2810754 C-1.46596047,63.273866 -5.43443076,109.615442 14.5883057,110.162476 C34.6110422,110.70951 122.097774,110.787658 127.599517,103.011963 C133.10126,95.2362686 138.437996,89.8885019 138.437996,70.5247385 C138.437996,51.1609751 143.92436,23.027809 120.613428,13.650087 C97.3024955,4.27236495 14.5883057,5.28828483 6.56117263,34.2810754 Z" id="Path-8" fill="#E8E2F8"></path>
                    <path d="M50.5498609,5.08333333 L24.2581942,5.08333333 C20.047023,5.08333333 16.6331942,8.49716212 16.6331942,12.7083333 L16.6331942,109.291667 C16.6331942,113.502838 20.047023,116.916667 24.2581942,116.916667 L120.841528,116.916667 C125.052699,116.916667 128.466528,113.502838 128.466528,109.291667 L128.466528,12.7083333 C128.466528,8.49716212 125.052699,5.08333333 120.841528,5.08333333 L96.5498609,5.08333333 L96.5498609,41.2631579 C96.5498609,45.5360978 93.1173773,49 88.8831942,49 L58.2165276,49 C53.9823445,49 50.5498609,45.5360978 50.5498609,41.2631579 L50.5498609,5.08333333 Z M55.660972,5.08333333 L55.660972,41.2631579 C55.660972,42.6874712 56.8051332,43.8421053 58.2165276,43.8421053 L88.8831942,43.8421053 C90.2945886,43.8421053 91.4387498,42.6874712 91.4387498,41.2631579 L91.4387498,5.08333333 L55.660972,5.08333333 Z M120.841528,122 L24.2581942,122 C17.2430591,121.991597 11.5582639,116.306802 11.5498609,109.291667 L11.5498609,12.7083333 C11.5582639,5.69319824 17.2430591,0.00840304568 24.2581942,0 L120.841528,0 C127.856663,0.00840304568 133.541458,5.69319824 133.549861,12.7083333 L133.549861,109.291667 C133.541458,116.306802 127.856663,121.991597 120.841528,122 Z M83.9498609,36 L63.1498609,36 C61.7139205,36 60.5498609,34.6568542 60.5498609,33 C60.5498609,31.3431458 61.7139205,30 63.1498609,30 L83.9498609,30 C85.3858012,30 86.5498609,31.3431458 86.5498609,33 C86.5498609,34.6568542 85.3858012,36 83.9498609,36 Z M42.5498609,106 L32.5498609,106 C29.7884371,106 27.5498609,103.761424 27.5498609,101 L27.5498609,91 C27.5498609,88.2385763 29.7884371,86 32.5498609,86 L42.5498609,86 C45.3112846,86 47.5498609,88.2385763 47.5498609,91 L47.5498609,101 C47.5498609,103.761424 45.3112846,106 42.5498609,106 Z M32.5498609,91 L32.5498609,101 L42.5498609,101 L42.5498609,91 L32.5498609,91 Z M74.9943053,94 L57.1054164,94 C55.6940221,94 54.5498609,92.6568542 54.5498609,91 C54.5498609,89.3431458 55.6940221,88 57.1054164,88 L74.9943053,88 C76.4056997,88 77.5498609,89.3431458 77.5498609,91 C77.5498609,92.6568542 76.4056997,94 74.9943053,94 Z M64.1498609,104 L56.9498609,104 C55.6243775,104 54.5498609,102.656854 54.5498609,101 C54.5498609,99.3431458 55.6243775,98 56.9498609,98 L64.1498609,98 C65.4753443,98 66.5498609,99.3431458 66.5498609,101 C66.5498609,102.656854 65.4753443,104 64.1498609,104 Z M82.1498609,104 L74.9498609,104 C73.6243775,104 72.5498609,102.656854 72.5498609,101 C72.5498609,99.3431458 73.6243775,98 74.9498609,98 L82.1498609,98 C83.4753443,98 84.5498609,99.3431458 84.5498609,101 C84.5498609,102.656854 83.4753443,104 82.1498609,104 Z" id="Combined-Shape" fill="#7A5ACA" fill-rule="nonzero"></path>
                </g>
                <g id="Group-2-Copy" transform="translate(398.712731, 89.011318) rotate(-33.000000) translate(-398.712731, -89.011318) translate(329.212731, 28.011318)">
                    <path d="M6.56117263,34.2810754 C-1.46596047,63.273866 -5.43443076,109.615442 14.5883057,110.162476 C34.6110422,110.70951 122.097774,110.787658 127.599517,103.011963 C133.10126,95.2362686 138.437996,89.8885019 138.437996,70.5247385 C138.437996,51.1609751 143.92436,23.027809 120.613428,13.650087 C97.3024955,4.27236495 14.5883057,5.28828483 6.56117263,34.2810754 Z" id="Path-8" fill="#E8E2F8"></path>
                    <path d="M50.5498609,5.08333333 L24.2581942,5.08333333 C20.047023,5.08333333 16.6331942,8.49716212 16.6331942,12.7083333 L16.6331942,109.291667 C16.6331942,113.502838 20.047023,116.916667 24.2581942,116.916667 L120.841528,116.916667 C125.052699,116.916667 128.466528,113.502838 128.466528,109.291667 L128.466528,12.7083333 C128.466528,8.49716212 125.052699,5.08333333 120.841528,5.08333333 L96.5498609,5.08333333 L96.5498609,41.2631579 C96.5498609,45.5360978 93.1173773,49 88.8831942,49 L58.2165276,49 C53.9823445,49 50.5498609,45.5360978 50.5498609,41.2631579 L50.5498609,5.08333333 Z M55.660972,5.08333333 L55.660972,41.2631579 C55.660972,42.6874712 56.8051332,43.8421053 58.2165276,43.8421053 L88.8831942,43.8421053 C90.2945886,43.8421053 91.4387498,42.6874712 91.4387498,41.2631579 L91.4387498,5.08333333 L55.660972,5.08333333 Z M120.841528,122 L24.2581942,122 C17.2430591,121.991597 11.5582639,116.306802 11.5498609,109.291667 L11.5498609,12.7083333 C11.5582639,5.69319824 17.2430591,0.00840304568 24.2581942,0 L120.841528,0 C127.856663,0.00840304568 133.541458,5.69319824 133.549861,12.7083333 L133.549861,109.291667 C133.541458,116.306802 127.856663,121.991597 120.841528,122 Z M83.9498609,36 L63.1498609,36 C61.7139205,36 60.5498609,34.6568542 60.5498609,33 C60.5498609,31.3431458 61.7139205,30 63.1498609,30 L83.9498609,30 C85.3858012,30 86.5498609,31.3431458 86.5498609,33 C86.5498609,34.6568542 85.3858012,36 83.9498609,36 Z M42.5498609,106 L32.5498609,106 C29.7884371,106 27.5498609,103.761424 27.5498609,101 L27.5498609,91 C27.5498609,88.2385763 29.7884371,86 32.5498609,86 L42.5498609,86 C45.3112846,86 47.5498609,88.2385763 47.5498609,91 L47.5498609,101 C47.5498609,103.761424 45.3112846,106 42.5498609,106 Z M32.5498609,91 L32.5498609,101 L42.5498609,101 L42.5498609,91 L32.5498609,91 Z M74.9943053,94 L57.1054164,94 C55.6940221,94 54.5498609,92.6568542 54.5498609,91 C54.5498609,89.3431458 55.6940221,88 57.1054164,88 L74.9943053,88 C76.4056997,88 77.5498609,89.3431458 77.5498609,91 C77.5498609,92.6568542 76.4056997,94 74.9943053,94 Z M64.1498609,104 L56.9498609,104 C55.6243775,104 54.5498609,102.656854 54.5498609,101 C54.5498609,99.3431458 55.6243775,98 56.9498609,98 L64.1498609,98 C65.4753443,98 66.5498609,99.3431458 66.5498609,101 C66.5498609,102.656854 65.4753443,104 64.1498609,104 Z M82.1498609,104 L74.9498609,104 C73.6243775,104 72.5498609,102.656854 72.5498609,101 C72.5498609,99.3431458 73.6243775,98 74.9498609,98 L82.1498609,98 C83.4753443,98 84.5498609,99.3431458 84.5498609,101 C84.5498609,102.656854 83.4753443,104 82.1498609,104 Z" id="Combined-Shape" fill="#7A5ACA" fill-rule="nonzero"></path>
                </g>
                <g id="Group-2-Copy-2" transform="translate(84.500000, 98.654424) rotate(17.000000) translate(-84.500000, -98.654424) translate(15.000000, 37.654424)">
                    <path d="M6.56117263,34.2810754 C-1.46596047,63.273866 -5.43443076,109.615442 14.5883057,110.162476 C34.6110422,110.70951 122.097774,110.787658 127.599517,103.011963 C133.10126,95.2362686 138.437996,89.8885019 138.437996,70.5247385 C138.437996,51.1609751 143.92436,23.027809 120.613428,13.650087 C97.3024955,4.27236495 14.5883057,5.28828483 6.56117263,34.2810754 Z" id="Path-8" fill="#E8E2F8"></path>
                    <path d="M50.5498609,5.08333333 L24.2581942,5.08333333 C20.047023,5.08333333 16.6331942,8.49716212 16.6331942,12.7083333 L16.6331942,109.291667 C16.6331942,113.502838 20.047023,116.916667 24.2581942,116.916667 L120.841528,116.916667 C125.052699,116.916667 128.466528,113.502838 128.466528,109.291667 L128.466528,12.7083333 C128.466528,8.49716212 125.052699,5.08333333 120.841528,5.08333333 L96.5498609,5.08333333 L96.5498609,41.2631579 C96.5498609,45.5360978 93.1173773,49 88.8831942,49 L58.2165276,49 C53.9823445,49 50.5498609,45.5360978 50.5498609,41.2631579 L50.5498609,5.08333333 Z M55.660972,5.08333333 L55.660972,41.2631579 C55.660972,42.6874712 56.8051332,43.8421053 58.2165276,43.8421053 L88.8831942,43.8421053 C90.2945886,43.8421053 91.4387498,42.6874712 91.4387498,41.2631579 L91.4387498,5.08333333 L55.660972,5.08333333 Z M120.841528,122 L24.2581942,122 C17.2430591,121.991597 11.5582639,116.306802 11.5498609,109.291667 L11.5498609,12.7083333 C11.5582639,5.69319824 17.2430591,0.00840304568 24.2581942,0 L120.841528,0 C127.856663,0.00840304568 133.541458,5.69319824 133.549861,12.7083333 L133.549861,109.291667 C133.541458,116.306802 127.856663,121.991597 120.841528,122 Z M83.9498609,36 L63.1498609,36 C61.7139205,36 60.5498609,34.6568542 60.5498609,33 C60.5498609,31.3431458 61.7139205,30 63.1498609,30 L83.9498609,30 C85.3858012,30 86.5498609,31.3431458 86.5498609,33 C86.5498609,34.6568542 85.3858012,36 83.9498609,36 Z M42.5498609,106 L32.5498609,106 C29.7884371,106 27.5498609,103.761424 27.5498609,101 L27.5498609,91 C27.5498609,88.2385763 29.7884371,86 32.5498609,86 L42.5498609,86 C45.3112846,86 47.5498609,88.2385763 47.5498609,91 L47.5498609,101 C47.5498609,103.761424 45.3112846,106 42.5498609,106 Z M32.5498609,91 L32.5498609,101 L42.5498609,101 L42.5498609,91 L32.5498609,91 Z M74.9943053,94 L57.1054164,94 C55.6940221,94 54.5498609,92.6568542 54.5498609,91 C54.5498609,89.3431458 55.6940221,88 57.1054164,88 L74.9943053,88 C76.4056997,88 77.5498609,89.3431458 77.5498609,91 C77.5498609,92.6568542 76.4056997,94 74.9943053,94 Z M64.1498609,104 L56.9498609,104 C55.6243775,104 54.5498609,102.656854 54.5498609,101 C54.5498609,99.3431458 55.6243775,98 56.9498609,98 L64.1498609,98 C65.4753443,98 66.5498609,99.3431458 66.5498609,101 C66.5498609,102.656854 65.4753443,104 64.1498609,104 Z M82.1498609,104 L74.9498609,104 C73.6243775,104 72.5498609,102.656854 72.5498609,101 C72.5498609,99.3431458 73.6243775,98 74.9498609,98 L82.1498609,98 C83.4753443,98 84.5498609,99.3431458 84.5498609,101 C84.5498609,102.656854 83.4753443,104 82.1498609,104 Z" id="Combined-Shape" fill="#7A5ACA" fill-rule="nonzero"></path>
                </g>
                <path d="" id="Path-7" stroke="#979797"></path>
            </g>
        </g>
    </g>
</svg>