<svg width="20" height="20" viewBox="0 0 20 20" fill="none" xmlns="http://www.w3.org/2000/svg">
<path d="M19.2597 0.114419C19.1072 -0.0381192 18.8598 -0.0381192 18.7073 0.114419L12.4023 6.41941H9.40126C8.90294 6.41941 8.42896 6.23097 8.06666 5.88883C7.67955 5.52324 7.45756 5.00821 7.45756 4.47575V3.90857C7.45756 3.37236 7.28967 2.86213 6.97936 2.43721L8.74954 0.667032C8.90208 0.514494 8.90208 0.267152 8.74954 0.114575C8.597 -0.0379629 8.34966 -0.0379629 8.19709 0.114575L1.02851 7.28718C0.767964 7.54862 0.624957 7.89588 0.625895 8.26502C0.626832 8.63416 0.771597 8.98068 1.03351 9.24075L10.6744 18.8157C11.4433 19.5794 12.4637 20 13.5475 20H17.5356C18.2967 20 18.9158 19.3808 18.9158 18.6198V17.4219C18.9158 15.9139 18.0228 14.5499 16.6408 13.9467L15.1522 13.297C14.5349 13.0276 14.1075 12.4689 14.0088 11.8027L13.2606 6.7528C13.257 6.72866 13.2513 6.70534 13.2436 6.68296L19.2597 0.666836C19.4122 0.514298 19.4122 0.266957 19.2597 0.114419V0.114419ZM14.8397 14.013L16.3283 14.6627C17.3047 15.0889 17.9732 15.9936 18.1087 17.0313H14.0026C13.5701 17.0313 13.1497 16.8528 12.8492 16.5417L9.46133 13.0334C9.31145 12.8781 9.06415 12.8739 8.90899 13.0237C8.7538 13.1736 8.7495 13.4209 8.89935 13.5761L12.2872 17.0844C12.7341 17.5471 13.3593 17.8125 14.0026 17.8125H18.1346V18.6198C18.1346 18.9501 17.8659 19.2188 17.5356 19.2188H13.5475C12.6714 19.2188 11.8465 18.8788 11.2249 18.2614L1.58405 8.68646C1.47038 8.57357 1.40757 8.42318 1.40718 8.26303C1.40675 8.10283 1.46882 7.95217 1.5819 7.83869L2.4844 6.93312L6.45776 11.0477C6.60765 11.2028 6.85491 11.2072 7.0101 11.0573C7.1653 10.9075 7.16959 10.6602 7.01975 10.505L3.03642 6.38015L6.41726 2.99932C6.58604 3.26951 6.67636 3.58209 6.67636 3.90857V4.47571C6.67636 5.22215 6.9876 5.94422 7.53029 6.45675C8.03818 6.93644 8.70267 7.20061 9.40129 7.20061H12.5372L12.7089 8.35947H10.7258C10.51 8.35947 10.3352 8.53435 10.3352 8.75009C10.3352 8.96583 10.51 9.14072 10.7258 9.14072H12.8246L12.9963 10.2996H11.1945C10.9788 10.2996 10.8039 10.4745 10.8039 10.6902C10.8039 10.9059 10.9788 11.0808 11.1945 11.0808H13.112L13.2359 11.9171C13.2522 12.0269 13.275 12.1345 13.3037 12.2397H11.6046C11.3889 12.2397 11.214 12.4146 11.214 12.6303C11.214 12.846 11.3889 13.0209 11.6046 13.0209H13.6565C13.9409 13.4516 14.3471 13.798 14.8397 14.013V14.013Z" fill="#352E47"/>
<path d="M7.95939 11.65C7.85666 11.65 7.75587 11.6918 7.68322 11.7644C7.61056 11.8371 7.56877 11.9379 7.56877 12.0406C7.56877 12.1434 7.61056 12.2441 7.68322 12.3168C7.75587 12.3894 7.85666 12.4312 7.95939 12.4312C8.06251 12.4312 8.16291 12.3894 8.23556 12.3168C8.30861 12.2441 8.35001 12.1434 8.35001 12.0406C8.35001 11.9379 8.30861 11.8371 8.23556 11.7644C8.16291 11.6918 8.06251 11.65 7.95939 11.65Z" fill="#352E47"/>
</svg>
