<svg width="20" height="20" viewBox="0 0 20 20" fill="none" xmlns="http://www.w3.org/2000/svg">
<path d="M17.6133 12.2393C17.3657 12.2393 17.165 12.44 17.165 12.6876V16.668C17.1641 17.4104 16.5626 18.0121 15.8201 18.0128H3.24147C2.49898 18.0121 1.89746 17.4104 1.89659 16.668V4.98583C1.89746 4.24351 2.49898 3.64181 3.24147 3.64094H7.22182C7.46943 3.64094 7.67011 3.44026 7.67011 3.19264C7.67011 2.9452 7.46943 2.74435 7.22182 2.74435H3.24147C2.00411 2.74575 1.0014 3.74846 1 4.98583V16.6681C1.0014 17.9055 2.00411 18.9082 3.24147 18.9096H15.8201C17.0575 18.9082 18.0602 17.9055 18.0616 16.6681V12.6876C18.0616 12.44 17.8609 12.2393 17.6133 12.2393V12.2393Z" fill="#352E47"/>
<path d="M17.884 1.59088C17.0962 0.803039 15.8189 0.803039 15.031 1.59088L7.03322 9.58876C6.97841 9.64357 6.93883 9.71152 6.91817 9.78611L5.86643 13.5831C5.82318 13.7388 5.86713 13.9055 5.98131 14.0199C6.09565 14.1341 6.26236 14.178 6.41804 14.1349L10.215 13.083C10.2896 13.0624 10.3576 13.0228 10.4124 12.968L18.41 4.96991C19.1967 4.18154 19.1967 2.9053 18.41 2.11693L17.884 1.59088ZM8.01 9.88015L14.5556 3.33433L16.6666 5.44535L10.1208 11.9912L8.01 9.88015ZM7.58833 10.7263L9.27485 12.413L6.94198 13.0594L7.58833 10.7263ZM17.7761 4.33599L17.3007 4.81143L15.1895 2.70024L15.6651 2.2248C16.1027 1.78719 16.8123 1.78719 17.2499 2.2248L17.7761 2.75085C18.213 3.18899 18.213 3.89803 17.7761 4.33599V4.33599Z" fill="#352E47"/>
</svg>
