<svg width="20" height="20" viewBox="0 0 20 20" fill="none" xmlns="http://www.w3.org/2000/svg">
<g clip-path="url(#clip0)">
<path d="M12.0833 20H2.91666C1.7675 20 0.833331 19.0658 0.833331 17.9167V2.08333C0.833331 0.934159 1.7675 -7.62939e-06 2.91666 -7.62939e-06H12.0833C13.2325 -7.62939e-06 14.1667 0.934159 14.1667 2.08333C14.1667 2.31333 13.98 2.49999 13.75 2.49999C13.52 2.49999 13.3333 2.31333 13.3333 2.08333C13.3333 1.39416 12.7725 0.833326 12.0833 0.833326H2.91666C2.2275 0.833326 1.66666 1.39416 1.66666 2.08333V17.9167C1.66666 18.6058 2.2275 19.1667 2.91666 19.1667H12.0833C12.7725 19.1667 13.3333 18.6058 13.3333 17.9167C13.3333 17.6867 13.52 17.5 13.75 17.5C13.98 17.5 14.1667 17.6867 14.1667 17.9167C14.1667 19.0658 13.2325 20 12.0833 20Z" fill="#352E47"/>
<path d="M9.16668 2.49999H5.83335C5.14418 2.49999 4.58334 1.93916 4.58334 1.24999C4.58334 1.02083 4.39584 0.833326 4.16668 0.833326H3.33334C3.10334 0.833326 2.91667 0.646659 2.91667 0.416659C2.91667 0.186659 3.10334 -7.62939e-06 3.33334 -7.62939e-06H4.16668C4.85584 -7.62939e-06 5.41668 0.560826 5.41668 1.24999C5.41668 1.47916 5.60418 1.66666 5.83335 1.66666H9.16668C9.39585 1.66666 9.58335 1.47916 9.58335 1.24999C9.58335 0.560826 10.1442 -7.62939e-06 10.8334 -7.62939e-06H11.6667C11.8967 -7.62939e-06 12.0834 0.186659 12.0834 0.416659C12.0834 0.646659 11.8967 0.833326 11.6667 0.833326H10.8334C10.6042 0.833326 10.4167 1.02083 10.4167 1.24999C10.4167 1.93916 9.85585 2.49999 9.16668 2.49999Z" fill="#352E47"/>
<path d="M13.3333 15.8333C10.1175 15.8333 7.5 13.2158 7.5 10C7.5 6.78417 10.1175 4.16667 13.3333 4.16667C16.5492 4.16667 19.1667 6.78417 19.1667 10C19.1667 13.2158 16.5492 15.8333 13.3333 15.8333ZM13.3333 5.00001C10.5758 5.00001 8.33333 7.24251 8.33333 10C8.33333 12.7575 10.5758 15 13.3333 15C16.0908 15 18.3333 12.7575 18.3333 10C18.3333 7.24251 16.0908 5.00001 13.3333 5.00001Z" fill="#352E47"/>
<path d="M13.75 12.9167H11.6667C11.4367 12.9167 11.25 12.73 11.25 12.5C11.25 12.27 11.4367 12.0833 11.6667 12.0833H13.75C14.21 12.0833 14.5833 11.71 14.5833 11.25C14.5833 10.79 14.21 10.4167 13.75 10.4167H12.9167C11.9975 10.4167 11.25 9.66916 11.25 8.75C11.25 7.83083 11.9975 7.08334 12.9167 7.08334H15C15.23 7.08334 15.4167 7.27 15.4167 7.5C15.4167 7.73 15.23 7.91667 15 7.91667H12.9167C12.4567 7.91667 12.0833 8.29 12.0833 8.75C12.0833 9.21 12.4567 9.58333 12.9167 9.58333H13.75C14.6692 9.58333 15.4167 10.3308 15.4167 11.25C15.4167 12.1692 14.6692 12.9167 13.75 12.9167Z" fill="#352E47"/>
<path d="M13.3333 14.1667C13.1033 14.1667 12.9167 13.98 12.9167 13.75V12.5C12.9167 12.27 13.1033 12.0833 13.3333 12.0833C13.5633 12.0833 13.75 12.27 13.75 12.5V13.75C13.75 13.98 13.5633 14.1667 13.3333 14.1667Z" fill="#352E47"/>
<path d="M13.3333 7.91668C13.1033 7.91668 12.9167 7.73001 12.9167 7.50001V6.25C12.9167 6.02 13.1033 5.83334 13.3333 5.83334C13.5633 5.83334 13.75 6.02 13.75 6.25V7.50001C13.75 7.73001 13.5633 7.91668 13.3333 7.91668Z" fill="#352E47"/>
</g>
<defs>
<clipPath id="clip0">
<rect width="20" height="20" fill="white"/>
</clipPath>
</defs>
</svg>
