<svg width="20" height="20" viewBox="0 0 20 20" fill="none" xmlns="http://www.w3.org/2000/svg">
<path d="M9.85748 9.63409C11.181 9.63409 12.327 9.15939 13.2635 8.22281C14.1998 7.28638 14.6747 6.14059 14.6747 4.81689C14.6747 3.49365 14.2 2.34772 13.2634 1.41098C12.3268 0.474701 11.1809 0 9.85748 0C8.53378 0 7.388 0.474701 6.45157 1.41113C5.51514 2.34756 5.04028 3.4935 5.04028 4.81689C5.04028 6.14059 5.51514 7.28653 6.45157 8.22296C7.38831 9.15924 8.53424 9.63409 9.85748 9.63409V9.63409ZM7.28043 2.23984C7.99896 1.5213 8.84186 1.17203 9.85748 1.17203C10.873 1.17203 11.716 1.5213 12.4347 2.23984C13.1532 2.95853 13.5027 3.80157 13.5027 4.81689C13.5027 5.83252 13.1532 6.67542 12.4347 7.3941C11.716 8.11279 10.873 8.46207 9.85748 8.46207C8.84216 8.46207 7.99927 8.11264 7.28043 7.3941C6.56174 6.67557 6.21231 5.83252 6.21231 4.81689C6.21231 3.80157 6.56174 2.95853 7.28043 2.23984Z" fill="#352E47"/>
<path d="M18.2863 15.379C18.2593 14.9893 18.2047 14.5642 18.1242 14.1153C18.0431 13.663 17.9385 13.2355 17.8134 12.8447C17.684 12.4408 17.5084 12.0419 17.291 11.6597C17.0656 11.263 16.8007 10.9175 16.5034 10.6332C16.1926 10.3358 15.8121 10.0967 15.372 9.92233C14.9335 9.74884 14.4475 9.66095 13.9276 9.66095C13.7234 9.66095 13.526 9.74472 13.1447 9.99298C12.91 10.146 12.6355 10.323 12.3291 10.5188C12.0671 10.6857 11.7122 10.8421 11.2738 10.9837C10.8461 11.1221 10.4118 11.1923 9.98306 11.1923C9.5546 11.1923 9.12033 11.1221 8.69232 10.9837C8.25439 10.8423 7.89932 10.6859 7.63779 10.519C7.33429 10.325 7.05963 10.148 6.82144 9.99283C6.44043 9.74457 6.24298 9.6608 6.03882 9.6608C5.5188 9.6608 5.03296 9.74884 4.59457 9.92249C4.15482 10.0966 3.77411 10.3357 3.46298 10.6334C3.16574 10.9178 2.90085 11.2631 2.67563 11.6597C2.4585 12.0419 2.28271 12.4406 2.15332 12.8448C2.02835 13.2356 1.92383 13.663 1.84265 14.1153C1.76208 14.5636 1.70761 14.9889 1.6806 15.3795C1.65405 15.7614 1.64062 16.1589 1.64062 16.5605C1.64062 17.6045 1.9725 18.4497 2.62695 19.073C3.27332 19.6881 4.12842 20 5.16861 20H14.7987C15.8386 20 16.6937 19.6881 17.3402 19.073C17.9948 18.4502 18.3267 17.6047 18.3267 16.5604C18.3266 16.1574 18.313 15.7599 18.2863 15.379V15.379ZM16.5321 18.2239C16.105 18.6304 15.538 18.828 14.7986 18.828H5.16861C4.42902 18.828 3.862 18.6304 3.43506 18.224C3.0162 17.8253 2.81265 17.281 2.81265 16.5605C2.81265 16.1858 2.82501 15.8157 2.84973 15.4605C2.87384 15.112 2.92313 14.7292 2.99622 14.3224C3.06839 13.9206 3.16025 13.5435 3.2695 13.2022C3.37433 12.8749 3.5173 12.5508 3.69461 12.2386C3.86383 11.9411 4.05853 11.6858 4.27338 11.4801C4.47433 11.2877 4.72763 11.1302 5.02609 11.0121C5.30212 10.9029 5.61234 10.843 5.9491 10.834C5.99014 10.8559 6.06323 10.8975 6.18164 10.9747C6.42258 11.1317 6.70029 11.3109 7.00729 11.507C7.35336 11.7276 7.79922 11.9269 8.33191 12.0988C8.8765 12.2749 9.43192 12.3643 9.98322 12.3643C10.5345 12.3643 11.0901 12.2749 11.6344 12.099C12.1675 11.9267 12.6132 11.7276 12.9597 11.5067C13.2739 11.3058 13.5439 11.1319 13.7848 10.9747C13.9032 10.8977 13.9763 10.8559 14.0173 10.834C14.3542 10.843 14.6645 10.9029 14.9406 11.0121C15.239 11.1302 15.4922 11.2878 15.6932 11.4801C15.9081 11.6856 16.1028 11.9409 16.272 12.2388C16.4494 12.5508 16.5926 12.8751 16.6972 13.2021C16.8066 13.5439 16.8987 13.9207 16.9707 14.3222C17.0436 14.7298 17.093 15.1128 17.1172 15.4607V15.461C17.142 15.8148 17.1545 16.1847 17.1547 16.5605C17.1545 17.2812 16.951 17.8253 16.5321 18.2239V18.2239Z" fill="#352E47"/>
</svg>
