<?xml version="1.0" encoding="UTF-8"?>
<svg width="464px" height="279px" viewBox="0 0 464 279" version="1.1" xmlns="http://www.w3.org/2000/svg" xmlns:xlink="http://www.w3.org/1999/xlink">
    <!-- Generator: sketchtool 53.2 (72643) - https://sketchapp.com -->
    <title>AC2286FF-13E6-425E-8A79-E920ECE60297</title>
    <desc>Created with sketchtool.</desc>
    <g id="Empty-States" stroke="none" stroke-width="1" fill="none" fill-rule="evenodd">
        <g id="24.Coupon---Empty-States" transform="translate(-529.000000, -1109.000000)">
            <g id="Group-7" transform="translate(528.000000, 1109.000000)">
                <g id="Group-6">
                    <g id="Group" transform="translate(18.000000, 0.000000)">
                        <ellipse id="Oval-2" fill="#DDF7EE" transform="translate(31.423358, 23.212185) rotate(-90.000000) translate(-31.423358, -23.212185) " cx="31.4233577" cy="23.2121854" rx="19.5" ry="19.4525547"></ellipse>
                        <ellipse id="Oval-3" fill="#F6B4A2" transform="translate(230.936740, 211.212185) rotate(-90.000000) translate(-230.936740, -211.212185) " cx="230.93674" cy="211.212185" rx="4.5" ry="4.48905109"></ellipse>
                        <ellipse id="Oval-4" fill="#CDC5E1" transform="translate(390.547445, 95.212185) rotate(-90.000000) translate(-390.547445, -95.212185) " cx="390.547445" cy="95.2121854" rx="19.5" ry="19.4525547"></ellipse>
                        <ellipse id="Oval-5" fill="#F8DAD2" transform="translate(312.238443, 10.712185) rotate(-90.000000) translate(-312.238443, -10.712185) " cx="312.238443" cy="10.7121854" rx="10" ry="9.9756691"></ellipse>
                        <ellipse id="Oval-6" fill="#CDC5E1" transform="translate(11.970803, 210.712185) rotate(-90.000000) translate(-11.970803, -210.712185) " cx="11.9708029" cy="210.712185" rx="12" ry="11.9708029"></ellipse>
                        <ellipse id="Oval-7" fill="#CDC5E1" transform="translate(187.542579, 132.712185) rotate(-90.000000) translate(-187.542579, -132.712185) " cx="187.542579" cy="132.712185" rx="16" ry="15.9610706"></ellipse>
                        <path d="M108.308132,279.99693 C106.053737,267.841394 107.155625,260.084078 111.613797,256.724982 C116.071969,253.365886 118.822028,251.760493 119.863973,251.908803 C124.195027,260.408078 126.365911,267.585776 126.376624,273.441896 C126.387337,279.298016 126.391354,281.494061 126.388676,280.030031 L108.308132,279.99693 Z" id="Path-3" fill="#F8DAD2" transform="translate(116.780957, 266.184318) rotate(-141.000000) translate(-116.780957, -266.184318) "></path>
                        <path d="M256.967676,266.619883 C247.547229,274.612129 240.25817,277.517921 235.100497,275.337259 C229.942824,273.156597 227.166468,271.579357 226.771428,270.605539 C231.973429,262.637633 237.11396,257.192958 242.193021,254.271512 C247.272083,251.350067 249.176731,250.254525 247.906966,250.984886 L256.967676,266.619883 Z" id="Path-6" fill="#DDF7EE" transform="translate(241.869552, 263.402103) rotate(-90.000000) translate(-241.869552, -263.402103) "></path>
                        <path d="M75.8111869,75.9707535 C74.2195475,67.2859227 75.0267762,61.7380899 78.232873,59.3272552 C81.4389697,56.9164205 83.4156783,55.7629027 84.1629989,55.8667017 C87.2525392,61.9333454 88.7948947,67.0598415 88.7900655,71.2461899 C88.7852363,75.4325384 88.7834254,77.002419 88.7846327,75.9558319 L75.8111869,75.9707535 Z" id="Path-3" fill="#F8DAD2" transform="translate(81.904614, 66.065041) rotate(-71.000000) translate(-81.904614, -66.065041) "></path>
                        <path d="" id="Path-2" stroke="#979797"></path>
                        <path d="" id="Path-4" stroke="#979797"></path>
                    </g>
                    <g id="Group-5" transform="translate(0.000000, 98.000000)">
                        <path d="M9,54.5326127 L25.0555576,78.7150892 L38.3428969,88.1852429 L43.2845028,105.897428 L62.3428969,126.659727 C102.933484,92.6972876 127.527136,72.4786727 136.123854,66.0038824 C149.01893,56.291697 84.6815114,-9.81475714 79.0255623,15.8974283 C75.2549295,33.0388852 51.9130754,45.91728 9,54.5326127 Z" id="Path-10" fill="#E8E2F8"></path>
                        <path d="M33.2173914,68.8186396 C33.2197607,78.0575708 26.4402444,85.895004 17.3043479,87.2148511 L17.3043479,103.328127 L128.695652,103.328127 L128.695652,87.2148511 C119.546559,85.9099951 112.749381,78.0685182 112.749381,68.8186396 C112.749381,59.568761 119.546559,51.7272841 128.695652,50.4224282 L128.695652,34.309152 L17.3043479,34.309152 L17.3043479,50.4224282 C26.4402444,51.7422752 33.2197607,59.5797084 33.2173914,68.8186396 Z M12,52.8911838 L12,31.6545761 C12,30.9505387 12.2794246,30.2753369 12.7768037,29.7775073 C13.2741829,29.2796777 13.9487737,29 14.652174,29 L131.347826,29 C132.051226,29 132.725817,29.2796777 133.223196,29.7775073 C133.720575,30.2753369 134,30.9505387 134,31.6545761 L134,52.8911838 C134,53.5952211 133.720575,54.2704229 133.223196,54.7682525 C132.725817,55.266082 132.051226,55.5457597 131.347826,55.5457597 C124.02405,55.5457597 118.086956,61.4882304 118.086956,68.8186395 C118.086956,76.1490487 124.02405,82.0915194 131.347826,82.0915194 C132.051226,82.0915193 132.725817,82.3711971 133.223196,82.8690266 C133.720575,83.3668562 134,84.042058 134,84.7460953 L134,105.982703 C134,106.68674 133.720575,107.361942 133.223196,107.859772 C132.725817,108.357601 132.051226,108.637279 131.347826,108.637279 L14.652174,108.637279 C13.9487737,108.637279 13.2741829,108.357601 12.7768038,107.859772 C12.2794247,107.361942 12,106.68674 12,105.982703 L12,84.7460953 C12,84.042058 12.2794247,83.3668562 12.7768038,82.8690266 C13.2741829,82.3711971 13.9487737,82.0915193 14.652174,82.0915194 C21.97595,82.0915194 27.9130436,76.1490487 27.9130436,68.8186395 C27.9130436,61.4882304 21.97595,55.5457597 14.652174,55.5457597 C13.9487737,55.5457597 13.2741829,55.266082 12.7768038,54.7682525 C12.2794247,54.2704229 12,53.5952211 12,52.8911838 L12,52.8911838 Z M91.5652174,42.2728799 C91.5652174,40.8067981 92.7526361,39.6183039 94.2173913,39.6183039 C95.6821465,39.6183039 96.8695653,40.8067981 96.8695653,42.2728799 L96.8695653,52.8911838 C96.8695653,54.3572656 95.6821465,55.5457598 94.2173913,55.5457598 C92.7526361,55.5457598 91.5652174,54.3572656 91.5652174,52.8911838 L91.5652174,42.2728799 L91.5652174,42.2728799 Z M91.5652174,63.5094876 C91.5652174,62.0434058 92.7526361,60.8549116 94.2173913,60.8549116 C95.6821465,60.8549116 96.8695653,62.0434058 96.8695653,63.5094876 L96.8695653,74.1277915 C96.8695653,75.5938733 95.6821465,76.7823675 94.2173913,76.7823675 C92.7526361,76.7823675 91.5652174,75.5938733 91.5652174,74.1277915 L91.5652174,63.5094876 Z M91.5652174,84.7460953 C91.5652174,83.2800135 92.7526361,82.0915193 94.2173913,82.0915193 C95.6821465,82.0915193 96.8695653,83.2800135 96.8695653,84.7460953 L96.8695653,95.3643991 C96.8695653,96.830481 95.6821465,98.0189751 94.2173913,98.0189751 C92.7526361,98.0189751 91.5652174,96.830481 91.5652174,95.3643991 L91.5652174,84.7460953 Z" id="Shape" fill="#7A5ACA" fill-rule="nonzero" transform="translate(73.000000, 68.818640) rotate(-36.000000) translate(-73.000000, -68.818640) "></path>
                    </g>
                    <g id="Group-5-Copy" transform="translate(238.000000, 85.500000) rotate(-275.000000) translate(-238.000000, -85.500000) translate(165.000000, 17.000000)">
                        <path d="M9,54.5326127 L25.0555576,78.7150892 L38.3428969,88.1852429 L43.2845028,105.897428 L62.3428969,126.659727 C102.933484,92.6972876 127.527136,72.4786727 136.123854,66.0038824 C149.01893,56.291697 84.6815114,-9.81475714 79.0255623,15.8974283 C75.2549295,33.0388852 51.9130754,45.91728 9,54.5326127 Z" id="Path-10" fill="#E8E2F8"></path>
                        <path d="M33.2173914,68.8186396 C33.2197607,78.0575708 26.4402444,85.895004 17.3043479,87.2148511 L17.3043479,103.328127 L128.695652,103.328127 L128.695652,87.2148511 C119.546559,85.9099951 112.749381,78.0685182 112.749381,68.8186396 C112.749381,59.568761 119.546559,51.7272841 128.695652,50.4224282 L128.695652,34.309152 L17.3043479,34.309152 L17.3043479,50.4224282 C26.4402444,51.7422752 33.2197607,59.5797084 33.2173914,68.8186396 Z M12,52.8911838 L12,31.6545761 C12,30.9505387 12.2794246,30.2753369 12.7768037,29.7775073 C13.2741829,29.2796777 13.9487737,29 14.652174,29 L131.347826,29 C132.051226,29 132.725817,29.2796777 133.223196,29.7775073 C133.720575,30.2753369 134,30.9505387 134,31.6545761 L134,52.8911838 C134,53.5952211 133.720575,54.2704229 133.223196,54.7682525 C132.725817,55.266082 132.051226,55.5457597 131.347826,55.5457597 C124.02405,55.5457597 118.086956,61.4882304 118.086956,68.8186395 C118.086956,76.1490487 124.02405,82.0915194 131.347826,82.0915194 C132.051226,82.0915193 132.725817,82.3711971 133.223196,82.8690266 C133.720575,83.3668562 134,84.042058 134,84.7460953 L134,105.982703 C134,106.68674 133.720575,107.361942 133.223196,107.859772 C132.725817,108.357601 132.051226,108.637279 131.347826,108.637279 L14.652174,108.637279 C13.9487737,108.637279 13.2741829,108.357601 12.7768038,107.859772 C12.2794247,107.361942 12,106.68674 12,105.982703 L12,84.7460953 C12,84.042058 12.2794247,83.3668562 12.7768038,82.8690266 C13.2741829,82.3711971 13.9487737,82.0915193 14.652174,82.0915194 C21.97595,82.0915194 27.9130436,76.1490487 27.9130436,68.8186395 C27.9130436,61.4882304 21.97595,55.5457597 14.652174,55.5457597 C13.9487737,55.5457597 13.2741829,55.266082 12.7768038,54.7682525 C12.2794247,54.2704229 12,53.5952211 12,52.8911838 L12,52.8911838 Z M91.5652174,42.2728799 C91.5652174,40.8067981 92.7526361,39.6183039 94.2173913,39.6183039 C95.6821465,39.6183039 96.8695653,40.8067981 96.8695653,42.2728799 L96.8695653,52.8911838 C96.8695653,54.3572656 95.6821465,55.5457598 94.2173913,55.5457598 C92.7526361,55.5457598 91.5652174,54.3572656 91.5652174,52.8911838 L91.5652174,42.2728799 L91.5652174,42.2728799 Z M91.5652174,63.5094876 C91.5652174,62.0434058 92.7526361,60.8549116 94.2173913,60.8549116 C95.6821465,60.8549116 96.8695653,62.0434058 96.8695653,63.5094876 L96.8695653,74.1277915 C96.8695653,75.5938733 95.6821465,76.7823675 94.2173913,76.7823675 C92.7526361,76.7823675 91.5652174,75.5938733 91.5652174,74.1277915 L91.5652174,63.5094876 Z M91.5652174,84.7460953 C91.5652174,83.2800135 92.7526361,82.0915193 94.2173913,82.0915193 C95.6821465,82.0915193 96.8695653,83.2800135 96.8695653,84.7460953 L96.8695653,95.3643991 C96.8695653,96.830481 95.6821465,98.0189751 94.2173913,98.0189751 C92.7526361,98.0189751 91.5652174,96.830481 91.5652174,95.3643991 L91.5652174,84.7460953 Z" id="Shape" fill="#7A5ACA" fill-rule="nonzero" transform="translate(73.000000, 68.818640) rotate(-36.000000) translate(-73.000000, -68.818640) "></path>
                    </g>
                    <g id="Group-5-Copy-2" transform="translate(392.336415, 176.025941) rotate(-470.000000) translate(-392.336415, -176.025941) translate(319.336415, 107.525941)">
                        <path d="M9,54.5326127 L25.0555576,78.7150892 L38.3428969,88.1852429 L43.2845028,105.897428 L62.3428969,126.659727 C102.933484,92.6972876 127.527136,72.4786727 136.123854,66.0038824 C149.01893,56.291697 84.6815114,-9.81475714 79.0255623,15.8974283 C75.2549295,33.0388852 51.9130754,45.91728 9,54.5326127 Z" id="Path-10" fill="#E8E2F8"></path>
                        <path d="M33.2173914,68.8186396 C33.2197607,78.0575708 26.4402444,85.895004 17.3043479,87.2148511 L17.3043479,103.328127 L128.695652,103.328127 L128.695652,87.2148511 C119.546559,85.9099951 112.749381,78.0685182 112.749381,68.8186396 C112.749381,59.568761 119.546559,51.7272841 128.695652,50.4224282 L128.695652,34.309152 L17.3043479,34.309152 L17.3043479,50.4224282 C26.4402444,51.7422752 33.2197607,59.5797084 33.2173914,68.8186396 Z M12,52.8911838 L12,31.6545761 C12,30.9505387 12.2794246,30.2753369 12.7768037,29.7775073 C13.2741829,29.2796777 13.9487737,29 14.652174,29 L131.347826,29 C132.051226,29 132.725817,29.2796777 133.223196,29.7775073 C133.720575,30.2753369 134,30.9505387 134,31.6545761 L134,52.8911838 C134,53.5952211 133.720575,54.2704229 133.223196,54.7682525 C132.725817,55.266082 132.051226,55.5457597 131.347826,55.5457597 C124.02405,55.5457597 118.086956,61.4882304 118.086956,68.8186395 C118.086956,76.1490487 124.02405,82.0915194 131.347826,82.0915194 C132.051226,82.0915193 132.725817,82.3711971 133.223196,82.8690266 C133.720575,83.3668562 134,84.042058 134,84.7460953 L134,105.982703 C134,106.68674 133.720575,107.361942 133.223196,107.859772 C132.725817,108.357601 132.051226,108.637279 131.347826,108.637279 L14.652174,108.637279 C13.9487737,108.637279 13.2741829,108.357601 12.7768038,107.859772 C12.2794247,107.361942 12,106.68674 12,105.982703 L12,84.7460953 C12,84.042058 12.2794247,83.3668562 12.7768038,82.8690266 C13.2741829,82.3711971 13.9487737,82.0915193 14.652174,82.0915194 C21.97595,82.0915194 27.9130436,76.1490487 27.9130436,68.8186395 C27.9130436,61.4882304 21.97595,55.5457597 14.652174,55.5457597 C13.9487737,55.5457597 13.2741829,55.266082 12.7768038,54.7682525 C12.2794247,54.2704229 12,53.5952211 12,52.8911838 L12,52.8911838 Z M91.5652174,42.2728799 C91.5652174,40.8067981 92.7526361,39.6183039 94.2173913,39.6183039 C95.6821465,39.6183039 96.8695653,40.8067981 96.8695653,42.2728799 L96.8695653,52.8911838 C96.8695653,54.3572656 95.6821465,55.5457598 94.2173913,55.5457598 C92.7526361,55.5457598 91.5652174,54.3572656 91.5652174,52.8911838 L91.5652174,42.2728799 L91.5652174,42.2728799 Z M91.5652174,63.5094876 C91.5652174,62.0434058 92.7526361,60.8549116 94.2173913,60.8549116 C95.6821465,60.8549116 96.8695653,62.0434058 96.8695653,63.5094876 L96.8695653,74.1277915 C96.8695653,75.5938733 95.6821465,76.7823675 94.2173913,76.7823675 C92.7526361,76.7823675 91.5652174,75.5938733 91.5652174,74.1277915 L91.5652174,63.5094876 Z M91.5652174,84.7460953 C91.5652174,83.2800135 92.7526361,82.0915193 94.2173913,82.0915193 C95.6821465,82.0915193 96.8695653,83.2800135 96.8695653,84.7460953 L96.8695653,95.3643991 C96.8695653,96.830481 95.6821465,98.0189751 94.2173913,98.0189751 C92.7526361,98.0189751 91.5652174,96.830481 91.5652174,95.3643991 L91.5652174,84.7460953 Z" id="Shape" fill="#7A5ACA" fill-rule="nonzero" transform="translate(73.000000, 68.818640) rotate(-36.000000) translate(-73.000000, -68.818640) "></path>
                    </g>
                    <path d="" id="Path-9" stroke="#979797"></path>
                </g>
            </g>
        </g>
    </g>
</svg>