<?xml version="1.0" encoding="UTF-8"?>
<svg width="442px" height="278px" viewBox="0 0 442 278" version="1.1" xmlns="http://www.w3.org/2000/svg" xmlns:xlink="http://www.w3.org/1999/xlink">
    <!-- Generator: sketchtool 53.2 (72643) - https://sketchapp.com -->
    <title>40E4D1F7-CD21-4837-AF0A-BD5A374BCE35</title>
    <desc>Created with sketchtool.</desc>
    <g id="Empty-States" stroke="none" stroke-width="1" fill="none" fill-rule="evenodd">
        <g id="1.Dashboard---Empty-States" transform="translate(-531.000000, -1106.000000)">
            <g id="Group" transform="translate(512.000000, 1071.287815)">
                <ellipse id="Oval-2" fill="#DDF7EE" transform="translate(81.423358, 57.212185) rotate(-90.000000) translate(-81.423358, -57.212185) " cx="81.4233577" cy="57.2121854" rx="19.5" ry="19.4525547"></ellipse>
                <path d="M73.4844262,162.200641 C64.2303668,167.183082 59.6033372,176.300447 59.6033372,189.552739 C59.6033372,202.805031 59.6033372,211.750536 59.6033372,216.389256 C58.089003,229.421241 62.089003,235.937234 71.6033372,235.937234 C85.8748385,235.937234 122.398435,236.726019 122.398435,241.738208 C122.398435,246.750397 136.580395,241.441578 132.753836,228.915417 C128.927277,216.389256 141.868582,183.552739 145.384294,179.552739 C148.900006,175.552739 92.4138379,156.461585 77.1033372,161.210708 C66.8963367,164.376789 65.690033,164.706767 73.4844262,162.200641 Z" id="Path-5" fill="#E8E2F8" transform="translate(102.416438, 202.033939) rotate(-375.000000) translate(-102.416438, -202.033939) "></path>
                <ellipse id="Oval-3" fill="#F6B4A2" transform="translate(280.936740, 245.212185) rotate(-90.000000) translate(-280.936740, -245.212185) " cx="280.93674" cy="245.212185" rx="4.5" ry="4.48905109"></ellipse>
                <ellipse id="Oval-4" fill="#CDC5E1" transform="translate(440.547445, 129.212185) rotate(-90.000000) translate(-440.547445, -129.212185) " cx="440.547445" cy="129.212185" rx="19.5" ry="19.4525547"></ellipse>
                <ellipse id="Oval-5" fill="#F8DAD2" transform="translate(362.238443, 44.712185) rotate(-90.000000) translate(-362.238443, -44.712185) " cx="362.238443" cy="44.7121854" rx="10" ry="9.9756691"></ellipse>
                <ellipse id="Oval-6" fill="#CDC5E1" transform="translate(61.970803, 244.712185) rotate(-90.000000) translate(-61.970803, -244.712185) " cx="61.9708029" cy="244.712185" rx="12" ry="11.9708029"></ellipse>
                <ellipse id="Oval-7" fill="#CDC5E1" transform="translate(237.542579, 166.712185) rotate(-90.000000) translate(-237.542579, -166.712185) " cx="237.542579" cy="166.712185" rx="16" ry="15.9610706"></ellipse>
                <path d="M158.308132,313.99693 C156.053737,301.841394 157.155625,294.084078 161.613797,290.724982 C166.071969,287.365886 168.822028,285.760493 169.863973,285.908803 C174.195027,294.408078 176.365911,301.585776 176.376624,307.441896 C176.387337,313.298016 176.391354,315.494061 176.388676,314.030031 L158.308132,313.99693 Z" id="Path-3" fill="#F8DAD2" transform="translate(166.780957, 300.184318) rotate(-141.000000) translate(-166.780957, -300.184318) "></path>
                <path d="M306.967676,300.619883 C297.547229,308.612129 290.25817,311.517921 285.100497,309.337259 C279.942824,307.156597 277.166468,305.579357 276.771428,304.605539 C281.973429,296.637633 287.11396,291.192958 292.193021,288.271512 C297.272083,285.350067 299.176731,284.254525 297.906966,284.984886 L306.967676,300.619883 Z" id="Path-6" fill="#DDF7EE" transform="translate(291.869552, 297.402103) rotate(-90.000000) translate(-291.869552, -297.402103) "></path>
                <path d="M125.811187,109.970753 C124.219548,101.285923 125.026776,95.7380899 128.232873,93.3272552 C131.43897,90.9164205 133.415678,89.7629027 134.162999,89.8667017 C137.252539,95.9333454 138.794895,101.059841 138.790066,105.24619 C138.785236,109.432538 138.783425,111.002419 138.784633,109.955832 L125.811187,109.970753 Z" id="Path-3" fill="#F8DAD2" transform="translate(131.904614, 100.065041) rotate(-71.000000) translate(-131.904614, -100.065041) "></path>
                <g id="Group-4" transform="translate(235.274571, 97.000000) rotate(-111.000000) translate(-235.274571, -97.000000) translate(159.774571, 25.000000)">
                    <path d="M39.1929863,43.7435831 C29.938927,48.7260232 25.3118973,57.8433892 25.3118973,71.0956808 C25.3118973,84.3479725 25.3118973,93.2934781 25.3118973,97.9321976 C23.7975631,110.964183 27.7975631,117.480175 37.3118973,117.480175 C51.5833986,117.480175 88.1069955,118.268961 88.1069955,123.28115 C88.1069955,128.293339 102.288955,122.984519 98.4623963,110.458359 C94.6358371,97.9321976 107.577142,65.0956808 111.092854,61.0956808 C114.608566,57.0956808 58.1223981,38.004527 42.8118973,42.7536494 C32.6048968,45.919731 31.3985932,46.2497089 39.1929863,43.7435831 Z" id="Path-5-Copy" fill="#E8E2F8" transform="translate(68.124998, 83.576881) rotate(-285.000000) translate(-68.124998, -83.576881) "></path>
                    <path d="M124.919519,80.7035102 C124.918943,80.7062505 124.918363,80.7089905 124.917779,80.7117301 L121.090414,98.7701029 C120.796285,100.163352 119.638389,101.153969 118.301789,101.153969 L48.5599084,101.153969 L37.0483527,108.686267 C35.1495597,109.930028 35.4995348,111.925216 35.6521823,112.507229 C35.8048297,113.089242 36.478715,114.98677 38.7088653,114.98677 L45.0315155,114.98677 C45.0658859,114.985445 45.1003775,114.984777 45.1349777,114.984777 L67.1535265,114.982783 C67.2025076,114.982783 67.2512711,114.984122 67.2997811,114.98677 L87.8996018,114.98677 C87.9339572,114.985444 87.9684317,114.984776 88.0030123,114.984776 L110.017841,114.982783 C110.066941,114.982783 110.115816,114.984121 110.164431,114.98677 L125.919305,114.98677 C127.497908,114.98677 128.778664,116.358093 128.778664,118.048325 C128.778664,119.738556 127.497905,121.10987 125.919301,121.10987 L113.444162,121.10987 C113.458348,121.392548 113.46545,121.676325 113.46545,121.960966 C113.465451,130.49585 106.97977,137.43816 99.0085655,137.43816 C91.0373608,137.43816 84.5554039,130.495849 84.5554039,121.960967 C84.5554039,121.676218 84.5624945,121.392448 84.5766757,121.10987 L70.5795344,121.10987 C70.5939312,121.392831 70.6011389,121.676607 70.6011389,121.960967 C70.6011394,130.49585 64.1154591,137.43816 56.1442502,137.43816 C48.1730455,137.43816 41.6873652,130.495849 41.6873652,121.960967 C41.6873652,121.676607 41.6945729,121.392831 41.7089696,121.10987 L38.7088653,121.10987 C34.6804467,121.10987 31.2402811,118.319393 30.1456843,114.165567 C29.0548088,110.013742 30.6296891,105.710419 34.0661314,103.462095 L44.513159,96.626724 L41.1414635,80.7183304 C41.141022,80.7162575 41.1405825,80.7141836 41.1401449,80.7121088 C41.1396229,80.7096563 41.1391832,80.7075823 41.1387456,80.7055081 L29.7281283,26.8943099 L26.4002212,12.935003 L17.2636775,12.935003 C15.6850738,12.935003 14.4043192,11.5636829 14.4043192,9.87345014 C14.4043192,8.18321742 15.6850734,6.81189732 17.2636775,6.81189732 L28.6229268,6.81189732 C29.929741,6.81189732 31.0690179,7.76066011 31.3929285,9.1160344 L34.7345691,23.1401794 L133.544253,23.1401794 C134.415463,23.1401794 135.234554,23.5647307 135.778128,24.2922493 C136.321703,25.0197657 136.52648,25.9725142 136.332874,26.8794194 L124.919519,80.7035102 Z M47.5103307,83.0955883 L50.0383309,95.0308607 L116.01952,95.0308607 L118.54752,83.0955883 L47.5103307,83.0955883 Z M47.4431291,121.10987 C47.417199,121.392247 47.4060806,121.676611 47.4060806,121.960967 C47.4060806,127.119372 51.3265298,131.315052 56.1442502,131.315052 C60.9619707,131.315052 64.8824199,127.119372 64.8824199,121.960967 C64.8824199,121.675296 64.8713578,121.391592 64.8455543,121.10987 L47.4431291,121.10987 Z M107.70987,121.10987 L90.3074693,121.10987 C90.2852333,121.390263 90.2741234,121.674627 90.2741234,121.960967 C90.2741234,127.119372 94.1908451,131.315052 99.0085655,131.315052 C103.826286,131.315052 107.746739,127.119372 107.746739,121.960967 C107.746739,121.675296 107.735673,121.391592 107.70987,121.10987 Z M46.2109571,76.9724879 L119.846893,76.9724879 L129.962618,29.2632838 L36.0952344,29.2632838 L46.2109571,76.9724879 Z M80.0094672,64.8040091 C79.9275582,64.8040091 79.8419258,64.8000224 79.7563012,64.7920486 C78.9967794,64.7202947 78.29311,64.3236466 77.8053793,63.6937964 L70.2399958,53.9032039 C69.2347511,52.6016464 69.4060159,50.6702387 70.619753,49.5939095 C71.8372135,48.515591 73.6392072,48.6949759 74.6481716,50.0005244 L80.3668911,57.4032633 L97.1581708,42.1572872 C98.3681882,41.0709954 100.166454,41.2204835 101.190313,42.5140673 C102.210455,43.8036687 102.061524,45.7350764 100.858961,46.8293419 L81.8598624,64.0784841 C81.3386282,64.5488797 80.6833566,64.8040091 80.0094672,64.8040091 Z" id="Combined-Shape-Copy" fill="#7A5ACA" fill-rule="nonzero" transform="translate(75.404319, 72.125029) rotate(100.000000) translate(-75.404319, -72.125029) "></path>
                </g>
                <g id="Group-4-Copy" transform="translate(391.353040, 200.338941) rotate(-129.000000) translate(-391.353040, -200.338941) translate(315.853040, 128.338941)">
                    <path d="M38.8997824,43.5150427 C29.6457231,48.4974829 25.0186934,57.6148488 25.0186934,70.8671404 C25.0186934,84.1194321 25.0186934,93.0649377 25.0186934,97.7036572 C23.5043592,110.735642 27.5043592,117.251635 37.0186934,117.251635 C51.2901947,117.251635 87.8137916,118.040421 87.8137916,123.052609 C87.8137916,128.064798 101.995752,122.755979 98.1691923,110.229818 C94.3426331,97.7036572 107.283938,64.8671404 110.79965,60.8671404 C114.315362,56.8671404 57.8291941,37.7759867 42.5186934,42.525109 C32.3116929,45.6911906 31.1053892,46.0211685 38.8997824,43.5150427 Z" id="Path-5-Copy" fill="#E8E2F8" transform="translate(67.831794, 83.348340) rotate(-285.000000) translate(-67.831794, -83.348340) "></path>
                    <path d="M124.626315,80.4749698 C124.625739,80.4777102 124.625159,80.4804501 124.624576,80.4831897 L120.79721,98.5415625 C120.503081,99.9348117 119.345185,100.925429 118.008585,100.925429 L48.2667045,100.925429 L36.7551487,108.457726 C34.8563558,109.701488 35.2063309,111.696676 35.3589783,112.278689 C35.5116258,112.860701 36.1855111,114.75823 38.4156614,114.75823 L44.7383116,114.75823 C44.772682,114.756904 44.8071736,114.756237 44.8417737,114.756237 L66.8603226,114.754243 C66.9093037,114.754243 66.9580671,114.755581 67.0065772,114.75823 L87.6063978,114.75823 C87.6407533,114.756904 87.6752277,114.756236 87.7098083,114.756236 L109.724637,114.754243 C109.773737,114.754243 109.822612,114.755581 109.871228,114.75823 L125.626101,114.75823 C127.204705,114.75823 128.48546,116.129552 128.48546,117.819784 C128.48546,119.510016 127.204701,120.88133 125.626097,120.88133 L113.150958,120.88133 C113.165144,121.164008 113.172246,121.447785 113.172246,121.732426 C113.172247,130.267309 106.686566,137.20962 98.7153616,137.20962 C90.7441568,137.20962 84.2622,130.267309 84.2622,121.732426 C84.2622,121.447678 84.2692906,121.163908 84.2834718,120.88133 L70.2863305,120.88133 C70.3007273,121.164291 70.307935,121.448066 70.307935,121.732426 C70.3079354,130.267309 63.8222552,137.20962 55.8510463,137.20962 C47.8798416,137.20962 41.3941613,130.267309 41.3941613,121.732426 C41.3941613,121.448066 41.401369,121.164291 41.4157657,120.88133 L38.4156614,120.88133 C34.3872428,120.88133 30.9470771,118.090852 29.8524804,113.937026 C28.7616049,109.785202 30.3364852,105.481879 33.7729275,103.233555 L44.2199551,96.3981836 L40.8482596,80.4897901 C40.8478181,80.4877171 40.8473786,80.4856432 40.8469409,80.4835684 C40.8464189,80.4811159 40.8459793,80.4790419 40.8455417,80.4769677 L29.4349244,26.6657695 L26.1070173,12.7064626 L16.9704736,12.7064626 C15.3918699,12.7064626 14.1111153,11.3351425 14.1111153,9.64490975 C14.1111153,7.95467703 15.3918695,6.58335694 16.9704736,6.58335694 L28.3297229,6.58335694 C29.6365371,6.58335694 30.775814,7.53211973 31.0997246,8.88749402 L34.4413652,22.9116391 L133.251049,22.9116391 C134.12226,22.9116391 134.94135,23.3361904 135.484924,24.0637089 C136.028499,24.7912253 136.233276,25.7439739 136.03967,26.650879 L124.626315,80.4749698 Z M47.2171268,82.8670479 L49.745127,94.8023204 L115.726316,94.8023204 L118.254316,82.8670479 L47.2171268,82.8670479 Z M47.1499251,120.88133 C47.1239951,121.163706 47.1128767,121.448071 47.1128767,121.732427 C47.1128767,126.890832 51.0333259,131.086511 55.8510463,131.086511 C60.6687668,131.086511 64.5892159,126.890832 64.5892159,121.732427 C64.5892159,121.446756 64.5781539,121.163051 64.5523504,120.88133 L47.1499251,120.88133 Z M107.416666,120.88133 L90.0142654,120.88133 C89.9920294,121.161722 89.9809195,121.446087 89.9809195,121.732427 C89.9809195,126.890832 93.8976412,131.086511 98.7153616,131.086511 C103.533082,131.086511 107.453535,126.890832 107.453535,121.732427 C107.453535,121.446756 107.442469,121.163051 107.416666,120.88133 Z M45.9177532,76.7439475 L119.553689,76.7439475 L129.669414,29.0347434 L35.8020305,29.0347434 L45.9177532,76.7439475 Z M79.7162633,64.5754687 C79.6343543,64.5754687 79.5487219,64.571482 79.4630973,64.5635082 C78.7035755,64.4917543 77.9999061,64.0951062 77.5121754,63.465256 L69.9467919,53.6746635 C68.9415472,52.373106 69.112812,50.4416983 70.3265491,49.3653691 C71.5440096,48.2870506 73.3460033,48.4664355 74.3549677,49.7719841 L80.0736872,57.1747229 L96.8649669,41.9287468 C98.0749843,40.842455 99.8732505,40.9919431 100.897109,42.2855269 C101.917252,43.5751283 101.76832,45.506536 100.565757,46.6008015 L81.5666584,63.8499437 C81.0454243,64.3203393 80.3901526,64.5754687 79.7162633,64.5754687 Z" id="Combined-Shape-Copy" fill="#7A5ACA" fill-rule="nonzero" transform="translate(75.111115, 71.896488) rotate(100.000000) translate(-75.111115, -71.896488) "></path>
                </g>
                <g id="Group-2" transform="translate(0.000000, 132.712185)" fill="#7A5ACA" fill-rule="nonzero">
                    <path d="M120.929979,83.4918985 C120.929403,83.4946388 120.928823,83.4973788 120.928239,83.5001183 L117.100874,101.558491 C116.806745,102.95174 115.648849,103.942358 114.312249,103.942358 L44.5703684,103.942358 L33.0588127,111.474655 C31.1600197,112.718416 31.5099948,114.713605 31.6626423,115.295617 C31.8152897,115.87763 32.489175,117.775159 34.7193253,117.775159 L41.0419755,117.775159 C41.0763459,117.773833 41.1108375,117.773165 41.1454377,117.773165 L63.1639865,117.771172 C63.2129676,117.771172 63.2617311,117.77251 63.3102411,117.775159 L83.9100618,117.775159 C83.9444172,117.773833 83.9788917,117.773165 84.0134723,117.773165 L106.028301,117.771171 C106.077401,117.771171 106.126276,117.77251 106.174891,117.775159 L121.929765,117.775159 C123.508368,117.775159 124.789124,119.146481 124.789124,120.836713 C124.789124,122.526945 123.508365,123.898259 121.929761,123.898259 L109.454622,123.898259 C109.468808,124.180936 109.47591,124.464713 109.47591,124.749354 C109.475911,133.284238 102.99023,140.226548 95.0190255,140.226548 C87.0478208,140.226548 80.5658639,133.284238 80.5658639,124.749355 C80.5658639,124.464607 80.5729545,124.180836 80.5871357,123.898259 L66.5899944,123.898259 C66.6043912,124.181219 66.6115989,124.464995 66.6115989,124.749355 C66.6115994,133.284238 60.1259191,140.226548 52.1547102,140.226548 C44.1835055,140.226548 37.6978252,133.284238 37.6978252,124.749355 C37.6978252,124.464995 37.7050329,124.181219 37.7194296,123.898259 L34.7193253,123.898259 C30.6909067,123.898259 27.2507411,121.107781 26.1561443,116.953955 C25.0652688,112.80213 26.6401491,108.498808 30.0765914,106.250484 L40.523619,99.4151123 L37.1519235,83.5067187 C37.151482,83.5046458 37.1510425,83.5025719 37.1506049,83.5004971 C37.1500829,83.4980446 37.1496432,83.4959706 37.1492056,83.4938964 L25.7385883,29.6826982 L22.4106812,15.7233912 L13.2741375,15.7233912 C11.6955338,15.7233912 10.4147792,14.3520712 10.4147792,12.6618384 C10.4147792,10.9716057 11.6955334,9.60028562 13.2741375,9.60028562 L24.6333868,9.60028562 C25.940201,9.60028562 27.0794779,10.5490484 27.4033885,11.9044227 L30.7450291,25.9285677 L129.554713,25.9285677 C130.425923,25.9285677 131.245014,26.353119 131.788588,27.0806376 C132.332163,27.808154 132.53694,28.7609025 132.343334,29.6678077 L120.929979,83.4918985 Z M43.5207907,85.8839766 L46.0487909,97.819249 L112.02998,97.819249 L114.55798,85.8839766 L43.5207907,85.8839766 Z M43.4535891,123.898259 C43.427659,124.180635 43.4165406,124.464999 43.4165406,124.749355 C43.4165406,129.907761 47.3369898,134.10344 52.1547102,134.10344 C56.9724307,134.10344 60.8928799,129.907761 60.8928799,124.749355 C60.8928799,124.463685 60.8818178,124.17998 60.8560143,123.898259 L43.4535891,123.898259 Z M103.72033,123.898259 L86.3179293,123.898259 C86.2956933,124.178651 86.2845834,124.463015 86.2845834,124.749355 C86.2845834,129.907761 90.2013051,134.10344 95.0190255,134.10344 C99.836746,134.10344 103.757199,129.907761 103.757199,124.749355 C103.757199,124.463685 103.746133,124.17998 103.72033,123.898259 Z M42.2214171,79.7608762 L115.857353,79.7608762 L125.973078,32.0516721 L32.1056944,32.0516721 L42.2214171,79.7608762 Z M76.0199272,67.5923974 C75.9380182,67.5923974 75.8523858,67.5884107 75.7667612,67.5804369 C75.0072394,67.508683 74.30357,67.1120349 73.8158393,66.4821847 L66.2504558,56.6915922 C65.2452111,55.3900347 65.4164759,53.458627 66.630213,52.3822978 C67.8476735,51.3039793 69.6496672,51.4833642 70.6586316,52.7889127 L76.3773511,60.1916516 L93.1686308,44.9456755 C94.3786482,43.8593837 96.1769145,44.0088718 97.2007728,45.3024556 C98.2209154,46.592057 98.0719836,48.5234647 96.8694211,49.6177302 L77.8703224,66.8668724 C77.3490882,67.337268 76.6938166,67.5923974 76.0199272,67.5923974 Z" id="Combined-Shape" transform="translate(71.414779, 74.913417) rotate(10.000000) translate(-71.414779, -74.913417) "></path>
                </g>
                <path d="" id="Path-2" stroke="#979797"></path>
                <path d="" id="Path-4" stroke="#979797"></path>
            </g>
        </g>
    </g>
</svg>