<?xml version="1.0" encoding="UTF-8"?>
<svg width="20px" height="20px" viewBox="0 0 20 20" version="1.1" xmlns="http://www.w3.org/2000/svg" xmlns:xlink="http://www.w3.org/1999/xlink">
    <!-- Generator: sketchtool 53.2 (72643) - https://sketchapp.com -->
    <title>408D825D-861F-4145-9D26-89E090457012</title>
    <desc>Created with sketchtool.</desc>
    <g id="Empty-States" stroke="none" stroke-width="1" fill="none" fill-rule="evenodd">
        <g id="2.Product---Empty-States-" transform="translate(-329.000000, -165.000000)" fill="#352E47" fill-rule="nonzero">
            <g id="Group-8" transform="translate(309.000000, 150.000000)">
                <g id="Stacked-Group">
                    <g id="Group-10">
                        <g id="Group-9" transform="translate(20.000000, 12.000000)">
                            <g id="Icon-/-Anchor-/-Customer---B80" transform="translate(0.000000, 3.000000)">
                                <path d="M10.7692308,18.4270438 C14.8285677,18.0612374 18.0612374,14.8285677 18.4270438,10.7692308 L16.4615385,10.7692308 C16.036704,10.7692308 15.6923077,10.4248344 15.6923077,10 C15.6923077,9.57516558 16.036704,9.23076923 16.4615385,9.23076923 L19.2307692,9.23076923 C19.6556037,9.23076923 20,9.57516558 20,10 C20,15.5228475 15.5228475,20 10,20 C4.4771525,20 2.22044605e-15,15.5228475 0,10 C-1.70803542e-16,9.57516558 0.344396346,9.23076923 0.769230769,9.23076923 L3.53846154,9.23076923 C3.96329596,9.23076923 4.30769231,9.57516558 4.30769231,10 C4.30769231,10.4248344 3.96329596,10.7692308 3.53846154,10.7692308 L1.57295617,10.7692308 C1.93876261,14.8285677 5.17143232,18.0612374 9.23076923,18.4270438 L9.23076923,6.99307549 C7.64640413,6.6418552 6.46153846,5.22852847 6.46153846,3.53846154 C6.46153846,1.58422319 8.04576165,-9.05941988e-14 10,-9.05941988e-14 C11.9542383,-9.05941988e-14 13.5384615,1.58422319 13.5384615,3.53846154 C13.5384615,5.22852847 12.3535959,6.6418552 10.7692308,6.99307549 L10.7692308,18.4270438 Z M10,5.53846154 C11.1045695,5.53846154 12,4.64303104 12,3.53846154 C12,2.43389204 11.1045695,1.53846154 10,1.53846154 C8.8954305,1.53846154 8,2.43389204 8,3.53846154 C8,4.64303104 8.8954305,5.53846154 10,5.53846154 Z" id="Icon-/-Analytic-/-Customer"></path>
                            </g>
                        </g>
                    </g>
                </g>
            </g>
        </g>
    </g>
</svg>