<?xml version="1.0" encoding="UTF-8"?>
<svg width="13px" height="16px" viewBox="0 0 13 16" version="1.1" xmlns="http://www.w3.org/2000/svg" xmlns:xlink="http://www.w3.org/1999/xlink">
    <!-- Generator: sketchtool 52.5 (67469) - http://www.bohemiancoding.com/sketch -->
    <title>2AEB7E1F-B611-45AB-9F0E-7756CE07D4AB</title>
    <desc>Created with sketchtool.</desc>
    <g id="Icons" stroke="none" stroke-width="1" fill="none" fill-rule="evenodd">
        <g transform="translate(-100.000000, -2619.000000)" fill="#B9C0C8" id="Stacked-Group">
            <g transform="translate(100.000000, 240.000000)">
                <g id="Stacked-Group-2-Copy-6" transform="translate(0.000000, 2327.000000)">
                    <g id="Stacked-Group" transform="translate(0.000000, 52.000000)">
                        <path d="M3.24231678,0 L3.22695035,0 C3.45232579,0 3.6418432,0.0362455922 3.79550827,0.108737864 C3.94917335,0.181230136 4.09259193,0.279611029 4.22576832,0.403883495 C4.35894472,0.528155961 4.45626447,0.678316272 4.5177305,0.854368932 C4.57919652,1.03042159 4.62017326,1.21164955 4.64066194,1.39805825 L4.60992908,11.3708738 L2.36643026,16 L0,11.3708738 L0.0307328605,1.39805825 C0.0102441844,1.21164955 0.0409767376,1.03042159 0.122931442,0.854368932 C0.204886147,0.678316272 0.307327991,0.528155961 0.430260047,0.403883495 C0.553192104,0.279611029 0.701732778,0.181230136 0.875886525,0.108737864 C1.05004027,0.0362455922 1.2293135,0 1.41371158,0 L3.24231678,0 Z M1.44444444,0.932038835 C1.34200106,0.932038835 1.27029177,0.942394718 1.22931442,0.963106796 C1.18833707,0.983818874 1.14223824,1.02006447 1.09101655,1.07184466 C1.03979486,1.12362485 1.00394021,1.17540427 0.983451537,1.22718447 C0.962962861,1.27896466 0.942474492,1.33592202 0.921985816,1.39805825 L0.952718676,2.36116505 L3.68794326,2.36116505 L3.71867612,1.39805825 C3.69818745,1.33592202 3.68282117,1.27896466 3.67257683,1.22718447 C3.66233249,1.17540427 3.63159994,1.12362485 3.58037825,1.07184466 C3.52915656,1.02006447 3.47793564,0.983818874 3.42671395,0.963106796 C3.37549226,0.942394718 3.30890506,0.932038835 3.22695035,0.932038835 L1.44444444,0.932038835 Z M0.921985816,4.25631068 L3.71867612,4.25631068 L3.68794326,3.29320388 L0.952718676,3.29320388 L0.921985816,4.25631068 Z M2.76595745,13.1106796 L3.68794326,11.1533981 L3.71867612,5.18834951 L2.79669031,5.18834951 L2.82742317,11.2466019 L1.87470449,11.2466019 L1.90543735,5.18834951 L0.921985816,5.18834951 L0.952718676,11.1533981 L1.93617021,13.1106796 L2.76595745,13.1106796 Z M6.48463357,0 L13,0 L12.9692671,15.9067961 L6.51536643,15.9067961 L6.48463357,0 Z M12.0780142,14.9747573 L12.0472813,0.932038835 L7.43735225,0.932038835 L7.40661939,1.86407767 L9.28132388,1.86407767 L9.25059102,2.7961165 L7.43735225,2.7961165 L7.40661939,3.72815534 L8.35933806,3.72815534 L8.3286052,4.69126214 L7.43735225,4.69126214 L7.40661939,5.62330097 L9.28132388,5.62330097 L9.25059102,6.55533981 L7.43735225,6.55533981 L7.40661939,7.48737864 L8.35933806,7.48737864 L8.3286052,8.45048544 L7.43735225,8.45048544 L7.40661939,9.35145631 L9.28132388,9.35145631 L9.25059102,10.2834951 L7.43735225,10.2834951 L7.40661939,11.215534 L8.35933806,11.215534 L8.3286052,12.1786408 L7.43735225,12.1786408 L7.40661939,13.1106796 L9.28132388,13.1106796 L9.25059102,14.0427184 L7.43735225,14.0427184 L7.40661939,14.9747573 L12.0780142,14.9747573 Z" id="Icon-/-Themes-/-Pilih-Tema-Lain---N20"></path>
                    </g>
                </g>
            </g>
        </g>
    </g>
</svg>