<?xml version="1.0" encoding="UTF-8"?>
<svg width="20px" height="20px" viewBox="0 0 20 20" version="1.1" xmlns="http://www.w3.org/2000/svg" xmlns:xlink="http://www.w3.org/1999/xlink">
    <!-- Generator: sketchtool 52.5 (67469) - http://www.bohemiancoding.com/sketch -->
    <title>A053DC42-8A51-42F5-999E-202241AFCA86</title>
    <desc>Created with sketchtool.</desc>
    <g id="Icons" stroke="none" stroke-width="1" fill="none" fill-rule="evenodd">
        <g transform="translate(-569.000000, -308.000000)" fill="#7A5ACA" fill-rule="nonzero" id="Stacked-Group">
            <g transform="translate(100.000000, 240.000000)">
                <g id="Stacked-Group-2">
                    <g transform="translate(0.000000, 68.000000)">
                        <g>
                            <g transform="translate(329.000000, 0.000000)">
                                <g>
                                    <g id="Icon-/-Main-Nav-/-Comments---Active" transform="translate(140.000000, 0.000000)">
                                        <path d="M20,1.74957719 L20,11.0444976 C20,12.0090978 19.2082353,12.7940748 18.2352941,12.7940748 L17.6376471,12.7940748 L17.6376471,11.62769 L18.2352941,11.62769 C18.56,11.62769 18.8235294,11.3652534 18.8235294,11.0444976 L18.8235294,1.74957719 C18.8235294,1.42882137 18.56,1.16638479 18.2352941,1.16638479 L1.76470588,1.16638479 C1.44,1.16638479 1.17647059,1.42882137 1.17647059,1.74957719 L1.17647059,11.0444976 C1.17647059,11.3652534 1.44,11.62769 1.76470588,11.62769 L3.52941176,11.62769 L3.52941176,15.0008748 L5.62235294,13.1708171 L6.4,14.0456056 L2.35294118,17.5855835 L2.35294118,12.7940748 L1.76470588,12.7940748 C0.791764706,12.7940748 0,12.0090978 0,11.0444976 L0,1.74957719 C0,0.784976964 0.791764706,0 1.76470588,0 L18.2352941,0 C19.2082353,0 20,0.784976964 20,1.74957719 Z M16.4941176,11.1273109 L16.4941176,14.6766198 C16.4941176,15.64122 15.7023529,16.426197 14.7294118,16.426197 L14.1411765,16.426197 L14.1411765,20 L9.82705882,16.426197 L8.82352941,16.426197 C7.85058824,16.426197 7.05882353,15.64122 7.05882353,14.6766198 L7.05882353,11.1273109 C7.05882353,10.1627107 7.85058824,9.37773371 8.82352941,9.37773371 L14.7294118,9.37773371 C15.7023529,9.37773371 16.4941176,10.1627107 16.4941176,11.1273109 Z M15.3176471,11.1273109 C15.3176471,10.8065551 15.0541176,10.5441185 14.7294118,10.5441185 L8.82352941,10.5441185 C8.49882353,10.5441185 8.23529412,10.8065551 8.23529412,11.1273109 L8.23529412,14.6766198 C8.23529412,14.9973756 8.49882353,15.2598122 8.82352941,15.2598122 L10.2552941,15.2598122 L12.9647059,17.5062693 L12.9647059,15.2598122 L14.7294118,15.2598122 C15.0541176,15.2598122 15.3176471,14.9973756 15.3176471,14.6766198 L15.3176471,11.1273109 Z"></path>
                                    </g>
                                </g>
                            </g>
                        </g>
                    </g>
                </g>
            </g>
        </g>
    </g>
</svg>