<?xml version="1.0" encoding="UTF-8"?>
<svg width="13px" height="18px" viewBox="0 0 13 18" version="1.1" xmlns="http://www.w3.org/2000/svg" xmlns:xlink="http://www.w3.org/1999/xlink">
    <!-- Generator: sketchtool 52.5 (67469) - http://www.bohemiancoding.com/sketch -->
    <title>690AA7B2-FC7F-4761-BD73-E4564593AE37</title>
    <desc>Created with sketchtool.</desc>
    <g id="Icons" stroke="none" stroke-width="1" fill="none" fill-rule="evenodd">
        <g transform="translate(-200.000000, -1127.000000)" fill="#F05598" id="Stacked-Group">
            <g transform="translate(100.000000, 240.000000)">
                <g id="Stacked-Group-Copy-2" transform="translate(0.000000, 806.000000)">
                    <g id="Stacked-Group" transform="translate(0.000000, 70.000000)">
                        <path d="M113,12.7730193 L113,13.9293362 L100,13.9293362 L100,12.7730193 L104.228916,12.7730193 C104.281125,12.5160587 104.379015,12.2783737 104.52259,12.0599572 C104.666165,11.8415407 104.842368,11.655247 105.051205,11.5010707 C105.260041,11.3468943 105.488453,11.2248399 105.736446,11.1349036 C105.984439,11.0449674 106.238955,11 106.5,11 C106.78715,11 107.054718,11.0449674 107.302711,11.1349036 C107.550704,11.2248399 107.772589,11.3468943 107.968373,11.5010707 C108.164158,11.655247 108.333835,11.8415407 108.47741,12.0599572 C108.620985,12.2783737 108.718875,12.5160587 108.771084,12.7730193 L113,12.7730193 Z M106.5,12.1563169 C106.395582,12.1563169 106.291165,12.1691648 106.186747,12.1948608 C106.082329,12.2205569 105.990964,12.2655243 105.912651,12.3297645 L105.677711,12.5224839 C105.599397,12.5867241 105.534137,12.670235 105.481928,12.7730193 L107.518072,12.7730193 C107.465863,12.670235 107.407129,12.5867241 107.341867,12.5224839 C107.276606,12.4582438 107.198294,12.4004285 107.106928,12.3490364 C107.015562,12.2976443 106.917671,12.2526769 106.813253,12.2141328 C106.708835,12.1755887 106.604418,12.1563169 106.5,12.1563169 Z M111.237952,15.0471092 L112.412651,15.0471092 L112.412651,27.2655246 C112.412651,27.5224852 112.366968,27.7537463 112.275602,27.9593148 C112.184236,28.1648833 112.053716,28.344753 111.884036,28.4989293 C111.714357,28.6531057 111.525101,28.7751601 111.316265,28.8650964 C111.107429,28.9550326 110.872491,29 110.611446,29 L102.388554,29 C102.127509,29 101.892571,28.9550326 101.683735,28.8650964 C101.474899,28.7751601 101.292169,28.6531057 101.135542,28.4989293 C100.978915,28.344753 100.848394,28.1648833 100.743976,27.9593148 C100.639558,27.7537463 100.587349,27.5224852 100.587349,27.2655246 L100.587349,15.0471092 L101.801205,15.0471092 L101.801205,27.2655246 C101.801205,27.3426128 101.814257,27.4196998 101.840361,27.496788 C101.866466,27.5738762 101.905622,27.6381154 101.957831,27.6895075 C102.01004,27.7408996 102.075301,27.7794431 102.153614,27.8051392 C102.231928,27.8308352 102.310241,27.8436831 102.388554,27.8436831 L110.611446,27.8436831 C110.715864,27.8436831 110.800702,27.8308352 110.865964,27.8051392 C110.931225,27.7794431 110.98996,27.7408996 111.042169,27.6895075 C111.094378,27.6381154 111.14006,27.5738762 111.179217,27.496788 C111.218374,27.4196998 111.237952,27.3426128 111.237952,27.2655246 L111.237952,15.0471092 Z M105.325301,16.24197 L105.325301,25.5310493 L104.150602,25.5310493 L104.150602,16.24197 L105.325301,16.24197 Z M108.849398,16.24197 L108.849398,25.5310493 L107.674699,25.5310493 L107.674699,16.24197 L108.849398,16.24197 Z" id="Icon-/-General-/-Delete---R20"></path>
                    </g>
                </g>
            </g>
        </g>
    </g>
</svg>