<?xml version="1.0" encoding="UTF-8"?>
<svg width="10px" height="16px" viewBox="0 0 10 16" version="1.1" xmlns="http://www.w3.org/2000/svg" xmlns:xlink="http://www.w3.org/1999/xlink">
    <!-- Generator: sketchtool 52.5 (67469) - http://www.bohemiancoding.com/sketch -->
    <title>6D1BE23A-39CC-4DB9-9FFD-36AE0F351BEE</title>
    <desc>Created with sketchtool.</desc>
    <g id="Icons" stroke="none" stroke-width="1" fill="none" fill-rule="evenodd">
        <g transform="translate(-421.000000, -1828.000000)" fill="#B9C0C8" id="Stacked-Group">
            <g transform="translate(100.000000, 240.000000)">
                <g id="Stacked-Group-2-Copy-2" transform="translate(0.000000, 1532.000000)">
                    <g id="Stacked-Group" transform="translate(0.000000, 52.000000)">
                        <path d="M321,4 L325,4 L325,8 L321,8 L321,4 Z M327,4 L331,4 L331,8 L327,8 L327,4 Z M321,10 L325,10 L325,14 L321,14 L321,10 Z M327,10 L331,10 L331,14 L327,14 L327,10 Z M321,16 L325,16 L325,20 L321,20 L321,16 Z M327,16 L331,16 L331,20 L327,20 L327,16 Z" id="draggable-icon"></path>
                    </g>
                </g>
            </g>
        </g>
    </g>
</svg>