<?xml version="1.0" encoding="UTF-8"?>
<svg width="18px" height="18px" viewBox="0 0 18 18" version="1.1" xmlns="http://www.w3.org/2000/svg" xmlns:xlink="http://www.w3.org/1999/xlink">
    <!-- Generator: sketchtool 52.5 (67469) - http://www.bohemiancoding.com/sketch -->
    <title>D8E83B14-EB48-4C57-A3B5-D3B404402F37</title>
    <desc>Created with sketchtool.</desc>
    <g id="Icons" stroke="none" stroke-width="1" fill="none" fill-rule="evenodd">
        <g transform="translate(-160.000000, -1326.000000)" fill="#FFFFFF" id="Stacked-Group">
            <g transform="translate(100.000000, 240.000000)">
                <g id="Stacked-Group-Copy-3" transform="translate(0.000000, 1016.000000)">
                    <g id="Stacked-Group" transform="translate(0.000000, 70.000000)">
                        <path d="M78,8.33203125 L78,16.875 C78,17.179689 77.888673,17.4433583 77.6660156,17.6660156 C77.4433583,17.888673 77.179689,18 76.875,18 L61.125,18 C60.820311,18 60.5566417,17.888673 60.3339844,17.6660156 C60.111327,17.4433583 60,17.179689 60,16.875 L60,8.4375 C60,8.03906051 60.1640609,7.73437605 60.4921875,7.5234375 L63.375,4.640625 L63.375,2.77734375 C63.375,2.63671805 63.4277338,2.50781309 63.5332031,2.390625 C63.6386724,2.27343691 63.7734367,2.21484375 63.9375,2.21484375 L65.8007812,2.21484375 L67.8398438,0.4921875 C68.1679704,0.164060859 68.5664039,0 69.0351562,0 C69.5039086,0 69.9023421,0.164060859 70.2304688,0.4921875 L72.2695312,2.21484375 L74.0625,2.21484375 C74.2265633,2.21484375 74.3613276,2.27343691 74.4667969,2.390625 C74.5722662,2.50781309 74.625,2.63671805 74.625,2.77734375 L74.625,4.60546875 L77.578125,7.55859375 C77.6484379,7.6289066 77.707031,7.6992184 77.7539062,7.76953125 L77.7890625,7.76953125 C77.9062506,7.93359457 77.9765624,8.1210927 78,8.33203125 Z M64.7109375,12.7617188 L61.125,9.5625 L61.125,16.1015625 L64.7109375,12.7617188 Z M65.8007812,13.2890625 L61.9335938,16.875 L76.1367188,16.875 L69.3867188,10.7578125 C69.2695307,10.664062 69.1171884,10.6171875 68.9296875,10.6171875 C68.7890618,10.6171875 68.6484382,10.6757807 68.5078125,10.7929688 L66.0820312,13.0429688 C66.0585936,13.0664064 66.0351564,13.1015623 66.0117188,13.1484375 C65.9648435,13.1953127 65.8945317,13.2421873 65.8007812,13.2890625 Z M73.3242188,12.8320312 L76.875,16.03125 L76.875,9.66796875 L73.3242188,12.8320312 Z M75.7851562,7.3125 L74.625,6.15234375 L74.625,10.1601562 L76.734375,8.296875 L75.75,7.3125 L75.7851562,7.3125 Z M68.6484375,1.265625 L67.4882812,2.21484375 L70.5820312,2.21484375 L69.421875,1.265625 C69.3281245,1.14843691 69.1992196,1.08984375 69.0351562,1.08984375 C68.8710929,1.08984375 68.742188,1.14843691 68.6484375,1.265625 Z M73.5,3.33984375 L64.5,3.33984375 L64.5,11.0390625 L65.5546875,11.9882812 L67.7695312,9.9140625 C68.1210955,9.63281109 68.5136697,9.4921875 68.9472656,9.4921875 C69.3808615,9.4921875 69.7617171,9.62109246 70.0898438,9.87890625 L72.4804688,12.0585938 L73.5,11.1796875 L73.5,3.33984375 Z M61.828125,7.76953125 L61.7929688,7.76953125 L61.3359375,8.26171875 L63.375,10.0546875 L63.375,6.22265625 L61.828125,7.76953125 Z" id="Icon-/-Progresses-/-2---N0"></path>
                    </g>
                </g>
            </g>
        </g>
    </g>
</svg>