<?xml version="1.0" encoding="UTF-8"?>
<svg width="16px" height="16px" viewBox="0 0 16 16" version="1.1" xmlns="http://www.w3.org/2000/svg" xmlns:xlink="http://www.w3.org/1999/xlink">
    <!-- Generator: sketchtool 52.5 (67469) - http://www.bohemiancoding.com/sketch -->
    <title>8208BB85-C998-4B78-AF9D-B82DF02AA7AD</title>
    <desc>Created with sketchtool.</desc>
    <g id="Icons" stroke="none" stroke-width="1" fill="none" fill-rule="evenodd">
        <g transform="translate(-163.000000, -2619.000000)" fill="#B9C0C8" id="Stacked-Group">
            <g transform="translate(100.000000, 240.000000)">
                <g id="Stacked-Group-2-Copy-6" transform="translate(0.000000, 2327.000000)">
                    <g id="Stacked-Group" transform="translate(0.000000, 52.000000)">
                        <path d="M79,6.5 C79,7.14583656 78.8854178,7.58333219 78.65625,7.8125 L70.75,15.71875 C70.5624991,15.9062509 70.3281264,16 70.046875,16 C69.7656236,16 69.5312509,15.9062509 69.34375,15.71875 L63.28125,9.65625 C63.0937491,9.46874906 63,9.23437641 63,8.953125 C63,8.67187359 63.0937491,8.43750094 63.28125,8.25 L71.1875,0.34375 C71.4166678,0.114582187 71.8124972,0 72.375,0 L77.78125,0 C78.114585,0 78.4010405,0.119790469 78.640625,0.359375 C78.8802095,0.598959531 79,0.885415 79,1.21875 L79,6.5 Z M77.96875,7.09375 C77.9895834,7.03124969 78,6.833335 78,6.5 L78,1.21875 C78,1.07291594 77.9270841,1 77.78125,1 L72.375,1 C72.1041653,1 71.9479169,1.02083312 71.90625,1.0625 L64,8.9375 L70.03125,15 L77.96875,7.09375 Z M76.40625,2.59375 C76.8020853,2.96875187 77,3.43749719 77,4 C77,4.56250281 76.8072936,5.03645641 76.421875,5.421875 C76.0364564,5.80729359 75.5677111,6 75.015625,6 C74.4635389,6 73.9895853,5.80729359 73.59375,5.421875 C73.1979147,5.03645641 73,4.56250281 73,4 C73,3.43749719 73.1979147,2.96354359 73.59375,2.578125 C73.9895853,2.19270641 74.4635389,2 75.015625,2 C75.5677111,2 76.0312481,2.19791469 76.40625,2.59375 Z M75.6875,4.71875 C75.8958344,4.51041563 76,4.27083469 76,4 C76,3.72916531 75.9010427,3.49479266 75.703125,3.296875 C75.5052073,3.09895734 75.2708347,3 75,3 C74.7291653,3 74.4947927,3.09895734 74.296875,3.296875 C74.0989573,3.49479266 74,3.72916531 74,4 C74,4.27083469 74.0989573,4.50520734 74.296875,4.703125 C74.4947927,4.90104266 74.7291653,5 75,5 C75.2708347,5 75.4999991,4.90625094 75.6875,4.71875 Z" id="Icon-/-Themes-/-Price-Tag---N20"></path>
                    </g>
                </g>
            </g>
        </g>
    </g>
</svg>