<?xml version="1.0" encoding="UTF-8"?>
<svg width="40px" height="40px" viewBox="0 0 40 40" version="1.1" xmlns="http://www.w3.org/2000/svg" xmlns:xlink="http://www.w3.org/1999/xlink">
    <!-- Generator: sketchtool 53.2 (72643) - https://sketchapp.com -->
    <title>C92A3D4B-0003-482F-A5DF-FB8D5FCB3AAD</title>
    <desc>Created with sketchtool.</desc>
    <g id="Dashboard" stroke="none" stroke-width="1" fill="none" fill-rule="evenodd">
        <g id="9.Order-Detail---delivered" transform="translate(-360.000000, -1095.000000)">
            <g id="left" transform="translate(310.000000, 270.000000)">
                <g id="acts" transform="translate(50.000000, 545.000000)">
                    <g id="order" transform="translate(0.000000, 280.000000)">
                        <g id="icon-pembayaran">
                            <circle id="Oval-3" fill="#10A273" cx="20" cy="20" r="20"></circle>
                            <path d="M29.0351563,16.2226562 L29.0351563,26.59375 C29.0351563,27.0625023 28.8710954,27.4609359 28.5429688,27.7890625 C28.2148421,28.1171891 27.8164086,28.28125 27.3476563,28.28125 L12.7226562,28.28125 C12.2539039,28.28125 11.8554704,28.1171891 11.5273438,27.7890625 C11.1992171,27.4609359 11.0351562,27.0625023 11.0351562,26.59375 L11.0351562,17.59375 C11.0351562,17.1249977 11.1992171,16.7265641 11.5273438,16.3984375 C11.8554704,16.0703109 12.2539039,15.90625 12.7226562,15.90625 L13.2851562,15.90625 L13.2851562,13.65625 C13.2851562,13.1874977 13.4492171,12.7890641 13.7773438,12.4609375 C14.1054704,12.1328109 14.5039039,11.96875 14.9726562,11.96875 L15.078125,11.96875 L27.6640625,14.5 C28.6015672,14.7578138 29.0585939,15.3320268 29.0351563,16.2226562 Z M14.4101562,13.65625 L14.4101562,15.90625 L26.7851562,15.90625 C26.925782,15.90625 27.037109,15.8828127 27.1191406,15.8359375 C27.2011723,15.7890623 27.2597654,15.7421877 27.2949219,15.6953125 C27.3300783,15.6484373 27.3359376,15.6132814 27.3125,15.5898438 L14.9023438,13.09375 C14.761718,13.09375 14.6445317,13.1523432 14.5507812,13.2695312 C14.4570308,13.3867193 14.4101562,13.5156243 14.4101562,13.65625 Z M27.9101562,26.59375 L27.9101562,16.46875 C27.9101562,16.6562509 27.7988292,16.7968745 27.5761719,16.890625 C27.3535145,16.9843755 27.0898453,17.03125 26.7851562,17.03125 L12.7226562,17.03125 C12.5585929,17.03125 12.4238287,17.0898432 12.3183594,17.2070312 C12.2128901,17.3242193 12.1601562,17.4531243 12.1601562,17.59375 L12.1601562,26.59375 C12.1601562,26.7578133 12.2128901,26.8925776 12.3183594,26.9980469 C12.4238287,27.1035162 12.5585929,27.15625 12.7226562,27.15625 L27.3476562,27.15625 C27.5117196,27.15625 27.6464838,27.1035162 27.7519531,26.9980469 C27.8574224,26.8925776 27.9101562,26.7578133 27.9101562,26.59375 Z M15.1835938,21.3203125 C15.4179699,21.5312511 15.5351562,21.7949203 15.5351562,22.1113281 C15.5351562,22.427736 15.4238292,22.6914052 15.2011719,22.9023438 C14.9785145,23.1132823 14.7148453,23.21875 14.4101562,23.21875 C14.1054672,23.21875 13.841798,23.1132823 13.6191406,22.9023438 C13.3964833,22.6914052 13.2851562,22.427736 13.2851562,22.1113281 C13.2851562,21.7949203 13.3964833,21.5253917 13.6191406,21.3027344 C13.841798,21.080077 14.1054672,20.96875 14.4101562,20.96875 C14.7148453,20.96875 14.9726552,21.0859363 15.1835938,21.3203125 Z" id="" fill="#FFFFFF"></path>
                        </g>
                    </g>
                </g>
            </g>
        </g>
    </g>
</svg>