<?xml version="1.0" encoding="UTF-8"?>
<svg width="47px" height="47px" viewBox="0 0 47 47" version="1.1" xmlns="http://www.w3.org/2000/svg" xmlns:xlink="http://www.w3.org/1999/xlink">
    <!-- Generator: sketchtool 52.5 (67469) - http://www.bohemiancoding.com/sketch -->
    <title>F599A605-69E5-49C8-94C9-45ECF5470E30</title>
    <desc>Created with sketchtool.</desc>
    <g id="Icons" stroke="none" stroke-width="1" fill="none" fill-rule="evenodd">
        <g transform="translate(-811.000000, -2192.000000)" fill="#7A5ACA" fill-rule="nonzero" id="Stacked-Group">
            <g transform="translate(100.000000, 240.000000)">
                <g id="Stacked-Group-2-Copy-12" transform="translate(0.000000, 1896.000000)">
                    <g id="Stacked-Group" transform="translate(0.000000, 52.000000)">
                        <g id="Icon-/-Shipping-Tab-/-Rate-by-Order-Price---Primary" transform="translate(711.000000, 4.000000)">
                            <path d="M44.4093478,20.6441 C46.0679665,22.2999246 47,24.5473532 47,26.890985 C47,29.2346169 46.0679665,31.4820455 44.4093478,33.1378701 L33.1374649,44.4094236 C31.4815919,46.0679938 29.2340976,47 26.8903972,47 C24.5466969,47 22.2992025,46.0679938 20.6433296,44.4094236 L0.408262572,24.1749481 C0.135272399,23.9078372 -0.0126176248,23.5381229 0.000845115771,23.1564342 L0.544068391,1.83554389 C0.578173167,1.13764571 1.13630508,0.579530105 1.83422367,0.545426325 L23.1557372,0.00221892937 C23.5389564,-0.0202686649 23.9122864,0.129058949 24.1742808,0.409624476 L44.4093478,20.6441 Z M42.5080664,31.1687433 C44.8820503,28.7844016 44.8820503,24.9296675 42.5080664,22.5453259 L22.6125139,2.78615683 L3.19228186,3.26146331 L2.71696149,22.6811277 L22.544611,42.5081977 C24.9290224,44.8821122 28.7838692,44.8821122 31.1682805,42.5081977 L42.5080664,31.1687433 Z M21.797679,11.6811779 C24.5598236,14.4615912 24.5598236,18.9501015 21.797679,21.7305148 C19.7623028,23.7793528 16.6919522,24.3979948 14.0219311,23.2972425 C11.35191,22.1964903 9.60967648,19.5937957 9.60967648,16.7058464 C9.60967648,13.817897 11.35191,11.2152024 14.0219311,10.1144502 C16.6919522,9.01369796 19.7623028,9.63233988 21.797679,11.6811779 Z M19.8963976,19.8292889 L19.8963976,19.8971898 C20.7467071,19.0666992 21.2261058,17.9283669 21.2261058,16.7397968 C21.2261058,15.5512268 20.7467071,14.4128944 19.8963976,13.5824038 C18.1719911,11.8609023 15.3787273,11.8624449 13.6562234,13.58585 C11.9337194,15.3092551 11.9337194,18.1024377 13.6562234,19.8258427 C15.3787273,21.5492478 18.1719911,21.5507904 19.8963976,19.8292889 Z M30.7608631,22.2737222 C31.2784773,22.8017788 31.2784773,23.6468914 30.7608631,24.1749481 L24.1742808,30.7613377 C23.8554489,31.1864346 23.3179678,31.3865305 22.798759,31.2734232 C22.2795503,31.160316 21.8740095,30.754787 21.7608989,30.2355935 C21.6477883,29.7163999 21.8478901,29.1789345 22.2729994,28.8601118 L28.8595816,22.2737222 C29.3876537,21.7561231 30.2327909,21.7561231 30.7608631,22.2737222 Z M33.6806882,27.0946878 C34.2213587,26.6891968 34.9779255,26.7429627 35.4558152,27.2208385 C35.933705,27.6987143 35.9874725,28.455259 35.5819696,28.9959137 L28.9953874,35.5823034 C28.6765554,36.0074002 28.1390743,36.2074961 27.6198656,36.0943889 C27.1006568,35.9812816 26.695116,35.5757527 26.5820055,35.0565591 C26.4688949,34.5373655 26.6689967,33.9999001 27.0941059,33.6810775 L33.6806882,27.0946878 Z"></path>
                        </g>
                    </g>
                </g>
            </g>
        </g>
    </g>
</svg>