<?xml version="1.0" encoding="UTF-8"?>
<svg width="39px" height="37px" viewBox="0 0 39 37" version="1.1" xmlns="http://www.w3.org/2000/svg" xmlns:xlink="http://www.w3.org/1999/xlink">
    <!-- Generator: sketchtool 52.4 (67378) - http://www.bohemiancoding.com/sketch -->
    <title>7DFDF90C-8261-4616-BBDC-4A47B69E2D31</title>
    <desc>Created with sketchtool.</desc>
    <g id="Symbols" stroke="none" stroke-width="1" fill="none" fill-rule="evenodd">
        <g id="Header/Normal" transform="translate(-20.000000, -21.000000)">
            <g id="Header" transform="translate(20.000000, 21.000000)">
                <g id="Logo">
                    <path d="M38.67305,34.4230911 C38.9376929,35.6601842 38.009431,36.8296336 36.7632881,36.8283751 L22.8167643,36.8129587 C22.1639786,36.8123294 21.5545262,36.4800887 21.1930024,35.9272982 L10.5716929,19.6943839 C10.137431,19.0299025 10.1361929,18.1662655 10.5692167,17.5002111 L21.162669,1.21978891 C21.5241929,0.664481345 22.1361214,0.330038319 22.7910738,0.330038319 L29.8178833,0.330038319 C30.7368595,0.330038319 31.5314071,0.981305546 31.7260976,1.89370891 L38.67305,34.4230911 Z" id="Fill-1" fill="#5EA4D6"></path>
                    <path d="M7.02628333,1.87649909 L0.0455928571,34.4172077 C-0.219669048,35.6539862 0.706116667,36.8231209 1.95102143,36.8243794 L15.9671881,36.8404251 C16.6212119,36.8410544 17.2319024,36.5088137 17.5946643,35.9553939 L28.2472357,19.693849 C28.6821167,19.0299969 28.6833548,18.1647868 28.250331,17.4987324 L17.6556405,1.2170517 C17.2947357,0.663002622 16.6852833,0.328559597 16.0306405,0.327615731 L8.93728333,0.314716235 C8.01799762,0.312828504 7.2222119,0.963466487 7.02628333,1.87649909" id="Fill-4" fill-opacity="0.8" fill="#2A79F1"></path>
                    <path d="M12.1524929,7.91607449 C12.3010643,11.8148684 15.4585167,14.9289955 19.3291119,14.9289955 C23.2962786,14.9289955 26.5116119,11.6603891 26.5088262,7.62913936 C26.5088262,7.23177197 26.32435,6.87845163 26.0386595,6.6519239 C25.9374452,6.57232457 25.8247786,6.50877096 25.7022071,6.4647239 C25.5740643,6.41753062 25.4360167,6.39236087 25.2920881,6.39236087 C25.0469452,6.39236087 24.8185167,6.46661163 24.627231,6.59340424 C24.2941833,6.81395415 24.074731,7.19590508 24.074731,7.62913936 C24.074731,7.70685096 24.0815405,7.78267482 24.0951595,7.85629634 C23.9688738,10.3893168 21.9281833,12.407616 19.41485,12.4548093 L19.3913262,12.4548093 C19.37585,12.4548093 19.3603738,12.4560678 19.3445881,12.4560678 L19.3284929,12.4560678 C16.7000167,12.4560678 14.5680167,10.2961888 14.5537786,7.62913936 C14.5537786,6.94609533 14.0096357,6.39236087 13.3364214,6.39236087 C12.6650643,6.39236087 12.1196833,6.94609533 12.1196833,7.62913936 C12.1196833,7.72824524 12.1314452,7.82451953 12.1524929,7.91607449" id="Fill-7" fill="#FFFFFF"></path>
                    <path d="M19.403181,33.1847395 L10.4697048,19.4820141 L17.6661333,34.1836639 L17.6636571,34.1858662 C17.7880857,34.4309566 17.8592762,34.7084531 17.8592762,35.0029392 C17.8592762,35.371676 17.7493952,35.7139845 17.5615143,35.9987173 C17.5726571,35.9826716 17.5859667,35.968199 17.5971095,35.9512094 L18.4739905,34.6124934 L18.4730619,34.6106057 L19.403181,33.1847395 Z" id="Fill-9" fill="#362F47"></path>
                </g>
            </g>
        </g>
    </g>
</svg>