<?xml version="1.0" encoding="UTF-8"?>
<svg width="19px" height="12px" viewBox="0 0 19 12" version="1.1" xmlns="http://www.w3.org/2000/svg" xmlns:xlink="http://www.w3.org/1999/xlink">
    <!-- Generator: sketchtool 52.5 (67469) - http://www.bohemiancoding.com/sketch -->
    <title>96102CA6-82BE-45F8-B364-9D9F0D4CA086</title>
    <desc>Created with sketchtool.</desc>
    <g id="Icons" stroke="none" stroke-width="1" fill="none" fill-rule="evenodd">
        <g transform="translate(-612.000000, -1130.000000)" fill="#5594F4" fill-rule="nonzero" id="Stacked-Group">
            <g transform="translate(100.000000, 240.000000)">
                <g id="Stacked-Group-Copy-2" transform="translate(0.000000, 806.000000)">
                    <g id="Stacked-Group" transform="translate(0.000000, 70.000000)">
                        <path d="M530.872507,19.545624 C531.042498,19.8202826 531.042498,20.1797174 530.872507,20.454376 C530.732063,20.6804459 527.369832,26 521.5,26 C515.630168,26 512.267937,20.6804459 512.127493,20.4541727 C511.957502,20.1797174 511.957502,19.8204859 512.127493,19.545624 C512.267937,19.3193508 515.630168,14 521.5,14 C527.369832,14 530.732063,19.3193508 530.872507,19.545624 Z M521.5,24.3735981 C525.638318,24.3735981 528.408853,21.2045539 529.311357,20.0014231 C528.406048,18.7999187 525.622609,15.6264019 521.5,15.6264019 C517.361682,15.6264019 514.59096,18.7954461 513.688456,19.9985769 C514.593952,21.2000813 517.377391,24.3735981 521.5,24.3735981 Z M521.497063,16.1818182 C522.6091,16.1818182 523.62956,16.7370192 524.296633,17.7052507 C524.858644,18.5204852 525.095734,19.5254849 524.964829,20.5355913 C524.833737,21.5452892 524.350006,22.4389627 523.602967,23.0517674 C522.991328,23.5532459 522.264702,23.8181818 521.50137,23.8181818 C520.389895,23.8181818 519.36906,23.2629808 518.701426,22.2949536 C517.541446,20.6126004 517.852697,18.2136743 519.394717,16.9486411 C520.006918,16.4471626 520.733731,16.1818182 521.497063,16.1818182 Z M523.852605,20.3635975 C523.94156,19.677869 523.780316,18.9952046 523.398838,18.4416376 C522.94582,17.784711 522.252904,17.4074276 521.497438,17.4074276 C520.979623,17.4074276 520.486154,17.5877964 520.070779,17.9283116 C519.023539,18.7872595 518.812293,20.4156859 519.59997,21.5583624 C520.053362,22.215289 520.746466,22.5925724 521.501745,22.5925724 C522.019372,22.5925724 522.512467,22.4126121 522.927655,22.0718927 C523.435169,21.6557983 523.763274,21.0491216 523.852605,20.3635975 Z M521.5,18.3636364 C521.63125,18.3636364 521.760125,18.4221437 521.85375,18.5232018 C521.94625,18.6254873 522,18.7659594 522,18.9091591 C522,19.0523588 521.94625,19.1941947 521.85375,19.2951164 C521.76,19.3960381 521.63125,19.4545455 521.5,19.4545455 C521.36875,19.4545455 521.23875,19.3960381 521.14625,19.2951164 C521.054,19.1941947 521,19.0523588 521,18.9091591 C521,18.7659594 521.054,18.6254873 521.14625,18.5232018 C521.24,18.4222801 521.36875,18.3636364 521.5,18.3636364 Z" id="Icon-/-General-/-Preview---Secondary"></path>
                    </g>
                </g>
            </g>
        </g>
    </g>
</svg>