<?xml version="1.0" encoding="UTF-8"?>
<svg width="36px" height="30px" viewBox="0 0 36 30" version="1.1" xmlns="http://www.w3.org/2000/svg" xmlns:xlink="http://www.w3.org/1999/xlink">
    <!-- Generator: sketchtool 52.5 (67469) - http://www.bohemiancoding.com/sketch -->
    <title>F01F3658-6F09-42F6-B7CC-636FA921B2AA</title>
    <desc>Created with sketchtool.</desc>
    <g id="Icons" stroke="none" stroke-width="1" fill="none" fill-rule="evenodd">
        <g transform="translate(-100.000000, -2980.000000)" fill="#B9C0C8" fill-rule="nonzero" id="Stacked-Group">
            <g transform="translate(100.000000, 240.000000)">
                <g id="Stacked-Group-2-Copy-11" transform="translate(0.000000, 2685.000000)">
                    <g id="Stacked-Group" transform="translate(0.000000, 52.000000)">
                        <g id="Icon-/-Analytic-/-Wallet" transform="translate(0.000000, 3.000000)">
                            <path d="M30.798,7.03231881 C30.5365263,7.03231881 30.3243158,6.82232858 30.3252632,6.56359062 L30.3252632,5.0017883 C30.3252632,4.67180366 30.0543158,4.40369113 29.7208421,4.40369113 L27.4954737,4.40369113 L28.0136842,5.91768318 C28.098,6.16235929 27.9653684,6.42953436 27.7171579,6.51203052 C27.4717895,6.59733905 27.2008421,6.46422025 27.1165263,6.21860668 L25.8442105,2.50159215 L12.4967368,6.51765526 C12.4503158,6.53077965 12.4038947,6.53734184 12.3584211,6.53734184 C12.1547368,6.53734184 11.9671579,6.40797286 11.9046316,6.20548229 C11.8288421,5.9579938 11.97,5.69644347 12.2201053,5.62050951 L26.0071579,1.4732025 C26.2525263,1.39914345 26.5121053,1.53226226 26.5935789,1.77131363 L27.1743158,3.46717221 L29.7198947,3.46717221 C30.5753684,3.46717221 31.2716842,4.15620265 31.2716842,5.00272576 L31.2716842,6.56359062 C31.2716842,6.82232858 31.0594737,7.03231881 30.798,7.03231881 Z M34.5789474,14.0632416 C35.442,14.0632416 36,14.6154034 36,15.4694262 L36,21.0941644 C36,21.9481872 35.442,22.500349 34.5789474,22.500349 L27,22.500349 C26.1369474,22.500349 25.5789474,21.9481872 25.5789474,21.0941644 L25.5789474,16.4068826 C25.5789474,15.5528598 26.1369474,15.000698 27,15.000698 L32.2105263,15.000698 L32.2105263,9.84468793 C32.2105263,9.51564075 32.0693684,9.37595975 31.7368421,9.37595975 L2.84210526,9.37595975 C2.07663158,9.37595975 1.43336842,9.13690837 0.947368421,8.73098976 L0.947368421,27.1876309 C0.947368421,28.3435146 1.674,29.0625436 2.84210526,29.0625436 L31.7368421,29.0625436 C32.0693684,29.0625436 32.2105263,28.9228626 32.2105263,28.5938154 L32.2105263,23.9065336 C32.2105263,23.6477956 32.4227368,23.4378054 32.6842105,23.4378054 C32.9456842,23.4378054 33.1578947,23.6477956 33.1578947,23.9065336 L33.1578947,28.5938154 C33.1578947,29.4478382 32.5998947,30 31.7368421,30 L2.84210526,30 C1.14252632,30 0,28.8694276 0,27.1876309 L0,6.56359062 C0,4.88179388 1.14252632,3.7512215 2.84210526,3.7512215 L10.4210526,3.7512215 C10.4437895,3.7512215 10.4636842,3.76059606 10.4854737,3.76434589 L21.9486316,0.0238949489 C22.1977895,-0.0576637557 22.4658947,0.0763925059 22.5473684,0.322006076 C22.6297895,0.568557103 22.4943158,0.832919801 22.2461053,0.914478505 L5.08073684,6.51390543 C5.03052632,6.52984219 4.98126316,6.53734184 4.932,6.53734184 C4.73305263,6.53734184 4.54736842,6.41266015 4.482,6.21579431 C4.40052632,5.97018074 4.536,5.70488058 4.78421053,5.62425933 L7.65094737,4.68867787 L2.84210526,4.68867787 C1.674,4.68867787 0.947368421,5.40770691 0.947368421,6.56359062 C0.947368421,7.71947433 1.674,8.43850337 2.84210526,8.43850337 L31.7368421,8.43850337 C32.5998947,8.43850337 33.1578947,8.99066518 33.1578947,9.84468793 L33.1578947,15.4694262 C33.1578947,15.7281641 32.9456842,15.9381544 32.6842105,15.9381544 L27,15.9381544 C26.6674737,15.9381544 26.5263158,16.0778354 26.5263158,16.4068826 L26.5263158,21.0941644 C26.5263158,21.4232116 26.6674737,21.5628926 27,21.5628926 L34.5789474,21.5628926 C34.9114737,21.5628926 35.0526316,21.4232116 35.0526316,21.0941644 L35.0526316,15.4694262 C35.0526316,15.140379 34.9114737,15.000698 34.5789474,15.000698 C34.3174737,15.000698 34.1052632,14.7907078 34.1052632,14.5319698 C34.1052632,14.2732319 34.3174737,14.0632416 34.5789474,14.0632416 Z M30.3157895,19.6879799 C29.7925723,19.6879799 29.3684211,19.2682664 29.3684211,18.7505235 C29.3684211,18.2327806 29.7925723,17.8130671 30.3157895,17.8130671 C30.8390066,17.8130671 31.2631579,18.2327806 31.2631579,18.7505235 C31.2631579,19.2682664 30.8390066,19.6879799 30.3157895,19.6879799 Z"></path>
                        </g>
                    </g>
                </g>
            </g>
        </g>
    </g>
</svg>