<?xml version="1.0" encoding="UTF-8"?>
<svg width="20px" height="16px" viewBox="0 0 20 16" version="1.1" xmlns="http://www.w3.org/2000/svg" xmlns:xlink="http://www.w3.org/1999/xlink">
    <!-- Generator: sketchtool 52.5 (67469) - http://www.bohemiancoding.com/sketch -->
    <title>A54D4341-3547-4D6C-9769-FBC4861E5689</title>
    <desc>Created with sketchtool.</desc>
    <g id="Icons" stroke="none" stroke-width="1" fill="none" fill-rule="evenodd">
        <g transform="translate(-240.000000, -310.000000)" fill="#352E47" fill-rule="nonzero" id="Stacked-Group">
            <g transform="translate(100.000000, 240.000000)">
                <g id="Icon-/-Main-Nav-/-Wallet">
                    <g transform="translate(0.000000, 68.000000)">
                        <g>
                            <g>
                                <g>
                                    <g transform="translate(140.000000, 2.000000)">
                                        <path d="M1.84,0 C0.835294118,0 0.0164705882,0.787727435 0.0164705882,1.75583304 L0,1.75583304 L0,14.244167 C0,15.2122726 0.817647059,16 1.82352941,16 L17.6964706,16 L17.6964706,14.1105958 L20,14.1105958 L20,0 L1.84,0 Z M1.82352941,14.8572244 C1.46705882,14.8572244 1.17647059,14.5820906 1.17647059,14.2430253 L1.17647059,3.30274706 C1.20470588,3.31073849 1.24,3.30845523 1.26823529,3.31644666 C1.43647059,3.36439529 1.61294118,3.39407777 1.80117647,3.39750268 C1.80941176,3.39750268 1.81529412,3.40092758 1.82352941,3.40092758 L16.5211765,3.40092758 L16.5211765,6.86578666 L13.1576471,6.86578666 C12.1435294,6.86578666 11.3188235,7.63410631 11.3188235,8.5782376 L11.3188235,9.71987157 C11.3188235,10.6640029 12.1435294,11.4323225 13.1576471,11.4323225 L16.5211765,11.4323225 L16.5211765,14.8572244 L1.82352941,14.8572244 Z M13.1564706,10.2906885 C12.7905882,10.2906885 12.4941176,10.0349625 12.4941176,9.71987157 L12.4941176,8.5782376 C12.4941176,8.26314663 12.7917647,8.00742062 13.1564706,8.00742062 L18.8235294,8.00742062 L18.8235294,10.2906885 L13.1564706,10.2906885 Z M18.8235294,12.9678202 L17.6964706,12.9678202 L17.6964706,11.4323225 L18.8235294,11.4323225 L18.8235294,12.9678202 Z M17.6964706,6.86578666 L17.6964706,2.25929361 L1.84,2.25929361 C1.51882353,2.25929361 1.19294118,2.10288976 1.19294118,1.75583304 C1.19411765,1.41676775 1.48470588,1.14163396 1.84,1.14163396 L18.8235294,1.14163396 L18.8235294,6.86578666 L17.6964706,6.86578666 Z"></path>
                                    </g>
                                </g>
                            </g>
                        </g>
                    </g>
                </g>
            </g>
        </g>
    </g>
</svg>