<?xml version="1.0" encoding="UTF-8"?>
<svg width="14px" height="10px" viewBox="0 0 14 10" version="1.1" xmlns="http://www.w3.org/2000/svg" xmlns:xlink="http://www.w3.org/1999/xlink">
    <!-- Generator: sketchtool 52.5 (67469) - http://www.bohemiancoding.com/sketch -->
    <title>3E35CE81-C4BE-42F6-8A23-5969CB4C9894</title>
    <desc>Created with sketchtool.</desc>
    <g id="Comments" stroke="none" stroke-width="1" fill="none" fill-rule="evenodd">
        <g transform="translate(-148.000000, -373.000000)" fill="#B9C0C8" fill-rule="nonzero" id="Stacked-Group-2">
            <g transform="translate(100.000000, 240.000000)">
                <g id="Stacked-Group-2-Copy-4">
                    <g id="Group-7" transform="translate(0.000000, 117.000000)">
                        <path d="M52.10375,25.143125 C52.239375,25.0075 52.235,24.793125 52.10375,24.64875 L49.19875,21.39375 L61.65,21.39375 C61.8425,21.39375 62,21.23625 62,21.04375 C62,20.85125 61.8425,20.69375 61.65,20.69375 L49.19875,20.69375 L52.099375,17.43875 C52.22625,17.29 52.239375,17.084375 52.10375,16.94875 C51.968125,16.813125 51.731875,16.804375 51.605,16.944375 C51.605,16.944375 48.14,20.750625 48.105,20.794375 C48.07,20.838125 48,20.916875 48,21.04375 C48,21.170625 48.07,21.258125 48.105,21.293125 C48.14,21.328125 51.605,25.143125 51.605,25.143125 C51.670625,25.20875 51.7625,25.24375 51.854375,25.24375 C51.94625,25.24375 52.03375,25.20875 52.10375,25.143125 Z" id="Icon-/-General-/-Arrow---Left---N20"></path>
                    </g>
                </g>
            </g>
        </g>
    </g>
</svg>