<?xml version="1.0" encoding="UTF-8"?>
<svg width="18px" height="18px" viewBox="0 0 18 18" version="1.1" xmlns="http://www.w3.org/2000/svg" xmlns:xlink="http://www.w3.org/1999/xlink">
    <!-- Generator: sketchtool 52.5 (67469) - http://www.bohemiancoding.com/sketch -->
    <title>BE185643-C41B-4CE2-B432-9ACFA771DA71</title>
    <desc>Created with sketchtool.</desc>
    <g id="Icons" stroke="none" stroke-width="1" fill="none" fill-rule="evenodd">
        <g transform="translate(-221.000000, -1326.000000)" fill="#FFFFFF" id="Stacked-Group">
            <g transform="translate(100.000000, 240.000000)">
                <g id="Stacked-Group-Copy-3" transform="translate(0.000000, 1016.000000)">
                    <g id="Stacked-Group" transform="translate(0.000000, 70.000000)">
                        <path d="M130.035156,0 L139,3.39029126 L139,14.6446602 L130,18 L121,14.6446602 L121,3.39029126 L130.035156,0 Z M136.960938,3.73980583 L130,1.1184466 L127.292969,2.16699029 L134.21875,4.75339806 L136.960938,3.73980583 Z M130,6.36116505 L132.742188,5.31262136 L125.78125,2.72621359 L123.039062,3.73980583 L130,6.36116505 Z M122.054688,4.50873786 L122.054688,13.9106796 L129.472656,16.6718447 L129.472656,7.26990291 L122.054688,4.50873786 Z M130.527344,16.6718447 L137.945312,13.9106796 L137.945312,4.50873786 L130.527344,7.26990291 L130.527344,16.6718447 Z" id="Icon-/-Progresses-/-3---N0"></path>
                    </g>
                </g>
            </g>
        </g>
    </g>
</svg>