<?xml version="1.0" encoding="UTF-8"?>
<svg width="17px" height="17px" viewBox="0 0 17 17" version="1.1" xmlns="http://www.w3.org/2000/svg" xmlns:xlink="http://www.w3.org/1999/xlink">
    <!-- Generator: sketchtool 52.5 (67469) - http://www.bohemiancoding.com/sketch -->
    <title>2D37C1B8-CE94-4CDD-B090-8D0402DBE679</title>
    <desc>Created with sketchtool.</desc>
    <g id="Icons" stroke="none" stroke-width="1" fill="none" fill-rule="evenodd">
        <g transform="translate(-317.000000, -1128.000000)" fill="#7A5ACA" id="Stacked-Group">
            <g transform="translate(100.000000, 240.000000)">
                <g id="Stacked-Group-Copy-2" transform="translate(0.000000, 806.000000)">
                    <g id="Stacked-Group" transform="translate(0.000000, 70.000000)">
                        <path d="M233.48163,14.1011236 L233.51987,14.1011236 C233.647339,14.2794016 233.762059,14.470411 233.864034,14.6741573 C233.966009,14.8779036 234.010622,15.0943809 233.997875,15.3235955 C233.985129,15.5528101 233.940515,15.7692874 233.864034,15.9730337 C233.787553,16.17678 233.660086,16.3677894 233.48163,16.5460674 L223.08023,26.9752809 L217,29 L219.026743,22.9258427 L229.428143,12.4966292 C229.606599,12.3183512 229.7978,12.1910116 230.00175,12.1146067 C230.2057,12.0382019 230.422393,12 230.651837,12 C230.881281,12 231.097974,12.0382019 231.301924,12.1146067 C231.505875,12.1910116 231.697075,12.3183512 231.875531,12.4966292 L233.48163,14.1011236 Z M219.141465,26.0966292 L219.906273,26.8224719 L222.124219,26.058427 L219.944514,23.8426966 L219.141465,26.0966292 Z M220.632842,22.9258427 L223.041989,25.3325843 L229.389902,19.0292135 L226.942514,16.5842697 L220.632842,22.9258427 Z M227.745564,15.7820225 L230.192952,18.2269663 L230.996001,17.3865169 L228.625094,14.941573 L227.745564,15.7820225 Z M232.67858,15.7438202 C232.729568,15.6674153 232.774181,15.5973786 232.812422,15.5337079 C232.850662,15.4700371 232.863409,15.4000004 232.850662,15.3235955 C232.837915,15.2471906 232.825169,15.1771539 232.812422,15.1134831 C232.799675,15.0498124 232.742315,14.9797757 232.64034,14.9033708 L231.072482,13.2988764 C230.996001,13.2479398 230.925894,13.209738 230.862159,13.1842697 C230.798425,13.1588014 230.728318,13.1460674 230.651837,13.1460674 C230.575356,13.1460674 230.505249,13.1588014 230.441515,13.1842697 C230.37778,13.209738 230.307673,13.2479398 230.231192,13.2988764 L229.428143,14.1393258 L231.837291,16.5460674 L232.67858,15.7438202 Z" id="Icon-/-General-/-Edit---Primary"></path>
                    </g>
                </g>
            </g>
        </g>
    </g>
</svg>