<?xml version="1.0" encoding="UTF-8"?>
<svg width="48px" height="40px" viewBox="0 0 48 40" version="1.1" xmlns="http://www.w3.org/2000/svg" xmlns:xlink="http://www.w3.org/1999/xlink">
    <!-- Generator: sketchtool 52.5 (67469) - http://www.bohemiancoding.com/sketch -->
    <title>E1BC0DEF-E265-4918-909C-EE26184EAE6E</title>
    <desc>Created with sketchtool.</desc>
    <g id="Icons" stroke="none" stroke-width="1" fill="none" fill-rule="evenodd">
        <g transform="translate(-1129.000000, -1116.000000)" fill="#FFFFFF" id="Stacked-Group">
            <g transform="translate(100.000000, 240.000000)">
                <g id="Stacked-Group-Copy-2" transform="translate(0.000000, 806.000000)">
                    <g id="Stacked-Group" transform="translate(0.000000, 70.000000)">
                        <path d="M1074,0 C1074.8125,0 1075.51562,0.293206944 1076.10938,0.87962963 C1076.70313,1.46605231 1077,2.16048981 1077,2.96296296 L1077,37.037037 C1077,37.8395102 1076.70313,38.5339477 1076.10938,39.1203704 C1075.51562,39.7067931 1074.8125,40 1074,40 L1032,40 C1031.1875,40 1030.48438,39.7067931 1029.89062,39.1203704 C1029.29687,38.5339477 1029,37.8395102 1029,37.037037 L1029,2.96296296 C1029,2.16048981 1029.29687,1.46605231 1029.89062,0.87962963 C1030.48438,0.293206944 1031.1875,0 1032,0 L1074,0 Z M1074,37.037037 L1074,34.2592593 C1073.9375,34.2592593 1073.90625,34.2283954 1073.90625,34.1666667 L1063.96875,24.1666667 L1058.53125,29.0740741 C1057.71875,29.6913611 1057.03125,29.6913611 1056.46875,29.0740741 L1044,16.7592593 L1032,28.3333333 L1032,37.037037 L1074,37.037037 Z M1074,30.0925926 L1074,2.96296296 L1032,2.96296296 L1032,24.1666667 L1042.96875,13.6111111 C1043.28125,13.3641963 1043.65625,13.2407407 1044.09375,13.2407407 C1044.53125,13.2407407 1044.875,13.4259241 1045.125,13.7962963 L1057.59375,25.9259259 L1063.21875,21.0185185 C1063.90625,20.5246889 1064.5625,20.5864167 1065.1875,21.2037037 L1074,30.0925926 Z M1061.34375,13.9814815 C1060.78125,13.3641944 1060.5,12.654325 1060.5,11.8518519 C1060.5,11.0493787 1060.79687,10.3549412 1061.39062,9.76851852 C1061.98438,9.18209583 1062.6875,8.88888889 1063.5,8.88888889 C1064.3125,8.88888889 1065.01562,9.18209583 1065.60938,9.76851852 C1066.20313,10.3549412 1066.5,11.0493787 1066.5,11.8518519 C1066.5,12.654325 1066.20313,13.3487625 1065.60938,13.9351852 C1065.01562,14.5216079 1064.3125,14.8148148 1063.5,14.8148148 C1062.6875,14.8148148 1061.96875,14.5370398 1061.34375,13.9814815 Z" id="Icon-/-General-/-Image---N0"></path>
                    </g>
                </g>
            </g>
        </g>
    </g>
</svg>