<?xml version="1.0" encoding="UTF-8"?>
<svg width="17px" height="15px" viewBox="0 0 17 15" version="1.1" xmlns="http://www.w3.org/2000/svg" xmlns:xlink="http://www.w3.org/1999/xlink">
    <!-- Generator: sketchtool 52.5 (67469) - http://www.bohemiancoding.com/sketch -->
    <title>B44DD1A9-571D-4F09-A0F0-18B5832A3E61</title>
    <desc>Created with sketchtool.</desc>
    <g id="Icons" stroke="none" stroke-width="1" fill="none" fill-rule="evenodd">
        <g transform="translate(-733.000000, -1128.000000)" fill="#B9C0C8" fill-rule="nonzero" id="Stacked-Group">
            <g transform="translate(100.000000, 240.000000)">
                <g id="Stacked-Group-Copy-2" transform="translate(0.000000, 806.000000)">
                    <g id="Stacked-Group" transform="translate(0.000000, 70.000000)">
                        <path d="M633,12 L638,12 L638,27 L633,27 L633,12 Z M640,27 L641,27 L641,26.1176471 L640,26.1176471 L640,27 Z M647.222,27 L648.111,27 L648.111,26.1176471 L647.222,26.1176471 L647.222,27 Z M645.444,27 L646.333,27 L646.333,26.1176471 L645.444,26.1176471 L645.444,27 Z M641.889,27 L642.778,27 L642.778,26.1176471 L641.889,26.1176471 L641.889,27 Z M643.667,27 L644.556,27 L644.556,26.1176471 L643.667,26.1176471 L643.667,27 Z M649,27 L650,27 L650,26.1176471 L649,26.1176471 L649,27 Z M649,14.6470588 L650,14.6470588 L650,13.7647059 L649,13.7647059 L649,14.6470588 Z M649,25.2352941 L650,25.2352941 L650,24.3529412 L649,24.3529412 L649,25.2352941 Z M649,18.1764706 L650,18.1764706 L650,17.2941176 L649,17.2941176 L649,18.1764706 Z M649,16.4117647 L650,16.4117647 L650,15.5294118 L649,15.5294118 L649,16.4117647 Z M649,19.9411765 L650,19.9411765 L650,19.0588235 L649,19.0588235 L649,19.9411765 Z M649,21.7058824 L650,21.7058824 L650,20.8235294 L649,20.8235294 L649,21.7058824 Z M649,23.4705882 L650,23.4705882 L650,22.5882353 L649,22.5882353 L649,23.4705882 Z M649,12 L649,12.8823529 L650,12.8823529 L650,12 L649,12 Z M647.223,12.8823529 L648.112,12.8823529 L648.112,12 L647.223,12 L647.223,12.8823529 Z M645.445,12.8823529 L646.334,12.8823529 L646.334,12 L645.445,12 L645.445,12.8823529 Z M643.667,12.8823529 L644.556,12.8823529 L644.556,12 L643.667,12 L643.667,12.8823529 Z M641.889,12.8823529 L642.778,12.8823529 L642.778,12 L641.889,12 L641.889,12.8823529 Z M640,12.8823529 L641,12.8823529 L641,12 L640,12 L640,12.8823529 Z M640,25.2352941 L641,25.2352941 L641,24.3529412 L640,24.3529412 L640,25.2352941 Z M640,23.4705882 L641,23.4705882 L641,22.5882353 L640,22.5882353 L640,23.4705882 Z M640,18.1764706 L641,18.1764706 L641,17.2941176 L640,17.2941176 L640,18.1764706 Z M640,21.7058824 L641,21.7058824 L641,20.8235294 L640,20.8235294 L640,21.7058824 Z M640,16.4117647 L641,16.4117647 L641,15.5294118 L640,15.5294118 L640,16.4117647 Z M640,14.6470588 L641,14.6470588 L641,13.7647059 L640,13.7647059 L640,14.6470588 Z M640,19.9411765 L641,19.9411765 L641,19.0588235 L640,19.0588235 L640,19.9411765 Z" id="Icon-/-General-/-Pilih-Layout---N20"></path>
                    </g>
                </g>
            </g>
        </g>
    </g>
</svg>