<?xml version="1.0" encoding="UTF-8"?>
<svg width="22px" height="22px" viewBox="0 0 22 22" version="1.1" xmlns="http://www.w3.org/2000/svg" xmlns:xlink="http://www.w3.org/1999/xlink">
    <!-- Generator: Sketch 52.4 (67378) - http://www.bohemiancoding.com/sketch -->
    <title>Icon / General / Head Nav / Notification - Primary</title>
    <desc>Created with Sketch.</desc>
    <g id="Icons" stroke="none" stroke-width="1" fill="none" fill-rule="evenodd" stroke-linecap="round" stroke-linejoin="round">
        <g transform="translate(-99.000000, -925.000000)" id="Stacked-Group" stroke="#7A5ACA" stroke-width="2">
            <g transform="translate(100.000000, 240.000000)">
                <g transform="translate(0.000000, 619.000000)" id="Icon-/-General-/-Head-Nav-/-Notification---Primary">
                    <g transform="translate(0.000000, 67.000000)">
                        <path d="M20,15.0026582 L0,15.0026582 C1.65685425,15.0026582 3,13.6592744 3,12.0021266 L3,7.00124045 C3.00000006,3.1345621 6.13400679,-4.44167913e-16 10,0 C13.8659932,4.44167913e-16 16.9999999,3.1345621 17,7.00124045 L17,12.0021266 C17,13.6592744 18.3431458,15.0026582 20,15.0026582 Z M11.73,19.0033671 C11.3722022,19.6202808 10.7130686,20 10,20 C9.28693139,20 8.62779776,19.6202808 8.27,19.0033671 L11.73,19.0033671 Z"></path>
                    </g>
                </g>
            </g>
        </g>
    </g>
</svg>