<?xml version="1.0" encoding="UTF-8"?>
<svg width="40px" height="40px" viewBox="0 0 40 40" version="1.1" xmlns="http://www.w3.org/2000/svg" xmlns:xlink="http://www.w3.org/1999/xlink">
    <!-- Generator: sketchtool 53.2 (72643) - https://sketchapp.com -->
    <title>759671F1-5C14-44DC-A661-4EDCEAEC0161</title>
    <desc>Created with sketchtool.</desc>
    <g id="Dashboard" stroke="none" stroke-width="1" fill="none" fill-rule="evenodd">
        <g id="9.Order-Detail---delivered" transform="translate(-360.000000, -1025.000000)">
            <g id="left" transform="translate(310.000000, 270.000000)">
                <g id="acts" transform="translate(50.000000, 545.000000)">
                    <g id="order" transform="translate(0.000000, 210.000000)">
                        <g id="icon-nomor-tracking">
                            <circle id="Oval-3" fill="#E97453" cx="20" cy="20" r="20"></circle>
                            <path d="M20.0351562,11.0898438 L29,14.5 L29,25.8203125 L20,29.1953125 L11,25.8203125 L11,14.5 L20.0351562,11.0898438 Z M26.9609375,14.8515625 L20,12.2148438 L17.2929688,13.2695312 L24.21875,15.8710938 L26.9609375,14.8515625 Z M20,17.4882812 L22.7421875,16.4335938 L15.78125,13.8320312 L13.0390625,14.8515625 L20,17.4882812 Z M12.0546875,15.625 L12.0546875,25.0820312 L19.4726562,27.859375 L19.4726562,18.4023438 L12.0546875,15.625 Z M20.5273438,27.859375 L27.9453125,25.0820312 L27.9453125,15.625 L20.5273438,18.4023438 L20.5273438,27.859375 Z" id="" fill="#FFFFFF"></path>
                        </g>
                    </g>
                </g>
            </g>
        </g>
    </g>
</svg>