<?xml version="1.0" encoding="UTF-8"?>
<svg width="31px" height="30px" viewBox="0 0 31 30" version="1.1" xmlns="http://www.w3.org/2000/svg" xmlns:xlink="http://www.w3.org/1999/xlink">
    <!-- Generator: Sketch 53.2 (72643) - https://sketchapp.com -->
    <title>ic-unpaid</title>
    <desc>Created with Sketch.</desc>
    <g id="Dashboard" stroke="none" stroke-width="1" fill="none" fill-rule="evenodd">
        <g id="1.Dashboard" transform="translate(-1023.000000, -320.000000)" fill="#E6B56F" fill-rule="nonzero">
            <g id="Group-5" transform="translate(770.000000, 270.000000)">
                <g id="Group-11" transform="translate(253.000000, 40.454128)">
                    <g id="Group-2">
                        <g id="Group-14">
                            <path d="M10.7285494,39.5458716 C10.6421883,39.5458716 10.5990078,39.5458716 10.5126467,39.5036699 C10.1240217,39.3770648 9.90811899,38.9972497 10.0376606,38.6174346 L19.5805618,10.0468969 C19.7101035,9.66708182 20.0987284,9.45607341 20.4873533,9.58267845 C20.8759783,9.7092835 21.091881,10.0890986 20.9623394,10.4689137 L11.4194382,39.0816531 C11.3330771,39.3770648 11.0308132,39.5458716 10.7285494,39.5458716 Z M29.9808219,17.2256745 C30.5328767,17.2256745 31,17.6862656 31,18.2306006 L31,30.5409455 C31,31.0852804 30.5328767,31.5458716 29.9808219,31.5458716 L16.4342466,31.5458716 C16.0945205,31.5458716 15.7972603,31.2527681 15.7972603,30.9177927 C15.7972603,30.5828174 16.0945205,30.2897139 16.4342466,30.2897139 L29.7260274,30.2897139 L29.7260274,18.4818322 L20.5109589,18.4818322 C20.1712329,18.4818322 19.8739726,18.1887287 19.8739726,17.8537533 C19.8739726,17.518778 20.1712329,17.2256745 20.5109589,17.2256745 L27.8150685,17.2256745 C27.8150685,17.1838026 27.8150685,17.1419307 27.8150685,17.1000588 L27.8150685,15.8020292 L21.6575342,15.8020292 C21.3178082,15.8020292 21.0205479,15.5089257 21.0205479,15.1739504 C21.0205479,14.838975 21.3178082,14.5458716 21.6575342,14.5458716 L28.069863,14.5458716 C28.6219178,14.5458716 29.0890411,15.0064627 29.0890411,15.5507977 L29.0890411,17.1000588 C29.0890411,17.1419307 29.0890411,17.1838026 29.0890411,17.2256745 L29.9808219,17.2256745 Z M17.1561644,29.3685317 C16.8164384,29.3685317 16.5191781,29.0335563 16.5191781,28.6985809 C16.5191781,28.3636055 16.8164384,28.0705021 17.1561644,28.0705021 L24.8,28.0705021 C25.139726,26.9399602 26.0739726,26.018778 27.2205479,25.6419307 L27.2205479,23.2552312 C26.0739726,22.9202558 25.1821918,21.9990735 24.8,20.8685317 L19.7041096,20.8685317 C19.3643836,20.8685317 19.0671233,20.5754282 19.0671233,20.2404528 C19.0671233,19.9054775 19.3643836,19.612374 19.7041096,19.612374 L25.8616438,19.612374 L25.9465753,20.156709 C26.1164384,21.1616351 27.0082192,22.0409455 27.9849315,22.1665612 L28.5369863,22.2503051 L28.5369863,26.7306006 L27.9849315,26.8143445 C26.9657534,26.9399602 26.0739726,27.8192706 25.9465753,28.8241967 L25.8616438,29.3685317 L17.1561644,29.3685317 Z M21.2328767,24.5532607 C21.2328767,26.0606499 20.0013699,27.2749356 18.5150685,27.2330637 C18.2178082,27.2330637 17.9205479,27.1911918 17.6657534,27.1074479 L18.0479452,25.8931622 C18.2178082,25.9350341 18.3452055,25.976906 18.5150685,25.976906 C19.3219178,25.976906 19.9589041,25.3488272 19.9589041,24.5532607 C19.9589041,23.9251819 19.5342466,23.3808469 18.939726,23.2133592 L19.3219178,21.9990735 C20.4260274,22.3340489 21.2328767,23.338975 21.2328767,24.5532607 Z M15.0328767,14.5458716 C15.4150685,14.5458716 15.669863,14.838975 15.669863,15.1739504 C15.669863,15.5089257 15.3726027,15.8020292 15.0328767,15.8020292 L3.22739726,15.8020292 L3.22739726,17.1000588 C3.22739726,17.1419307 3.22739726,17.1838026 3.22739726,17.2256745 L14.1410959,17.2256745 C14.5232877,17.2256745 14.7780822,17.518778 14.7780822,17.8537533 C14.7780822,18.1887287 14.4808219,18.4818322 14.1410959,18.4818322 L1.2739726,18.4818322 L1.2739726,30.2897139 L9.80958904,30.2897139 C10.1493151,30.2897139 10.4465753,30.5828174 10.4465753,30.9177927 C10.4465753,31.2527681 10.1493151,31.5458716 9.80958904,31.5458716 L1.01917808,31.5458716 C0.467123288,31.5458716 4.61852778e-14,31.0852804 4.61852778e-14,30.5409455 L4.61852778e-14,18.2306006 C4.61852778e-14,17.6862656 0.467123288,17.2256745 1.01917808,17.2256745 L1.95342466,17.2256745 C1.95342466,17.1838026 1.95342466,17.1419307 1.95342466,17.1000588 L1.95342466,15.5507977 C1.95342466,15.0064627 2.42054795,14.5458716 2.97260274,14.5458716 L15.0328767,14.5458716 Z M13.3767123,19.5286302 C13.7589041,19.5286302 14.0136986,19.8636055 14.0136986,20.1985809 C14.0136986,20.5335563 13.7164384,20.8266597 13.3767123,20.8266597 L6.03013699,20.8266597 C5.69041096,21.9572016 4.75616438,22.8783839 3.60958904,23.2552312 L3.60958904,25.6419307 C4.75616438,25.976906 5.64794521,26.8980883 6.03013699,28.0286302 L10.6164384,28.0286302 C10.9561644,28.0286302 11.2534247,28.3217336 11.2534247,28.656709 C11.2534247,28.9916844 10.9561644,29.2847878 10.6164384,29.2847878 L4.96849315,29.2847878 L4.88356164,28.7404528 C4.71369863,27.7355267 3.82191781,26.8562164 2.84520548,26.7306006 L2.29315068,26.6468568 L2.29315068,22.1665612 L2.84520548,22.0828174 C3.86438356,21.9572016 4.75616438,21.0778913 4.88356164,20.0729652 L4.96849315,19.5286302 L13.3767123,19.5286302 Z M9.25753425,24.3439011 C9.25753425,22.8783839 10.4890411,21.6640982 11.9753425,21.6222262 C12.2726027,21.6222262 12.569863,21.6640982 12.8246575,21.747842 L12.4424658,22.9621277 C12.2726027,22.9202558 12.1452055,22.8783839 11.9753425,22.8783839 C11.1684932,22.8783839 10.5315068,23.5064627 10.5315068,24.3020292 C10.5315068,24.9719799 10.9561644,25.474443 11.5506849,25.6838026 L11.1684932,26.8980883 C10.0643836,26.5631129 9.25753425,25.5581868 9.25753425,24.3439011 Z" id="ic-unpaid"></path>
                        </g>
                    </g>
                </g>
            </g>
        </g>
    </g>
</svg>