<?xml version="1.0" encoding="UTF-8"?>
<svg width="23px" height="26px" viewBox="0 0 23 26" version="1.1" xmlns="http://www.w3.org/2000/svg" xmlns:xlink="http://www.w3.org/1999/xlink">
    <!-- Generator: sketchtool 52.5 (67469) - http://www.bohemiancoding.com/sketch -->
    <title>94C4A979-F76C-4C9B-AAB2-FBE012A0E07E</title>
    <desc>Created with sketchtool.</desc>
    <g id="Icons" stroke="none" stroke-width="1" fill="none" fill-rule="evenodd">
        <g transform="translate(-382.000000, -2982.000000)" fill="#ffffff" fill-rule="nonzero" id="Stacked-Group">
            <g transform="translate(100.000000, 240.000000)">
                <g id="Stacked-Group-2-Copy-11" transform="translate(0.000000, 2685.000000)">
                    <g id="Stacked-Group" transform="translate(0.000000, 52.000000)">
                        <g id="Icon-/-Analytic-/-User" transform="translate(282.000000, 5.000000)">
                            <path d="M23,25 C23,25.5522847 22.5586807,26 22.0142857,26 C21.4698907,26 21.0285714,25.5522847 21.0285714,25 L21.0285714,22.3333333 C21.0285714,19.9400994 19.1161877,18 16.7571429,18 L6.24285714,18 C3.88381228,18 1.97142857,19.9400994 1.97142857,22.3333333 L1.97142857,25 C1.97142857,25.5522847 1.53010925,26 0.985714286,26 C0.441319318,26 0,25.5522847 0,25 L0,22.3333333 C0,18.8355299 2.79502235,16 6.24285714,16 L16.7571429,16 C20.2049777,16 23,18.8355299 23,22.3333333 L23,25 Z M11.5,12.6666667 C8.0521652,12.6666667 5.25714286,9.83113675 5.25714286,6.33333333 C5.25714286,2.83552992 8.0521652,1.50102153e-13 11.5,1.50102153e-13 C14.9478348,1.50102153e-13 17.7428571,2.83552992 17.7428571,6.33333333 C17.7428571,9.83113675 14.9478348,12.6666667 11.5,12.6666667 Z M11.5,10.6666667 C13.8590449,10.6666667 15.7714286,8.72656725 15.7714286,6.33333333 C15.7714286,3.94009942 13.8590449,2 11.5,2 C9.14095514,2 7.22857143,3.94009942 7.22857143,6.33333333 C7.22857143,8.72656725 9.14095514,10.6666667 11.5,10.6666667 Z"></path>
                        </g>
                    </g>
                </g>
            </g>
        </g>
    </g>
</svg>